Inknut Antiqua-Bold.ufo
<glyph name="exclam" format="1">
  <advance width="339"/>
  <unicode hex="0021"/>
  <outline>
	<contour>
	  <point x="223" y="786" type="line"/>
	  <point x="30" y="708" type="line"/>
	  <point x="30" y="637" type="line"/>
	  <point x="107" y="297" type="line"/>
	  <point x="237" y="297" type="line"/>
	  <point x="301" y="786" type="line"/>
	</contour>
	<component base="period" xOffset="14"/>
  </outline>
</glyph>
<glyph name="ampersand" format="1">
  <advance width="1303"/>
  <unicode hex="0026"/>
  <outline>
    <contour>
      <point x="256" y="593"/>
      <point x="50" y="454"/>
      <point x="50" y="274" type="curve" smooth="yes"/>
      <point x="50" y="112"/>
      <point x="186" y="-10"/>
      <point x="380" y="-10" type="curve" smooth="yes"/>
      <point x="418" y="-10"/>
      <point x="464" y="-8"/>
      <point x="513" y="9" type="curve"/>
      <point x="851" y="280" type="line"/>
      <point x="912" y="422" type="line"/>
      <point x="693" y="247" type="line" smooth="yes"/>
      <point x="611" y="181"/>
      <point x="501" y="135"/>
      <point x="418" y="135" type="curve" smooth="yes"/>
      <point x="324" y="135"/>
      <point x="260" y="215"/>
      <point x="260" y="322" type="curve" smooth="yes"/>
      <point x="260" y="415"/>
      <point x="290" y="459"/>
      <point x="357" y="459" type="curve" smooth="yes"/>
      <point x="398" y="459"/>
      <point x="417" y="420"/>
      <point x="417" y="389" type="curve" smooth="yes"/>
      <point x="417" y="354"/>
      <point x="402" y="320"/>
      <point x="314" y="290" type="curve"/>
      <point x="355" y="210" type="line"/>
      <point x="505" y="264"/>
      <point x="614" y="322"/>
      <point x="614" y="430" type="curve" smooth="yes"/>
      <point x="614" y="506"/>
      <point x="563" y="593"/>
      <point x="411" y="593" type="curve" smooth="yes"/>
    </contour>
    <contour>
      <point x="891" y="411" type="line"/>
      <point x="779" y="369"/>
      <point x="678" y="281"/>
      <point x="678" y="174" type="curve" smooth="yes"/>
      <point x="678" y="72"/>
      <point x="782" y="-10"/>
      <point x="928" y="-10" type="curve" smooth="yes"/>
      <point x="978" y="-10"/>
      <point x="1036" y="-8"/>
      <point x="1101" y="9" type="curve"/>
      <point x="1238" y="119" type="line"/>
      <point x="1208" y="187" type="line"/>
      <point x="1100" y="149"/>
      <point x="1031" y="135"/>
      <point x="986" y="135" type="curve" smooth="yes"/>
      <point x="924" y="135"/>
      <point x="888" y="174"/>
      <point x="888" y="242" type="curve" smooth="yes"/>
      <point x="888" y="283"/>
      <point x="903" y="318"/>
      <point x="952" y="363" type="curve"/>
    </contour>
    <contour>
      <point x="948" y="773" type="line"/>
      <point x="948" y="702" type="line"/>
      <point x="1060" y="671"/>
      <point x="1133" y="634"/>
      <point x="1133" y="588" type="curve" smooth="yes"/>
      <point x="1133" y="554"/>
      <point x="1105" y="531"/>
      <point x="1043" y="531" type="curve" smooth="yes"/>
      <point x="964" y="531"/>
      <point x="897" y="593"/>
      <point x="800" y="593" type="curve" smooth="yes"/>
      <point x="718" y="593"/>
      <point x="634" y="511"/>
      <point x="577" y="443" type="curve"/>
      <point x="584" y="377" type="line"/>
      <point x="624" y="422"/>
      <point x="680" y="436"/>
      <point x="711" y="436" type="curve" smooth="yes"/>
      <point x="812" y="436"/>
      <point x="889" y="347"/>
      <point x="996" y="347" type="curve" smooth="yes"/>
      <point x="1077" y="347"/>
      <point x="1253" y="493"/>
      <point x="1253" y="621" type="curve" smooth="yes"/>
      <point x="1253" y="686"/>
      <point x="1182" y="782"/>
      <point x="1146" y="820" type="curve"/>
    </contour>
  </outline>
</glyph>
<glyph name="parenleft" format="1">
  <advance width="507"/>
  <unicode hex="0028"/>
  <outline>
    <contour>
      <point x="453" y="953" type="line"/>
      <point x="297" y="859"/>
      <point x="50" y="673"/>
      <point x="50" y="355" type="curve" smooth="yes"/>
      <point x="50" y="78"/>
      <point x="210" y="-128"/>
      <point x="449" y="-210" type="curve"/>
      <point x="506" y="-131" type="line"/>
      <point x="328" y="-18"/>
      <point x="265" y="191"/>
      <point x="265" y="403" type="curve" smooth="yes"/>
      <point x="265" y="632"/>
      <point x="352" y="773"/>
      <point x="507" y="874" type="curve"/>
    </contour>
  </outline>
</glyph>
<glyph name="asterisk" format="1">
  <advance width="698"/>
  <unicode hex="002A"/>
  <outline>
    <contour>
      <point x="74" y="624" type="line"/>
      <point x="30" y="503" type="line"/>
      <point x="117" y="419" type="line"/>
      <point x="328" y="516" type="line"/>
      <point x="328" y="536" type="line"/>
      <point x="110" y="536" type="line"/>
      <point x="205" y="497" type="line"/>
      <point x="145" y="624" type="line"/>
    </contour>
    <contour>
      <point x="297" y="813" type="line"/>
      <point x="170" y="790" type="line"/>
      <point x="141" y="673" type="line"/>
      <point x="331" y="539" type="line"/>
      <point x="348" y="549" type="line"/>
      <point x="239" y="738" type="line"/>
      <point x="253" y="636" type="line"/>
      <point x="333" y="751" type="line"/>
    </contour>
    <contour>
      <point x="572" y="714" type="line"/>
      <point x="489" y="813" type="line"/>
      <point x="373" y="779" type="line"/>
      <point x="352" y="548" type="line"/>
      <point x="369" y="538" type="line"/>
      <point x="478" y="727" type="line"/>
      <point x="397" y="664" type="line"/>
      <point x="537" y="652" type="line"/>
    </contour>
    <contour>
      <point x="624" y="426" type="line"/>
      <point x="668" y="548" type="line"/>
      <point x="581" y="631" type="line"/>
      <point x="370" y="534" type="line"/>
      <point x="370" y="514" type="line"/>
      <point x="588" y="514" type="line"/>
      <point x="493" y="553" type="line"/>
      <point x="553" y="426" type="line"/>
    </contour>
    <contour>
      <point x="401" y="237" type="line"/>
      <point x="528" y="260" type="line"/>
      <point x="557" y="377" type="line"/>
      <point x="367" y="511" type="line"/>
      <point x="350" y="501" type="line"/>
      <point x="459" y="313" type="line"/>
      <point x="445" y="414" type="line"/>
      <point x="365" y="299" type="line"/>
    </contour>
    <contour>
      <point x="126" y="336" type="line"/>
      <point x="209" y="238" type="line"/>
      <point x="325" y="271" type="line"/>
      <point x="346" y="503" type="line"/>
      <point x="329" y="512" type="line"/>
      <point x="220" y="324" type="line"/>
      <point x="301" y="386" type="line"/>
      <point x="161" y="398" type="line"/>
    </contour>
  </outline>
</glyph>
<glyph name="comma" format="1">
  <advance width="370"/>
  <unicode hex="002C"/>
  <outline>
	<contour>
	  <point x="33" y="90" type="line"/>
	  <point x="33" y="19" type="line"/>
	  <point x="182" y="-78" type="line"/>
	  <point x="131" y="41" type="line"/>
	  <point x="131" y="-57"/>
	  <point x="110" y="-109"/>
	  <point x="30" y="-204" type="curve"/>
	  <point x="108" y="-264" type="line"/>
	  <point x="340" y="-20" type="line"/>
	  <point x="264" y="179" type="line"/>
	</contour>
  </outline>
</glyph>
<glyph name="hyphen" format="1">
  <advance width="513"/>
  <unicode hex="002D"/>
  <outline>
    <contour>
      <point x="463" y="305" type="line"/>
      <point x="463" y="375" type="line"/>
      <point x="90" y="375" type="line"/>
      <point x="50" y="324" type="line"/>
      <point x="50" y="254" type="line"/>
      <point x="423" y="254" type="line"/>
    </contour>
  </outline>
</glyph>
<glyph name="period" format="1">
  <advance width="325"/>
  <unicode hex="002E"/>
  <outline>
    <contour>
      <point x="115" y="220"/>
      <point x="30" y="165"/>
      <point x="30" y="97" type="curve" smooth="yes"/>
      <point x="30" y="37"/>
      <point x="79" y="-10"/>
      <point x="145" y="-10" type="curve" smooth="yes"/>
      <point x="210" y="-10"/>
      <point x="295" y="45"/>
      <point x="295" y="112" type="curve" smooth="yes"/>
      <point x="295" y="172"/>
      <point x="248" y="220"/>
      <point x="180" y="220" type="curve" smooth="yes"/>
    </contour>
  </outline>
</glyph>
<glyph name="slash" format="1">
  <advance width="355"/>
  <unicode hex="002F"/>
  <outline>
	<contour>
	  <point x="0" y="-125" type="line"/>
	  <point x="90" y="-145" type="line"/>
	  <point x="355" y="928" type="line"/>
	  <point x="264" y="947" type="line"/>
	</contour>
  </outline>
</glyph>
<glyph name="zero" format="1">
  <advance width="797"/>
  <unicode hex="0030"/>
  <outline>
    <contour>
      <point x="271" y="593"/>
      <point x="50" y="454"/>
      <point x="50" y="274" type="curve" smooth="yes"/>
      <point x="50" y="112"/>
      <point x="178" y="-10"/>
      <point x="363" y="-10" type="curve" smooth="yes"/>
      <point x="526" y="-10"/>
      <point x="747" y="129"/>
      <point x="747" y="309" type="curve" smooth="yes"/>
      <point x="747" y="470"/>
      <point x="620" y="593"/>
      <point x="434" y="593" type="curve" smooth="yes"/>
    </contour>
    <contour>
      <point x="480" y="469"/>
      <point x="531" y="376"/>
      <point x="531" y="262" type="curve" smooth="yes"/>
      <point x="531" y="164"/>
      <point x="494" y="114"/>
      <point x="421" y="114" type="curve" smooth="yes"/>
      <point x="317" y="114"/>
      <point x="266" y="208"/>
      <point x="266" y="322" type="curve" smooth="yes"/>
      <point x="266" y="419"/>
      <point x="303" y="469"/>
      <point x="376" y="469" type="curve" smooth="yes"/>
    </contour>
  </outline>
</glyph>
<glyph name="two" format="1">
  <advance width="690"/>
  <unicode hex="0032"/>
  <outline>
	<contour>
	  <point x="260" y="593"/>
	  <point x="217" y="591"/>
	  <point x="172" y="574" type="curve"/>
	  <point x="35" y="464" type="line"/>
	  <point x="65" y="396" type="line"/>
	  <point x="163" y="434"/>
	  <point x="226" y="448"/>
	  <point x="267" y="448" type="curve" smooth="yes"/>
	  <point x="315" y="448"/>
	  <point x="350" y="419"/>
	  <point x="350" y="377" type="curve" smooth="yes"/>
	  <point x="350" y="319"/>
	  <point x="289" y="256"/>
	  <point x="44" y="71" type="curve"/>
	  <point x="44" y="0" type="line"/>
	  <point x="553" y="0" type="line"/>
	  <point x="648" y="-18" type="line"/>
	  <point x="648" y="272" type="line"/>
	  <point x="578" y="292" type="line"/>
	  <point x="508" y="129" type="line"/>
	  <point x="596" y="201" type="line"/>
	  <point x="285" y="201" type="line"/>
	  <point x="305" y="161" type="line"/>
	  <point x="496" y="287"/>
	  <point x="576" y="382"/>
	  <point x="576" y="434" type="curve" smooth="yes"/>
	  <point x="576" y="530"/>
	  <point x="465" y="593"/>
	  <point x="295" y="593" type="curve" smooth="yes"/>
	</contour>
  </outline>
</glyph>
<glyph name="three" format="1">
  <advance width="560"/>
  <unicode hex="0033"/>
  <outline>
    <contour>
      <point x="383" y="-164"/>
      <point x="530" y="-59"/>
      <point x="530" y="84" type="curve" smooth="yes"/>
      <point x="530" y="171"/>
      <point x="442" y="222"/>
      <point x="264" y="267" type="curve"/>
      <point x="176" y="240" type="line"/>
      <point x="176" y="175" type="line"/>
      <point x="266" y="142"/>
      <point x="310" y="97"/>
      <point x="310" y="37" type="curve" smooth="yes"/>
      <point x="310" y="-52"/>
      <point x="250" y="-96"/>
      <point x="18" y="-176" type="curve"/>
      <point x="43" y="-264" type="line"/>
    </contour>
    <contour>
      <point x="239" y="459"/>
      <point x="268" y="425"/>
      <point x="268" y="376" type="curve" smooth="yes"/>
      <point x="268" y="320"/>
      <point x="241" y="280"/>
      <point x="176" y="240" type="curve"/>
      <point x="269" y="229" type="line"/>
      <point x="402" y="291"/>
      <point x="480" y="354"/>
      <point x="488" y="433" type="curve" smooth="yes"/>
      <point x="488" y="522"/>
      <point x="366" y="593"/>
      <point x="213" y="593" type="curve" smooth="yes"/>
      <point x="193" y="593"/>
      <point x="172" y="590"/>
      <point x="151" y="585" type="curve"/>
      <point x="14" y="475" type="line"/>
      <point x="44" y="407" type="line"/>
      <point x="117" y="441"/>
      <point x="169" y="459"/>
      <point x="196" y="459" type="curve" smooth="yes"/>
    </contour>
  </outline>
</glyph>
<glyph name="four" format="1">
  <advance width="738"/>
  <unicode hex="0034"/>
  <outline>
	<contour>
	  <point x="30" y="112" type="line"/>
	  <point x="30" y="41" type="line"/>
	  <point x="718" y="41" type="line"/>
	  <point x="753" y="152" type="line"/>
	  <point x="131" y="152" type="line"/>
	  <point x="125" y="69" type="line"/>
	  <point x="510" y="530" type="line"/>
	  <point x="400" y="553" type="line"/>
	</contour>
	<contour>
	  <point x="400" y="553" type="line"/>
	  <point x="400" y="-214" type="line"/>
	  <point x="600" y="-155" type="line"/>
	  <point x="600" y="612" type="line"/>
	</contour>
  </outline>
</glyph>
<glyph name="five" format="1">
  <advance width="626"/>
  <unicode hex="0035"/>
  <outline>
	<contour>
	  <point x="59" y="188" type="line"/>
	  <point x="305" y="119"/>
	  <point x="346" y="80"/>
	  <point x="346" y="17" type="curve" smooth="yes"/>
	  <point x="346" y="-58"/>
	  <point x="297" y="-99"/>
	  <point x="34" y="-176" type="curve"/>
	  <point x="59" y="-264" type="line"/>
	  <point x="294" y="-202"/>
	  <point x="566" y="-116"/>
	  <point x="566" y="64" type="curve" smooth="yes"/>
	  <point x="566" y="189"/>
	  <point x="481" y="266"/>
	  <point x="126" y="364" type="curve"/>
	</contour>
	<contour>
	  <point x="400" y="511" type="line"/>
	  <point x="488" y="583" type="line"/>
	  <point x="137" y="583" type="line"/>
	  <point x="59" y="188" type="line"/>
	  <point x="147" y="196" type="line"/>
	  <point x="209" y="543" type="line"/>
	  <point x="127" y="382" type="line"/>
	  <point x="445" y="382" type="line"/>
	  <point x="540" y="364" type="line"/>
	  <point x="540" y="654" type="line"/>
	  <point x="470" y="674" type="line"/>
	</contour>
  </outline>
</glyph>
<glyph name="six" format="1">
  <advance width="731"/>
  <unicode hex="0036"/>
  <outline>
    <contour>
      <point x="139" y="680"/>
      <point x="44" y="511"/>
      <point x="44" y="304" type="curve" smooth="yes"/>
      <point x="44" y="125"/>
      <point x="167" y="-10"/>
      <point x="350" y="-10" type="curve" smooth="yes"/>
      <point x="523" y="-10"/>
      <point x="707" y="145"/>
      <point x="707" y="289" type="curve" smooth="yes"/>
      <point x="707" y="447"/>
      <point x="559" y="561"/>
      <point x="393" y="561" type="curve"/>
      <point x="342" y="476" type="line"/>
      <point x="415" y="442"/>
      <point x="491" y="366"/>
      <point x="491" y="242" type="curve" smooth="yes"/>
      <point x="491" y="156"/>
      <point x="462" y="114"/>
      <point x="408" y="114" type="curve" smooth="yes"/>
      <point x="308" y="114"/>
      <point x="260" y="222"/>
      <point x="260" y="351" type="curve" smooth="yes"/>
      <point x="260" y="501"/>
      <point x="353" y="641"/>
      <point x="615" y="802" type="curve"/>
      <point x="571" y="883" type="line"/>
    </contour>
  </outline>
</glyph>
<glyph name="eight" format="1">
  <advance width="786"/>
  <unicode hex="0038"/>
  <outline>
	<contour>
	  <point x="284" y="883"/>
	  <point x="102" y="748"/>
	  <point x="102" y="649" type="curve" smooth="yes"/>
	  <point x="102" y="434"/>
	  <point x="520" y="381"/>
	  <point x="520" y="208" type="curve" smooth="yes"/>
	  <point x="520" y="152"/>
	  <point x="483" y="100"/>
	  <point x="421" y="100" type="curve" smooth="yes"/>
	  <point x="338" y="100"/>
	  <point x="266" y="181"/>
	  <point x="266" y="276" type="curve" smooth="yes"/>
	  <point x="266" y="323"/>
	  <point x="277" y="358"/>
	  <point x="345" y="435" type="curve"/>
	  <point x="297" y="475" type="line"/>
	  <point x="126" y="369"/>
	  <point x="50" y="303"/>
	  <point x="50" y="228" type="curve" smooth="yes"/>
	  <point x="50" y="96"/>
	  <point x="198" y="-10"/>
	  <point x="416" y="-10" type="curve" smooth="yes"/>
	  <point x="541" y="-10"/>
	  <point x="736" y="142"/>
	  <point x="736" y="254" type="curve" smooth="yes"/>
	  <point x="736" y="468"/>
	  <point x="317" y="515"/>
	  <point x="317" y="695" type="curve" smooth="yes"/>
	  <point x="317" y="739"/>
	  <point x="347" y="773"/>
	  <point x="401" y="773" type="curve" smooth="yes"/>
	  <point x="448" y="773"/>
	  <point x="480" y="721"/>
	  <point x="480" y="655" type="curve" smooth="yes"/>
	  <point x="480" y="609"/>
	  <point x="475" y="583"/>
	  <point x="408" y="482" type="curve"/>
	  <point x="461" y="451" type="line"/>
	  <point x="634" y="583"/>
	  <point x="671" y="642"/>
	  <point x="676" y="702" type="curve" smooth="yes"/>
	  <point x="676" y="799"/>
	  <point x="569" y="883"/>
	  <point x="405" y="883" type="curve" smooth="yes"/>
	</contour>
  </outline>
</glyph>
<glyph name="nine" format="1">
  <advance width="721"/>
  <unicode hex="0039"/>
  <outline>
    <contour>
      <point x="228" y="593"/>
      <point x="44" y="438"/>
      <point x="44" y="294" type="curve" smooth="yes"/>
      <point x="44" y="136"/>
      <point x="192" y="22"/>
      <point x="358" y="22" type="curve"/>
      <point x="409" y="107" type="line"/>
      <point x="336" y="141"/>
      <point x="260" y="217"/>
      <point x="260" y="341" type="curve" smooth="yes"/>
      <point x="260" y="427"/>
      <point x="289" y="469"/>
      <point x="343" y="469" type="curve" smooth="yes"/>
      <point x="443" y="469"/>
      <point x="491" y="361"/>
      <point x="491" y="232" type="curve" smooth="yes"/>
      <point x="491" y="91"/>
      <point x="401" y="-34"/>
      <point x="146" y="-183" type="curve"/>
      <point x="190" y="-264" type="line"/>
      <point x="614" y="-72"/>
      <point x="707" y="84"/>
      <point x="707" y="279" type="curve" smooth="yes"/>
      <point x="707" y="458"/>
      <point x="584" y="593"/>
      <point x="401" y="593" type="curve" smooth="yes"/>
    </contour>
  </outline>
</glyph>
<glyph name="question" format="1">
  <advance width="542"/>
  <unicode hex="003F"/>
  <outline>
	<contour>
	  <point x="213" y="806"/>
	  <point x="176" y="805"/>
	  <point x="137" y="798" type="curve"/>
	  <point x="0" y="688" type="line"/>
	  <point x="30" y="620" type="line"/>
	  <point x="93" y="643"/>
	  <point x="138" y="651"/>
	  <point x="165" y="651" type="curve" smooth="yes"/>
	  <point x="211" y="651"/>
	  <point x="266" y="611"/>
	  <point x="266" y="584" type="curve" smooth="yes"/>
	  <point x="266" y="531"/>
	  <point x="109" y="475"/>
	  <point x="109" y="390" type="curve" smooth="yes"/>
	  <point x="109" y="337"/>
	  <point x="175" y="299"/>
	  <point x="246" y="267" type="curve"/>
	  <point x="387" y="360" type="line"/>
	  <point x="387" y="431" type="line"/>
	  <point x="351" y="441"/>
	  <point x="325" y="454"/>
	  <point x="325" y="468" type="curve" smooth="yes"/>
	  <point x="325" y="514"/>
	  <point x="492" y="568"/>
	  <point x="492" y="648" type="curve" smooth="yes"/>
	  <point x="492" y="715"/>
	  <point x="358" y="806"/>
	  <point x="243" y="806" type="curve" smooth="yes"/>
	</contour>
	<component base="period" xOffset="84"/>
  </outline>
</glyph>
<glyph name="A" format="1">
  <advance width="943"/>
  <unicode hex="0041"/>
  <outline>
    <contour>
      <point x="636" y="354" type="line"/>
      <point x="228" y="354" type="line"/>
      <point x="208" y="259" type="line"/>
      <point x="636" y="259" type="line"/>
    </contour>
    <component base="V" xOffset="943" yOffset="786" xScale="-1" yScale="-1"/>
    <contour>
      <point x="913" y="0" type="move" name="ogonek"/>
    </contour>
    <contour>
      <point x="465" y="786" type="move" name="top"/>
    </contour>
  </outline>
</glyph>
<glyph name="B" format="1">
  <advance width="829"/>
  <unicode hex="0042"/>
  <outline>
    <contour>
      <point x="134" y="786" type="line"/>
      <point x="134" y="0" type="line"/>
      <point x="349" y="0" type="line"/>
      <point x="349" y="786" type="line"/>
    </contour>
    <contour>
      <point x="250" y="715" type="line"/>
      <point x="250" y="786" type="line"/>
      <point x="60" y="786" type="line"/>
      <point x="20" y="706" type="line"/>
      <point x="206" y="662" type="line"/>
    </contour>
    <contour>
      <point x="40" y="71" type="line"/>
      <point x="40" y="0" type="line"/>
      <point x="247" y="0" type="line"/>
      <point x="267" y="80" type="line"/>
      <point x="146" y="154" type="line"/>
    </contour>
    <contour>
      <point x="223" y="565" type="line"/>
      <point x="263" y="643"/>
      <point x="326" y="692"/>
      <point x="407" y="692" type="curve" smooth="yes"/>
      <point x="488" y="692"/>
      <point x="524" y="629"/>
      <point x="524" y="543" type="curve" smooth="yes"/>
      <point x="524" y="468"/>
      <point x="496" y="434"/>
      <point x="442" y="434" type="curve" smooth="yes"/>
      <point x="225" y="434" type="line"/>
      <point x="225" y="350" type="line"/>
      <point x="414" y="350" type="line" smooth="yes"/>
      <point x="553" y="350"/>
      <point x="749" y="461"/>
      <point x="749" y="600" type="curve" smooth="yes"/>
      <point x="749" y="709"/>
      <point x="646" y="796"/>
      <point x="485" y="796" type="curve" smooth="yes"/>
      <point x="401" y="796"/>
      <point x="352" y="786"/>
      <point x="206" y="786" type="curve"/>
    </contour>
    <contour>
      <point x="422" y="351" type="line"/>
      <point x="519" y="351"/>
      <point x="564" y="285"/>
      <point x="564" y="203" type="curve" smooth="yes"/>
      <point x="564" y="140"/>
      <point x="523" y="104"/>
      <point x="457" y="104" type="curve" smooth="yes"/>
      <point x="346" y="104"/>
      <point x="270" y="149"/>
      <point x="225" y="217" type="curve"/>
      <point x="207" y="0" type="line"/>
      <point x="316" y="0"/>
      <point x="342" y="-10"/>
      <point x="429" y="-10" type="curve" smooth="yes"/>
      <point x="580" y="-10"/>
      <point x="789" y="97"/>
      <point x="789" y="230" type="curve" smooth="yes"/>
      <point x="789" y="334"/>
      <point x="706" y="419"/>
      <point x="574" y="447" type="curve"/>
    </contour>
  </outline>
</glyph>
<glyph name="F" format="1">
  <advance width="784"/>
  <unicode hex="0046"/>
  <outline>
    <contour>
      <point x="134" y="786" type="line"/>
      <point x="134" y="0" type="line"/>
      <point x="349" y="0" type="line"/>
      <point x="349" y="786" type="line"/>
    </contour>
    <contour>
      <point x="40" y="71" type="line"/>
      <point x="40" y="0" type="line"/>
      <point x="494" y="0" type="line"/>
      <point x="534" y="80" type="line"/>
      <point x="146" y="154" type="line"/>
    </contour>
    <contour>
      <point x="238" y="449" type="line"/>
      <point x="238" y="354" type="line"/>
      <point x="476" y="354" type="line"/>
      <point x="476" y="449" type="line"/>
    </contour>
    <contour>
      <point x="60" y="786" type="line"/>
      <point x="20" y="706" type="line"/>
      <point x="288" y="632" type="line"/>
      <point x="279" y="715" type="line"/>
      <point x="279" y="786" type="line"/>
    </contour>
    <contour>
      <point x="519" y="552" type="line"/>
      <point x="416" y="406" type="line"/>
      <point x="510" y="208" type="line"/>
      <point x="590" y="248" type="line"/>
      <point x="590" y="552" type="line"/>
    </contour>
    <contour>
      <point x="238" y="786" type="line"/>
      <point x="238" y="691" type="line"/>
      <point x="756" y="691" type="line"/>
      <point x="756" y="786" type="line"/>
    </contour>
    <contour>
      <point x="649" y="779" type="line"/>
      <point x="531" y="736" type="line"/>
      <point x="694" y="504" type="line"/>
      <point x="764" y="534" type="line"/>
      <point x="764" y="804" type="line"/>
    </contour>
    <contour>
      <point x="427" y="786" type="move" name="top"/>
    </contour>
  </outline>
</glyph>
<glyph name="G" format="1">
  <advance width="960"/>
  <unicode hex="0047"/>
  <outline>
	<contour>
	  <point x="343" y="806"/>
	  <point x="50" y="623"/>
	  <point x="50" y="375" type="curve" smooth="yes"/>
	  <point x="50" y="146"/>
	  <point x="222" y="-20"/>
	  <point x="477" y="-20" type="curve" smooth="yes"/>
	  <point x="537" y="-20"/>
	  <point x="604" y="-18"/>
	  <point x="683" y="2" type="curve"/>
	  <point x="867" y="115" type="line"/>
	  <point x="837" y="193" type="line"/>
	  <point x="731" y="110"/>
	  <point x="596" y="115"/>
	  <point x="535" y="115" type="curve" smooth="yes"/>
	  <point x="363" y="114"/>
	  <point x="285" y="259"/>
	  <point x="285" y="423" type="curve" smooth="yes"/>
	  <point x="285" y="566"/>
	  <point x="376" y="672"/>
	  <point x="492" y="672" type="curve" smooth="yes"/>
	  <point x="573" y="672"/>
	  <point x="649" y="622"/>
	  <point x="706" y="495" type="curve"/>
	  <point x="834" y="495" type="line"/>
	  <point x="834" y="759" type="line"/>
	  <point x="780" y="782"/>
	  <point x="639" y="806"/>
	  <point x="550" y="806" type="curve" smooth="yes"/>
	</contour>
	<contour>
	  <point x="625" y="46" type="line"/>
	  <point x="840" y="126" type="line"/>
	  <point x="840" y="378" type="line"/>
	  <point x="625" y="378" type="line"/>
	</contour>
	<contour>
	  <point x="501" y="406" type="line"/>
	  <point x="461" y="326" type="line"/>
	  <point x="829" y="242" type="line"/>
	  <point x="935" y="335" type="line"/>
	  <point x="935" y="406" type="line"/>
	</contour>
	<contour>
	  <point x="500" y="786" type="move" name="top"/>
	</contour>
	<contour>
	  <point x="510" y="0" type="move" name="bottom"/>
	</contour>
  </outline>
</glyph>
<glyph name="H" format="1">
  <advance width="1004"/>
  <unicode hex="0048"/>
  <outline>
    <contour>
      <point x="40" y="71" type="line"/>
      <point x="40" y="0" type="line"/>
      <point x="424" y="0" type="line"/>
      <point x="464" y="80" type="line"/>
      <point x="146" y="164" type="line"/>
    </contour>
    <contour>
      <point x="134" y="786" type="line"/>
      <point x="134" y="0" type="line"/>
      <point x="349" y="0" type="line"/>
      <point x="349" y="786" type="line"/>
    </contour>
    <contour>
      <point x="444" y="715" type="line"/>
      <point x="444" y="786" type="line"/>
      <point x="60" y="786" type="line"/>
      <point x="20" y="706" type="line"/>
      <point x="338" y="622" type="line"/>
    </contour>
    <contour>
      <point x="560" y="71" type="line"/>
      <point x="560" y="0" type="line"/>
      <point x="944" y="0" type="line"/>
      <point x="984" y="80" type="line"/>
      <point x="666" y="164" type="line"/>
    </contour>
    <contour>
      <point x="654" y="786" type="line"/>
      <point x="654" y="0" type="line"/>
      <point x="869" y="0" type="line"/>
      <point x="869" y="786" type="line"/>
    </contour>
    <contour>
      <point x="964" y="715" type="line"/>
      <point x="964" y="786" type="line"/>
      <point x="580" y="786" type="line"/>
      <point x="540" y="706" type="line"/>
      <point x="858" y="622" type="line"/>
    </contour>
    <contour>
      <point x="721" y="439" type="line"/>
      <point x="243" y="439" type="line"/>
      <point x="243" y="344" type="line"/>
      <point x="721" y="344" type="line"/>
    </contour>
  </outline>
</glyph>
<glyph name="I" format="1">
  <advance width="484"/>
  <unicode hex="0049"/>
  <outline>
	<contour>
	  <point x="40" y="71" type="line"/>
	  <point x="40" y="0" type="line"/>
	  <point x="424" y="0" type="line"/>
	  <point x="464" y="80" type="line"/>
	  <point x="146" y="164" type="line"/>
	</contour>
	<contour>
	  <point x="134" y="786" type="line"/>
	  <point x="134" y="0" type="line"/>
	  <point x="349" y="0" type="line"/>
	  <point x="349" y="786" type="line"/>
	</contour>
	<contour>
	  <point x="444" y="715" type="line"/>
	  <point x="444" y="786" type="line"/>
	  <point x="60" y="786" type="line"/>
	  <point x="20" y="706" type="line"/>
	  <point x="338" y="622" type="line"/>
	</contour>
	<contour>
	  <point x="424" y="0" type="move" name="ogonek"/>
	</contour>
	<contour>
	  <point x="242" y="786" type="move" name="top"/>
	</contour>
  </outline>
</glyph>
<glyph name="K" format="1">
  <advance width="930"/>
  <unicode hex="004B"/>
  <outline>
	<contour>
	  <point x="578" y="786" type="line"/>
	  <point x="538" y="706" type="line"/>
	  <point x="712" y="607" type="line"/>
	  <point x="704" y="683" type="line"/>
	  <point x="377" y="394" type="line"/>
	  <point x="647" y="0" type="line"/>
	  <point x="878" y="0" type="line"/>
	  <point x="918" y="80" type="line"/>
	  <point x="755" y="154" type="line"/>
	  <point x="844" y="83" type="line"/>
	  <point x="548" y="504" type="line"/>
	  <point x="570" y="426" type="line"/>
	  <point x="897" y="715" type="line"/>
	  <point x="897" y="786" type="line"/>
	</contour>
	<contour>
	  <point x="40" y="71" type="line"/>
	  <point x="40" y="0" type="line"/>
	  <point x="424" y="0" type="line"/>
	  <point x="464" y="80" type="line"/>
	  <point x="146" y="164" type="line"/>
	</contour>
	<contour>
	  <point x="134" y="786" type="line"/>
	  <point x="134" y="0" type="line"/>
	  <point x="349" y="0" type="line"/>
	  <point x="349" y="786" type="line"/>
	</contour>
	<contour>
	  <point x="60" y="786" type="line"/>
	  <point x="20" y="706" type="line"/>
	  <point x="338" y="622" type="line"/>
	  <point x="444" y="715" type="line"/>
	  <point x="444" y="786" type="line"/>
	</contour>
	<contour>
	  <point x="485" y="786" type="move" name="top"/>
	</contour>
	<contour>
	  <point x="495" y="0" type="move" name="bottom"/>
	</contour>
  </outline>
</glyph>
<glyph name="M" format="1">
  <advance width="1176"/>
  <unicode hex="004D"/>
  <outline>
    <contour>
      <point x="40" y="71" type="line"/>
      <point x="40" y="0" type="line"/>
      <point x="314" y="0" type="line"/>
      <point x="354" y="80" type="line"/>
      <point x="146" y="154" type="line"/>
    </contour>
    <contour>
      <point x="134" y="786" type="line"/>
      <point x="134" y="0" type="line"/>
      <point x="239" y="0" type="line"/>
      <point x="239" y="786" type="line"/>
    </contour>
    <contour>
      <point x="206" y="786" type="line"/>
      <point x="60" y="786" type="line"/>
      <point x="20" y="706" type="line"/>
      <point x="218" y="632" type="line"/>
    </contour>
    <contour>
      <point x="806" y="786" type="line"/>
      <point x="484" y="0" type="line"/>
      <point x="589" y="0" type="line"/>
      <point x="911" y="786" type="line"/>
    </contour>
    <contour>
      <point x="216" y="640" type="line"/>
      <point x="484" y="0" type="line"/>
      <point x="625" y="201" type="line"/>
      <point x="380" y="786" type="line"/>
      <point x="208" y="786" type="line"/>
    </contour>
    <contour>
      <point x="732" y="71" type="line"/>
      <point x="732" y="0" type="line"/>
      <point x="1116" y="0" type="line"/>
      <point x="1156" y="80" type="line"/>
      <point x="838" y="154" type="line"/>
    </contour>
    <contour>
      <point x="826" y="786" type="line"/>
      <point x="826" y="0" type="line"/>
      <point x="1041" y="0" type="line"/>
      <point x="1041" y="786" type="line"/>
    </contour>
    <contour>
      <point x="1136" y="715" type="line"/>
      <point x="1136" y="786" type="line"/>
      <point x="943" y="786" type="line"/>
      <point x="923" y="706" type="line"/>
      <point x="1030" y="632" type="line"/>
    </contour>
  </outline>
</glyph>
<glyph name="O" format="1">
  <advance width="979"/>
  <unicode hex="004F"/>
  <outline>
	<contour>
	  <point x="330" y="806"/>
	  <point x="50" y="623"/>
	  <point x="50" y="375" type="curve" smooth="yes"/>
	  <point x="50" y="146"/>
	  <point x="210" y="-20"/>
	  <point x="454" y="-20" type="curve" smooth="yes"/>
	  <point x="649" y="-20"/>
	  <point x="929" y="163"/>
	  <point x="929" y="410" type="curve" smooth="yes"/>
	  <point x="929" y="639"/>
	  <point x="770" y="806"/>
	  <point x="525" y="806" type="curve" smooth="yes"/>
	</contour>
	<contour>
	  <point x="622" y="672"/>
	  <point x="694" y="529"/>
	  <point x="694" y="363" type="curve" smooth="yes"/>
	  <point x="694" y="220"/>
	  <point x="612" y="114"/>
	  <point x="512" y="114" type="curve" smooth="yes"/>
	  <point x="357" y="114"/>
	  <point x="285" y="259"/>
	  <point x="285" y="423" type="curve" smooth="yes"/>
	  <point x="285" y="566"/>
	  <point x="367" y="672"/>
	  <point x="467" y="672" type="curve" smooth="yes"/>
	</contour>
	<contour>
	  <point x="490" y="786" type="move" name="top"/>
	</contour>
  </outline>
</glyph>
<glyph name="P" format="1">
  <advance width="799"/>
  <unicode hex="0050"/>
  <outline>
    <contour>
      <point x="134" y="786" type="line"/>
      <point x="134" y="0" type="line"/>
      <point x="349" y="0" type="line"/>
      <point x="349" y="786" type="line"/>
    </contour>
    <contour>
      <point x="581" y="281"/>
      <point x="789" y="409"/>
      <point x="789" y="560" type="curve" smooth="yes"/>
      <point x="789" y="693"/>
      <point x="678" y="796"/>
      <point x="510" y="796" type="curve" smooth="yes"/>
      <point x="435" y="796"/>
      <point x="392" y="786"/>
      <point x="256" y="786" type="curve"/>
      <point x="273" y="565" type="line"/>
      <point x="305" y="643"/>
      <point x="357" y="692"/>
      <point x="422" y="692" type="curve" smooth="yes"/>
      <point x="512" y="692"/>
      <point x="554" y="622"/>
      <point x="554" y="533" type="curve" smooth="yes"/>
      <point x="554" y="446"/>
      <point x="517" y="394"/>
      <point x="457" y="394" type="curve" smooth="yes"/>
      <point x="416" y="394" type="line"/>
      <point x="376" y="314" type="line"/>
      <point x="418" y="290" type="line"/>
    </contour>
    <contour>
      <point x="250" y="715" type="line"/>
      <point x="250" y="786" type="line"/>
      <point x="60" y="786" type="line"/>
      <point x="20" y="706" type="line"/>
      <point x="166" y="662" type="line"/>
    </contour>
    <contour>
      <point x="40" y="71" type="line"/>
      <point x="40" y="0" type="line"/>
      <point x="494" y="0" type="line"/>
      <point x="534" y="80" type="line"/>
      <point x="146" y="154" type="line"/>
    </contour>
  </outline>
</glyph>
<glyph name="Q" format="1">
  <advance width="979"/>
  <unicode hex="0051"/>
  <outline>
	<contour>
	  <point x="560" y="-46"/>
	  <point x="733" y="-264"/>
	  <point x="793" y="-264" type="curve" smooth="yes"/>
	  <point x="844" y="-264"/>
	  <point x="940" y="-239"/>
	  <point x="1078" y="-190" type="curve"/>
	  <point x="1038" y="-105" type="line"/>
	  <point x="903" y="-105" type="line" smooth="yes"/>
	  <point x="876" y="-105"/>
	  <point x="692" y="21"/>
	  <point x="617" y="77" type="curve"/>
	  <point x="491" y="35" type="line"/>
	</contour>
	<component base="O"/>
  </outline>
</glyph>
<glyph name="S" format="1">
  <advance width="700"/>
  <unicode hex="0053"/>
  <outline>
	<contour>
	  <point x="442" y="121"/>
	  <point x="413" y="89"/>
	  <point x="363" y="89" type="curve" smooth="yes"/>
	  <point x="291" y="89"/>
	  <point x="216" y="152"/>
	  <point x="163" y="260" type="curve"/>
	  <point x="35" y="260" type="line"/>
	  <point x="35" y="26" type="line"/>
	  <point x="95" y="3"/>
	  <point x="259" y="-21"/>
	  <point x="358" y="-21" type="curve" smooth="yes"/>
	  <point x="483" y="-21"/>
	  <point x="670" y="119"/>
	  <point x="670" y="223" type="curve" smooth="yes"/>
	  <point x="670" y="422"/>
	  <point x="268" y="480"/>
	  <point x="268" y="628" type="curve" smooth="yes"/>
	  <point x="268" y="666"/>
	  <point x="291" y="696"/>
	  <point x="332" y="696" type="curve" smooth="yes"/>
	  <point x="400" y="696"/>
	  <point x="464" y="630"/>
	  <point x="512" y="525" type="curve"/>
	  <point x="640" y="525" type="line"/>
	  <point x="640" y="759" type="line"/>
	  <point x="582" y="782"/>
	  <point x="431" y="806"/>
	  <point x="336" y="806" type="curve" smooth="yes"/>
	  <point x="215" y="806"/>
	  <point x="40" y="665"/>
	  <point x="40" y="562" type="curve" smooth="yes"/>
	  <point x="40" y="362"/>
	  <point x="442" y="296"/>
	  <point x="442" y="157" type="curve" smooth="yes"/>
	</contour>
	<contour>
	  <point x="340" y="786" type="move" name="top"/>
	</contour>
	<contour>
	  <point x="355" y="0" type="move" name="bottom"/>
	</contour>
  </outline>
</glyph>
<glyph name="U" format="1">
  <advance width="898"/>
  <unicode hex="0055"/>
  <outline>
    <contour>
      <point x="688" y="303" type="line" smooth="yes"/>
      <point x="688" y="180"/>
      <point x="595" y="114"/>
      <point x="521" y="114" type="curve" smooth="yes"/>
      <point x="382" y="114"/>
      <point x="319" y="191"/>
      <point x="319" y="313" type="curve" smooth="yes"/>
      <point x="319" y="786" type="line"/>
      <point x="104" y="786" type="line"/>
      <point x="104" y="285" type="line" smooth="yes"/>
      <point x="104" y="110"/>
      <point x="248" y="-20"/>
      <point x="453" y="-20" type="curve" smooth="yes"/>
      <point x="592" y="-20"/>
      <point x="793" y="85"/>
      <point x="793" y="310" type="curve" smooth="yes"/>
      <point x="793" y="786" type="line"/>
      <point x="688" y="786" type="line"/>
    </contour>
    <contour>
      <point x="30" y="786" type="line"/>
      <point x="-10" y="706" type="line"/>
      <point x="308" y="632" type="line"/>
      <point x="414" y="715" type="line"/>
      <point x="414" y="786" type="line"/>
    </contour>
    <contour>
      <point x="604" y="786" type="line"/>
      <point x="564" y="706" type="line"/>
      <point x="782" y="632" type="line"/>
      <point x="888" y="715" type="line"/>
      <point x="888" y="786" type="line"/>
    </contour>
    <contour>
      <point x="540" y="0" type="move" name="ogonek"/>
    </contour>
    <contour>
      <point x="462" y="786" type="move" name="top"/>
    </contour>
  </outline>
</glyph>
<glyph name="V" format="1">
  <advance width="943"/>
  <unicode hex="0056"/>
  <outline>
	<contour>
	  <point x="372" y="-19" type="line"/>
	  <point x="586" y="32" type="line"/>
	  <point x="861" y="715" type="line"/>
	  <point x="730" y="681" type="line"/>
	  <point x="469" y="27" type="line"/>
	  <point x="570" y="49" type="line"/>
	  <point x="314" y="681" type="line"/>
	  <point x="66" y="728" type="line"/>
	</contour>
	<contour>
	  <point x="30" y="786" type="line"/>
	  <point x="-10" y="706" type="line"/>
	  <point x="225" y="600" type="line"/>
	  <point x="444" y="715" type="line"/>
	  <point x="444" y="786" type="line"/>
	</contour>
	<contour>
	  <point x="609" y="786" type="line"/>
	  <point x="569" y="706" type="line"/>
	  <point x="777" y="592" type="line"/>
	  <point x="943" y="715" type="line"/>
	  <point x="943" y="786" type="line"/>
	</contour>
  </outline>
</glyph>
<glyph name="W" format="1">
  <advance width="1333"/>
  <unicode hex="0057"/>
  <outline>
	<contour>
	  <point x="797" y="-19" type="line"/>
	  <point x="1011" y="32" type="line"/>
	  <point x="1251" y="715" type="line"/>
	  <point x="1125" y="681" type="line"/>
	  <point x="899" y="27" type="line"/>
	  <point x="990" y="49" type="line"/>
	  <point x="769" y="681" type="line"/>
	  <point x="526" y="728" type="line"/>
	</contour>
	<contour>
	  <point x="362" y="-19" type="line"/>
	  <point x="576" y="32" type="line"/>
	  <point x="683" y="399" type="line"/>
	  <point x="615" y="532" type="line"/>
	  <point x="464" y="27" type="line"/>
	  <point x="555" y="49" type="line"/>
	  <point x="309" y="681" type="line"/>
	  <point x="66" y="728" type="line"/>
	</contour>
	<contour>
	  <point x="30" y="786" type="line"/>
	  <point x="-10" y="706" type="line"/>
	  <point x="225" y="600" type="line"/>
	  <point x="384" y="715" type="line"/>
	  <point x="384" y="786" type="line"/>
	</contour>
	<contour>
	  <point x="500" y="786" type="line"/>
	  <point x="460" y="706" type="line"/>
	  <point x="675" y="600" type="line"/>
	  <point x="884" y="715" type="line"/>
	  <point x="884" y="786" type="line"/>
	</contour>
	<contour>
	  <point x="999" y="786" type="line"/>
	  <point x="959" y="706" type="line"/>
	  <point x="1167" y="592" type="line"/>
	  <point x="1333" y="715" type="line"/>
	  <point x="1333" y="786" type="line"/>
	</contour>
	<contour>
	  <point x="695" y="786" type="move" name="top"/>
	</contour>
  </outline>
</glyph>
<glyph name="Z" format="1">
  <advance width="790"/>
  <unicode hex="005A"/>
  <outline>
	<contour>
	  <point x="60" y="524" type="line"/>
	  <point x="130" y="494" type="line"/>
	  <point x="273" y="726" type="line"/>
	  <point x="175" y="779" type="line"/>
	  <point x="60" y="804" type="line"/>
	</contour>
	<contour>
	  <point x="68" y="786" type="line"/>
	  <point x="68" y="691" type="line"/>
	  <point x="756" y="691" type="line"/>
	  <point x="756" y="786" type="line"/>
	</contour>
	<contour>
	  <point x="746" y="282" type="line"/>
	  <point x="676" y="312" type="line"/>
	  <point x="533" y="80" type="line"/>
	  <point x="631" y="7" type="line"/>
	  <point x="746" y="-18" type="line"/>
	</contour>
	<contour>
	  <point x="738" y="0" type="line"/>
	  <point x="738" y="95" type="line"/>
	  <point x="29" y="95" type="line"/>
	  <point x="29" y="0" type="line"/>
	</contour>
	<contour>
	  <point x="229" y="25" type="line"/>
	  <point x="756" y="691" type="line"/>
	  <point x="560" y="766" type="line"/>
	  <point x="29" y="95" type="line"/>
	</contour>
	<contour>
	  <point x="395" y="786" type="move" name="top"/>
	</contour>
  </outline>
</glyph>
<glyph name="bracketleft" format="1">
  <advance width="435"/>
  <unicode hex="005B"/>
  <outline>
    <contour>
      <point x="80" y="954" type="line"/>
      <point x="80" y="-210" type="line"/>
      <point x="280" y="-210" type="line"/>
      <point x="280" y="954" type="line"/>
    </contour>
    <contour>
      <point x="191" y="-125" type="line"/>
      <point x="191" y="-210" type="line"/>
      <point x="425" y="-210" type="line"/>
      <point x="425" y="-125" type="line"/>
    </contour>
    <contour>
      <point x="191" y="954" type="line"/>
      <point x="191" y="869" type="line"/>
      <point x="425" y="869" type="line"/>
      <point x="425" y="954" type="line"/>
    </contour>
  </outline>
</glyph>
<glyph name="asciicircum" format="1">
  <advance width="669"/>
  <unicode hex="005E"/>
  <outline>
	<contour>
	  <point x="215" y="686" type="line"/>
	  <point x="40" y="373" type="line"/>
	  <point x="40" y="295" type="line"/>
	  <point x="120" y="295" type="line"/>
	  <point x="339" y="691" type="line"/>
	  <point x="221" y="669" type="line"/>
	  <point x="433" y="295" type="line"/>
	  <point x="629" y="295" type="line"/>
	  <point x="629" y="373" type="line"/>
	  <point x="429" y="737" type="line"/>
	</contour>
  </outline>
</glyph>
<glyph name="underscore" format="1">
  <advance width="538"/>
  <unicode hex="005F"/>
  <outline>
	<contour>
	  <point x="498" y="-73" type="line"/>
	  <point x="40" y="-73" type="line"/>
	  <point x="40" y="-154" type="line"/>
	  <point x="498" y="-154" type="line"/>
	</contour>
  </outline>
</glyph>
<glyph name="grave" format="1">
  <advance width="380"/>
  <unicode hex="0060"/>
  <outline>
	<contour>
	  <point x="39" y="873" type="line"/>
	  <point x="10" y="809" type="line"/>
	  <point x="292" y="665" type="line"/>
	  <point x="360" y="696" type="line"/>
	  <point x="253" y="892" type="line"/>
	</contour>
	<contour>
	  <point x="259" y="543" type="move" name="_top"/>
	</contour>
  </outline>
</glyph>
<glyph name="a" format="1">
  <advance width="691"/>
  <unicode hex="0061"/>
  <outline>
    <contour>
      <point x="296" y="553"/>
      <point x="251" y="551"/>
      <point x="202" y="534" type="curve"/>
      <point x="65" y="424" type="line"/>
      <point x="95" y="356" type="line"/>
      <point x="193" y="387"/>
      <point x="256" y="398"/>
      <point x="297" y="398" type="curve" smooth="yes"/>
      <point x="352" y="398"/>
      <point x="396" y="367"/>
      <point x="396" y="299" type="curve" smooth="yes"/>
      <point x="396" y="0" type="line"/>
      <point x="596" y="0" type="line"/>
      <point x="596" y="339" type="line" smooth="yes"/>
      <point x="596" y="481"/>
      <point x="497" y="553"/>
      <point x="334" y="553" type="curve" smooth="yes"/>
    </contour>
    <contour>
      <point x="130" y="309" type="line"/>
      <point x="72" y="265"/>
      <point x="40" y="212"/>
      <point x="40" y="159" type="curve" smooth="yes"/>
      <point x="40" y="80"/>
      <point x="84" y="-10"/>
      <point x="233" y="-10" type="curve" smooth="yes"/>
      <point x="247" y="-10"/>
      <point x="268" y="-8"/>
      <point x="283" y="-2" type="curve"/>
      <point x="460" y="138" type="line"/>
      <point x="430" y="211" type="line"/>
      <point x="366" y="165"/>
      <point x="323" y="155"/>
      <point x="295" y="155" type="curve" smooth="yes"/>
      <point x="257" y="155"/>
      <point x="235" y="170"/>
      <point x="235" y="196" type="curve" smooth="yes"/>
      <point x="235" y="210"/>
      <point x="238" y="217"/>
      <point x="244" y="228" type="curve"/>
      <point x="421" y="228" type="line"/>
      <point x="421" y="309" type="line"/>
    </contour>
    <contour>
      <point x="407" y="31" type="line"/>
      <point x="407" y="0" type="line"/>
      <point x="646" y="0" type="line"/>
      <point x="686" y="80" type="line"/>
      <point x="493" y="154" type="line"/>
    </contour>
    <contour>
      <point x="646" y="0" type="move" name="ogonek"/>
    </contour>
    <contour>
      <point x="325" y="543" type="move" name="top"/>
    </contour>
  </outline>
</glyph>
<glyph name="b" format="1">
  <advance width="745"/>
  <unicode hex="0062"/>
  <outline>
	<contour>
	  <point x="443" y="553"/>
	  <point x="420" y="552"/>
	  <point x="392" y="545" type="curve"/>
	  <point x="215" y="403" type="line"/>
	  <point x="245" y="347" type="line"/>
	  <point x="293" y="384"/>
	  <point x="344" y="399"/>
	  <point x="397" y="399" type="curve" smooth="yes"/>
	  <point x="458" y="399"/>
	  <point x="485" y="330"/>
	  <point x="485" y="242" type="curve" smooth="yes"/>
	  <point x="485" y="163"/>
	  <point x="460" y="124"/>
	  <point x="412" y="124" type="curve" smooth="yes"/>
	  <point x="333" y="124"/>
	  <point x="294" y="170"/>
	  <point x="294" y="222" type="curve"/>
	  <point x="154" y="214" type="line"/>
	  <point x="154" y="88"/>
	  <point x="238" y="-10"/>
	  <point x="354" y="-10" type="curve" smooth="yes"/>
	  <point x="501" y="-10"/>
	  <point x="695" y="121"/>
	  <point x="695" y="289" type="curve" smooth="yes"/>
	  <point x="695" y="438"/>
	  <point x="600" y="553"/>
	  <point x="465" y="553" type="curve" smooth="yes"/>
	</contour>
	<contour>
	  <point x="94" y="805" type="line"/>
	  <point x="94" y="0" type="line"/>
	  <point x="172" y="0" type="line"/>
	  <point x="294" y="114" type="line"/>
	  <point x="294" y="805" type="line"/>
	</contour>
	<contour>
	  <point x="216" y="873" type="line"/>
	  <point x="5" y="784" type="line"/>
	  <point x="5" y="713" type="line"/>
	  <point x="257" y="548" type="line"/>
	  <point x="294" y="654" type="line"/>
	  <point x="294" y="873" type="line"/>
	</contour>
  </outline>
</glyph>
<glyph name="c" format="1">
  <advance width="653"/>
  <unicode hex="0063"/>
  <outline>
	<contour>
	  <point x="232" y="553"/>
	  <point x="50" y="422"/>
	  <point x="50" y="254" type="curve" smooth="yes"/>
	  <point x="50" y="104"/>
	  <point x="162" y="-10"/>
	  <point x="320" y="-10" type="curve" smooth="yes"/>
	  <point x="364" y="-10"/>
	  <point x="416" y="-8"/>
	  <point x="473" y="9" type="curve"/>
	  <point x="610" y="119" type="line"/>
	  <point x="580" y="187" type="line"/>
	  <point x="482" y="149"/>
	  <point x="419" y="135"/>
	  <point x="378" y="135" type="curve" smooth="yes"/>
	  <point x="299" y="135"/>
	  <point x="260" y="211"/>
	  <point x="260" y="302" type="curve" smooth="yes"/>
	  <point x="260" y="377"/>
	  <point x="286" y="419"/>
	  <point x="326" y="419" type="curve" smooth="yes"/>
	  <point x="395" y="419"/>
	  <point x="459" y="378"/>
	  <point x="507" y="312" type="curve"/>
	  <point x="585" y="312" type="line"/>
	  <point x="585" y="516" type="line"/>
	  <point x="545" y="534"/>
	  <point x="439" y="553"/>
	  <point x="371" y="553" type="curve" smooth="yes"/>
	</contour>
	<contour>
	  <point x="337" y="543" type="move" name="top"/>
	</contour>
	<contour>
	  <point x="355" y="0" type="move" name="bottom"/>
	</contour>
  </outline>
</glyph>
<glyph name="e" format="1">
  <advance width="651"/>
  <unicode hex="0065"/>
  <outline>
    <contour>
      <point x="224" y="553"/>
      <point x="30" y="422"/>
      <point x="30" y="254" type="curve" smooth="yes"/>
      <point x="30" y="104"/>
      <point x="142" y="-10"/>
      <point x="300" y="-10" type="curve" smooth="yes"/>
      <point x="347" y="-10"/>
      <point x="402" y="-8"/>
      <point x="463" y="9" type="curve"/>
      <point x="600" y="119" type="line"/>
      <point x="570" y="187" type="line"/>
      <point x="467" y="149"/>
      <point x="401" y="135"/>
      <point x="358" y="135" type="curve" smooth="yes"/>
      <point x="279" y="135"/>
      <point x="240" y="207"/>
      <point x="240" y="302" type="curve" smooth="yes"/>
      <point x="240" y="381"/>
      <point x="264" y="419"/>
      <point x="317" y="419" type="curve" smooth="yes"/>
      <point x="379" y="419"/>
      <point x="402" y="379"/>
      <point x="407" y="299" type="curve"/>
      <point x="432" y="315" type="line"/>
      <point x="163" y="315" type="line"/>
      <point x="163" y="234" type="line"/>
      <point x="601" y="234" type="line"/>
      <point x="605" y="440"/>
      <point x="518" y="553"/>
      <point x="371" y="553" type="curve" smooth="yes"/>
    </contour>
    <contour>
      <point x="453" y="0" type="move" name="ogonek"/>
    </contour>
    <contour>
      <point x="322" y="0" type="move" name="bottom"/>
    </contour>
    <contour>
      <point x="322" y="543" type="move" name="top"/>
    </contour>
  </outline>
</glyph>
<glyph name="g" format="1">
  <advance width="640"/>
  <unicode hex="0067"/>
  <outline>
    <contour>
      <point x="182" y="553"/>
      <point x="25" y="446"/>
      <point x="25" y="327" type="curve" smooth="yes"/>
      <point x="25" y="234"/>
      <point x="129" y="150"/>
      <point x="262" y="150" type="curve" smooth="yes"/>
      <point x="410" y="150"/>
      <point x="566" y="262"/>
      <point x="566" y="376" type="curve" smooth="yes"/>
      <point x="566" y="474"/>
      <point x="463" y="553"/>
      <point x="330" y="553" type="curve" smooth="yes"/>
    </contour>
    <contour>
      <point x="331" y="419"/>
      <point x="371" y="385"/>
      <point x="371" y="329" type="curve" smooth="yes"/>
      <point x="371" y="300"/>
      <point x="353" y="284"/>
      <point x="319" y="284" type="curve" smooth="yes"/>
      <point x="260" y="284"/>
      <point x="220" y="323"/>
      <point x="220" y="376" type="curve" smooth="yes"/>
      <point x="220" y="406"/>
      <point x="238" y="419"/>
      <point x="271" y="419" type="curve" smooth="yes"/>
    </contour>
    <contour>
      <point x="361" y="513" type="line"/>
      <point x="361" y="432" type="line"/>
      <point x="650" y="432" type="line"/>
      <point x="650" y="513" type="line"/>
    </contour>
    <contour>
      <point x="586" y="27"/>
      <point x="363" y="68"/>
      <point x="363" y="115" type="curve" smooth="yes"/>
      <point x="363" y="130"/>
      <point x="369" y="154"/>
      <point x="395" y="183" type="curve"/>
      <point x="329" y="163" type="line"/>
      <point x="256" y="145"/>
      <point x="153" y="100"/>
      <point x="153" y="59" type="curve" smooth="yes"/>
      <point x="153" y="-23"/>
      <point x="365" y="-48"/>
      <point x="365" y="-114" type="curve" smooth="yes"/>
      <point x="365" y="-128"/>
      <point x="338" y="-144"/>
      <point x="298" y="-144" type="curve" smooth="yes"/>
      <point x="215" y="-144"/>
      <point x="157" y="-92"/>
      <point x="103" y="-13" type="curve"/>
      <point x="25" y="-13" type="line"/>
      <point x="25" y="-207" type="line"/>
      <point x="83" y="-226"/>
      <point x="228" y="-264"/>
      <point x="325" y="-264" type="curve" smooth="yes"/>
      <point x="448" y="-264"/>
      <point x="586" y="-127"/>
      <point x="586" y="-64" type="curve" smooth="yes"/>
    </contour>
    <contour>
      <point x="305" y="621" type="move" name="g"/>
    </contour>
    <contour>
      <point x="305" y="543" type="move" name="top"/>
    </contour>
  </outline>
</glyph>
<glyph name="n" format="1">
  <advance width="759"/>
  <unicode hex="006E"/>
  <outline>
    <contour>
      <point x="461" y="553"/>
      <point x="438" y="550"/>
      <point x="421" y="545" type="curve"/>
      <point x="284" y="435" type="line"/>
      <point x="314" y="362" type="line"/>
      <point x="349" y="382"/>
      <point x="383" y="388"/>
      <point x="408" y="388" type="curve" smooth="yes"/>
      <point x="450" y="388"/>
      <point x="464" y="366"/>
      <point x="464" y="309" type="curve" smooth="yes"/>
      <point x="464" y="0" type="line"/>
      <point x="664" y="0" type="line"/>
      <point x="664" y="399" type="line" smooth="yes"/>
      <point x="664" y="493"/>
      <point x="595" y="553"/>
      <point x="486" y="553" type="curve" smooth="yes"/>
    </contour>
    <contour>
      <point x="35" y="71" type="line"/>
      <point x="35" y="0" type="line"/>
      <point x="374" y="0" type="line"/>
      <point x="414" y="80" type="line"/>
      <point x="141" y="164" type="line"/>
    </contour>
    <contour>
      <point x="124" y="468" type="line"/>
      <point x="124" y="0" type="line"/>
      <point x="324" y="0" type="line"/>
      <point x="324" y="411" type="line"/>
    </contour>
    <contour>
      <point x="475" y="71" type="line"/>
      <point x="475" y="0" type="line"/>
      <point x="714" y="0" type="line"/>
      <point x="754" y="80" type="line"/>
      <point x="481" y="164" type="line"/>
    </contour>
    <contour>
      <point x="35" y="473" type="line"/>
      <point x="35" y="402" type="line"/>
      <point x="287" y="237" type="line"/>
      <point x="324" y="411" type="line"/>
      <point x="266" y="562" type="line"/>
    </contour>
    <contour>
      <point x="370" y="543" type="move" name="top"/>
    </contour>
    <contour>
      <point x="410" y="0" type="move" name="bottom"/>
    </contour>
  </outline>
</glyph>
<glyph name="o" format="1">
  <advance width="711"/>
  <unicode hex="006F"/>
  <outline>
	<contour>
	  <point x="244" y="553"/>
	  <point x="50" y="422"/>
	  <point x="50" y="254" type="curve" smooth="yes"/>
	  <point x="50" y="104"/>
	  <point x="162" y="-10"/>
	  <point x="320" y="-10" type="curve" smooth="yes"/>
	  <point x="467" y="-10"/>
	  <point x="661" y="121"/>
	  <point x="661" y="289" type="curve" smooth="yes"/>
	  <point x="661" y="438"/>
	  <point x="550" y="553"/>
	  <point x="391" y="553" type="curve" smooth="yes"/>
	</contour>
	<contour>
	  <point x="406" y="419"/>
	  <point x="445" y="342"/>
	  <point x="445" y="242" type="curve" smooth="yes"/>
	  <point x="445" y="163"/>
	  <point x="420" y="124"/>
	  <point x="378" y="124" type="curve" smooth="yes"/>
	  <point x="305" y="124"/>
	  <point x="266" y="202"/>
	  <point x="266" y="302" type="curve" smooth="yes"/>
	  <point x="266" y="381"/>
	  <point x="291" y="419"/>
	  <point x="333" y="419" type="curve" smooth="yes"/>
	</contour>
	<contour>
	  <point x="356" y="543" type="move" name="top"/>
	</contour>
  </outline>
</glyph>
<glyph name="p" format="1">
  <advance width="775"/>
  <unicode hex="0070"/>
  <outline>
    <contour>
      <point x="473" y="553"/>
      <point x="450" y="552"/>
      <point x="422" y="545" type="curve"/>
      <point x="245" y="403" type="line"/>
      <point x="275" y="337" type="line"/>
      <point x="323" y="374"/>
      <point x="374" y="389"/>
      <point x="427" y="389" type="curve" smooth="yes"/>
      <point x="488" y="389"/>
      <point x="515" y="324"/>
      <point x="515" y="242" type="curve" smooth="yes"/>
      <point x="515" y="163"/>
      <point x="490" y="124"/>
      <point x="442" y="124" type="curve" smooth="yes"/>
      <point x="363" y="124"/>
      <point x="324" y="170"/>
      <point x="324" y="222" type="curve"/>
      <point x="224" y="214" type="line"/>
      <point x="224" y="88"/>
      <point x="292" y="-10"/>
      <point x="384" y="-10" type="curve" smooth="yes"/>
      <point x="531" y="-10"/>
      <point x="725" y="121"/>
      <point x="725" y="289" type="curve" smooth="yes"/>
      <point x="725" y="438"/>
      <point x="630" y="553"/>
      <point x="495" y="553" type="curve" smooth="yes"/>
    </contour>
    <contour>
      <point x="35" y="-183" type="line"/>
      <point x="35" y="-254" type="line"/>
      <point x="444" y="-254" type="line"/>
      <point x="484" y="-174" type="line"/>
      <point x="141" y="-90" type="line"/>
    </contour>
    <contour>
      <point x="124" y="-254" type="line"/>
      <point x="324" y="-254" type="line"/>
      <point x="324" y="411" type="line"/>
      <point x="124" y="468" type="line"/>
    </contour>
    <contour>
      <point x="35" y="473" type="line"/>
      <point x="35" y="402" type="line"/>
      <point x="287" y="237" type="line"/>
      <point x="324" y="411" type="line"/>
      <point x="266" y="562" type="line"/>
    </contour>
  </outline>
</glyph>
<glyph name="q" format="1">
  <advance width="745"/>
  <unicode hex="0071"/>
  <outline>
	<contour>
	  <point x="220" y="553"/>
	  <point x="50" y="418"/>
	  <point x="50" y="248" type="curve" smooth="yes"/>
	  <point x="50" y="104"/>
	  <point x="146" y="-10"/>
	  <point x="280" y="-10" type="curve" smooth="yes"/>
	  <point x="302" y="-10"/>
	  <point x="329" y="-9"/>
	  <point x="357" y="-2" type="curve"/>
	  <point x="534" y="138" type="line"/>
	  <point x="503" y="207" type="line"/>
	  <point x="455" y="170"/>
	  <point x="404" y="155"/>
	  <point x="351" y="155" type="curve" smooth="yes"/>
	  <point x="291" y="155"/>
	  <point x="260" y="219"/>
	  <point x="260" y="296" type="curve" smooth="yes"/>
	  <point x="260" y="374"/>
	  <point x="285" y="419"/>
	  <point x="333" y="419" type="curve" smooth="yes"/>
	  <point x="412" y="419"/>
	  <point x="451" y="373"/>
	  <point x="451" y="323" type="curve"/>
	  <point x="631" y="295" type="line"/>
	  <point x="631" y="438"/>
	  <point x="516" y="553"/>
	  <point x="351" y="553" type="curve" smooth="yes"/>
	</contour>
	<contour>
	  <point x="291" y="-183" type="line"/>
	  <point x="291" y="-254" type="line"/>
	  <point x="710" y="-254" type="line"/>
	  <point x="750" y="-174" type="line"/>
	  <point x="467" y="-110" type="line"/>
	</contour>
	<contour>
	  <point x="572" y="551" type="line"/>
	  <point x="450" y="449" type="line"/>
	  <point x="450" y="-254" type="line"/>
	  <point x="650" y="-254" type="line"/>
	  <point x="650" y="551" type="line"/>
	</contour>
  </outline>
</glyph>
<glyph name="s" format="1">
  <advance width="559"/>
  <unicode hex="0073"/>
  <outline>
    <contour>
      <point x="307" y="123"/>
      <point x="294" y="110"/>
      <point x="273" y="110" type="curve" smooth="yes"/>
      <point x="221" y="110"/>
      <point x="161" y="146"/>
      <point x="123" y="211" type="curve"/>
      <point x="45" y="211" type="line"/>
      <point x="45" y="27" type="line"/>
      <point x="91" y="9"/>
      <point x="220" y="-10"/>
      <point x="298" y="-10" type="curve" smooth="yes"/>
      <point x="391" y="-10"/>
      <point x="530" y="88"/>
      <point x="530" y="164" type="curve" smooth="yes"/>
      <point x="530" y="278"/>
      <point x="269" y="347"/>
      <point x="269" y="405" type="curve" smooth="yes"/>
      <point x="269" y="420"/>
      <point x="279" y="433"/>
      <point x="298" y="433" type="curve" smooth="yes"/>
      <point x="346" y="433"/>
      <point x="396" y="399"/>
      <point x="428" y="342" type="curve"/>
      <point x="506" y="342" type="line"/>
      <point x="506" y="516" type="line"/>
      <point x="462" y="534"/>
      <point x="346" y="553"/>
      <point x="272" y="553" type="curve" smooth="yes"/>
      <point x="179" y="553"/>
      <point x="46" y="454"/>
      <point x="46" y="379" type="curve" smooth="yes"/>
      <point x="46" y="264"/>
      <point x="307" y="191"/>
      <point x="307" y="138" type="curve" smooth="yes"/>
    </contour>
    <contour>
      <point x="290" y="543" type="move" name="top"/>
    </contour>
    <contour>
      <point x="288" y="0" type="move" name="bottom"/>
    </contour>
  </outline>
</glyph>
<glyph name="v" format="1">
  <advance width="669"/>
  <unicode hex="0076"/>
  <outline>
	<contour>
	  <point x="46" y="458" type="line"/>
	  <point x="234" y="0" type="line"/>
	  <point x="390" y="0" type="line"/>
	  <point x="649" y="472" type="line"/>
	  <point x="649" y="543" type="line"/>
	  <point x="380" y="543" type="line"/>
	  <point x="340" y="463" type="line"/>
	  <point x="523" y="345" type="line"/>
	  <point x="548" y="478" type="line"/>
	  <point x="340" y="87" type="line"/>
	  <point x="403" y="113" type="line"/>
	  <point x="279" y="411" type="line"/>
	  <point x="241" y="562" type="line"/>
	  <point x="-10" y="478" type="line"/>
	  <point x="-10" y="407" type="line"/>
	  <point x="162" y="307" type="line"/>
	</contour>
  </outline>
</glyph>
<glyph name="w" format="1">
  <advance width="989"/>
  <unicode hex="0077"/>
  <outline>
	<contour>
	  <point x="330" y="478" type="line"/>
	  <point x="330" y="407" type="line"/>
	  <point x="502" y="307" type="line"/>
	  <point x="386" y="458" type="line"/>
	  <point x="574" y="0" type="line"/>
	  <point x="730" y="0" type="line"/>
	  <point x="969" y="472" type="line"/>
	  <point x="969" y="543" type="line"/>
	  <point x="700" y="543" type="line"/>
	  <point x="660" y="463" type="line"/>
	  <point x="843" y="345" type="line"/>
	  <point x="868" y="478" type="line"/>
	  <point x="680" y="87" type="line"/>
	  <point x="743" y="113" type="line"/>
	  <point x="619" y="411" type="line"/>
	  <point x="581" y="562" type="line"/>
	</contour>
	<contour>
	  <point x="-10" y="478" type="line"/>
	  <point x="-10" y="407" type="line"/>
	  <point x="162" y="307" type="line"/>
	  <point x="46" y="458" type="line"/>
	  <point x="234" y="0" type="line"/>
	  <point x="390" y="0" type="line"/>
	  <point x="521" y="238" type="line"/>
	  <point x="474" y="339" type="line"/>
	  <point x="340" y="87" type="line"/>
	  <point x="403" y="113" type="line"/>
	  <point x="279" y="411" type="line"/>
	  <point x="241" y="562" type="line"/>
	</contour>
	<contour>
	  <point x="490" y="543" type="move" name="top"/>
	</contour>
  </outline>
</glyph>
<glyph name="x" format="1">
  <advance width="688"/>
  <unicode hex="0078"/>
  <outline>
	<contour>
	  <point x="667" y="472" type="line"/>
	  <point x="667" y="543" type="line"/>
	  <point x="428" y="543" type="line"/>
	  <point x="388" y="463" type="line"/>
	  <point x="524" y="400" type="line"/>
	  <point x="536" y="478" type="line"/>
	  <point x="344" y="303" type="line"/>
	  <point x="394" y="236" type="line"/>
	</contour>
	<contour>
	  <point x="22" y="70" type="line"/>
	  <point x="22" y="-1" type="line"/>
	  <point x="261" y="-1" type="line"/>
	  <point x="301" y="79" type="line"/>
	  <point x="164" y="144" type="line"/>
	  <point x="153" y="64" type="line"/>
	  <point x="345" y="239" type="line"/>
	  <point x="295" y="306" type="line"/>
	</contour>
	<contour>
	  <point x="419" y="0" type="line"/>
	  <point x="638" y="0" type="line"/>
	  <point x="678" y="80" type="line"/>
	  <point x="475" y="194" type="line"/>
	  <point x="641" y="43" type="line"/>
	  <point x="435" y="310" type="line"/>
	  <point x="249" y="240" type="line"/>
	</contour>
	<contour>
	  <point x="269" y="543" type="line"/>
	  <point x="50" y="543" type="line"/>
	  <point x="10" y="463" type="line"/>
	  <point x="253" y="349" type="line"/>
	  <point x="47" y="500" type="line"/>
	  <point x="253" y="233" type="line"/>
	  <point x="449" y="303" type="line"/>
	</contour>
  </outline>
</glyph>
<glyph name="y" format="1">
  <advance width="669"/>
  <unicode hex="0079"/>
  <outline>
    <contour>
      <point x="-10" y="478" type="line"/>
      <point x="-10" y="407" type="line"/>
      <point x="162" y="307" type="line"/>
      <point x="46" y="458" type="line"/>
      <point x="234" y="0" type="line"/>
      <point x="200" y="153" type="line"/>
      <point x="200" y="10"/>
      <point x="171" y="-66"/>
      <point x="61" y="-204" type="curve"/>
      <point x="139" y="-264" type="line"/>
      <point x="390" y="0" type="line"/>
      <point x="649" y="472" type="line"/>
      <point x="649" y="543" type="line"/>
      <point x="380" y="543" type="line"/>
      <point x="340" y="463" type="line"/>
      <point x="523" y="345" type="line"/>
      <point x="548" y="478" type="line"/>
      <point x="340" y="87" type="line"/>
      <point x="403" y="113" type="line"/>
      <point x="279" y="411" type="line"/>
      <point x="241" y="562" type="line"/>
    </contour>
    <contour>
      <point x="330" y="543" type="move" name="top"/>
    </contour>
  </outline>
</glyph>
<glyph name="z" format="1">
  <advance width="666"/>
  <unicode hex="007A"/>
  <outline>
    <contour>
      <point x="68" y="281" type="line"/>
      <point x="138" y="261" type="line"/>
      <point x="210" y="418" type="line"/>
      <point x="130" y="343" type="line"/>
      <point x="411" y="343" type="line"/>
      <point x="539" y="526" type="line"/>
      <point x="60" y="78" type="line"/>
      <point x="60" y="0" type="line"/>
      <point x="503" y="0" type="line"/>
      <point x="598" y="-18" type="line"/>
      <point x="598" y="272" type="line"/>
      <point x="528" y="292" type="line"/>
      <point x="458" y="129" type="line"/>
      <point x="546" y="200" type="line"/>
      <point x="255" y="200" type="line"/>
      <point x="138" y="26" type="line"/>
      <point x="606" y="465" type="line"/>
      <point x="606" y="543" type="line"/>
      <point x="163" y="543" type="line"/>
      <point x="68" y="561" type="line"/>
    </contour>
    <contour>
      <point x="341" y="543" type="move" name="top"/>
    </contour>
  </outline>
</glyph>
<glyph name="bar" format="1">
  <advance width="373"/>
  <unicode hex="007C"/>
  <outline>
	<contour>
	  <point x="134" y="-200" type="line"/>
	  <point x="239" y="-200" type="line"/>
	  <point x="239" y="986" type="line"/>
	  <point x="134" y="986" type="line"/>
	</contour>
	<contour>
	  <point x="186" y="0" type="move" name="_bottom"/>
	</contour>
  </outline>
</glyph>
<glyph name="exclamdown" format="1">
  <advance width="332"/>
  <unicode hex="00A1"/>
  <outline>
	<contour>
	  <point x="95" y="245" type="line"/>
	  <point x="31" y="-254" type="line"/>
	  <point x="109" y="-254" type="line"/>
	  <point x="302" y="-176" type="line"/>
	  <point x="302" y="-105" type="line"/>
	  <point x="225" y="245" type="line"/>
	</contour>
	<component base="period" yOffset="333"/>
  </outline>
</glyph>
<glyph name="sterling" format="1">
  <advance width="721"/>
  <unicode hex="00A3"/>
  <outline>
	<contour>
	  <point x="306" y="806"/>
	  <point x="124" y="675"/>
	  <point x="124" y="507" type="curve" smooth="yes"/>
	  <point x="124" y="165" type="line"/>
	  <point x="41" y="78" type="line"/>
	  <point x="41" y="0" type="line"/>
	  <point x="586" y="0" type="line"/>
	  <point x="681" y="-18" type="line"/>
	  <point x="681" y="272" type="line"/>
	  <point x="611" y="292" type="line"/>
	  <point x="541" y="129" type="line"/>
	  <point x="629" y="200" type="line"/>
	  <point x="176" y="200" type="line"/>
	  <point x="224" y="170" type="line"/>
	  <point x="285" y="225"/>
	  <point x="324" y="307"/>
	  <point x="324" y="374" type="curve" smooth="yes"/>
	  <point x="324" y="555" type="line" smooth="yes"/>
	  <point x="324" y="630"/>
	  <point x="354" y="672"/>
	  <point x="400" y="672" type="curve" smooth="yes"/>
	  <point x="469" y="672"/>
	  <point x="533" y="631"/>
	  <point x="581" y="565" type="curve"/>
	  <point x="659" y="565" type="line"/>
	  <point x="659" y="769" type="line"/>
	  <point x="619" y="787"/>
	  <point x="513" y="806"/>
	  <point x="445" y="806" type="curve" smooth="yes"/>
	</contour>
	<contour>
	  <point x="41" y="411" type="line"/>
	  <point x="0" y="330" type="line"/>
	  <point x="449" y="330" type="line"/>
	  <point x="490" y="411" type="line"/>
	</contour>
  </outline>
</glyph>
<glyph name="currency" format="1">
  <advance width="886"/>
  <unicode hex="00A4"/>
  <outline>
	<contour>
	  <point x="327" y="686"/>
	  <point x="113" y="551"/>
	  <point x="113" y="375" type="curve" smooth="yes"/>
	  <point x="113" y="218"/>
	  <point x="229" y="100"/>
	  <point x="407" y="100" type="curve" smooth="yes"/>
	  <point x="558" y="100"/>
	  <point x="772" y="235"/>
	  <point x="772" y="410" type="curve" smooth="yes"/>
	  <point x="772" y="567"/>
	  <point x="657" y="686"/>
	  <point x="478" y="686" type="curve" smooth="yes"/>
	</contour>
	<contour>
	  <point x="547" y="562"/>
	  <point x="607" y="472"/>
	  <point x="607" y="363" type="curve" smooth="yes"/>
	  <point x="607" y="286"/>
	  <point x="543" y="224"/>
	  <point x="465" y="224" type="curve" smooth="yes"/>
	  <point x="338" y="224"/>
	  <point x="278" y="314"/>
	  <point x="278" y="423" type="curve" smooth="yes"/>
	  <point x="278" y="500"/>
	  <point x="342" y="562"/>
	  <point x="420" y="562" type="curve" smooth="yes"/>
	</contour>
	<contour>
	  <point x="229" y="238" type="line"/>
	  <point x="50" y="59" type="line"/>
	  <point x="110" y="0" type="line"/>
	  <point x="296" y="186" type="line"/>
	</contour>
	<contour>
	  <point x="571" y="205" type="line"/>
	  <point x="776" y="0" type="line"/>
	  <point x="836" y="59" type="line"/>
	  <point x="639" y="256" type="line"/>
	</contour>
	<contour>
	  <point x="305" y="590" type="line"/>
	  <point x="110" y="785" type="line"/>
	  <point x="50" y="726" type="line"/>
	  <point x="240" y="536" type="line"/>
	</contour>
	<contour>
	  <point x="639" y="529" type="line"/>
	  <point x="836" y="726" type="line"/>
	  <point x="776" y="785" type="line"/>
	  <point x="585" y="594" type="line"/>
	</contour>
  </outline>
</glyph>
<glyph name="yen" format="1">
  <advance width="873"/>
  <unicode hex="00A5"/>
  <outline>
	<contour>
	  <point x="100" y="392" type="line"/>
	  <point x="59" y="311" type="line"/>
	  <point x="768" y="311" type="line"/>
	  <point x="809" y="392" type="line"/>
	</contour>
	<contour>
	  <point x="100" y="232" type="line"/>
	  <point x="59" y="151" type="line"/>
	  <point x="768" y="151" type="line"/>
	  <point x="809" y="232" type="line"/>
	</contour>
	<component base="Y"/>
  </outline>
</glyph>
<glyph name="brokenbar" format="1">
  <advance width="373"/>
  <unicode hex="00A6"/>
  <outline>
    <contour>
      <point x="134" y="986" type="line"/>
      <point x="134" y="523" type="line"/>
      <point x="239" y="523" type="line"/>
      <point x="239" y="986" type="line"/>
    </contour>
    <contour>
      <point x="134" y="263" type="line"/>
      <point x="134" y="-200" type="line"/>
      <point x="239" y="-200" type="line"/>
      <point x="239" y="263" type="line"/>
    </contour>
  </outline>
</glyph>
<glyph name="section" format="1">
  <advance width="775"/>
  <unicode hex="00A7"/>
  <outline>
	<contour>
	  <point x="247" y="104"/>
	  <point x="230" y="79"/>
	  <point x="208" y="79" type="curve" smooth="yes"/>
	  <point x="187" y="79"/>
	  <point x="163" y="119"/>
	  <point x="148" y="180" type="curve"/>
	  <point x="70" y="180" type="line"/>
	  <point x="70" y="-34" type="line"/>
	  <point x="130" y="-57"/>
	  <point x="294" y="-81"/>
	  <point x="393" y="-81" type="curve" smooth="yes"/>
	  <point x="525" y="-81"/>
	  <point x="715" y="62"/>
	  <point x="715" y="163" type="curve" smooth="yes"/>
	  <point x="715" y="334"/>
	  <point x="533" y="450"/>
	  <point x="533" y="588" type="curve" smooth="yes"/>
	  <point x="533" y="620"/>
	  <point x="541" y="646"/>
	  <point x="557" y="646" type="curve" smooth="yes"/>
	  <point x="579" y="646"/>
	  <point x="603" y="614"/>
	  <point x="617" y="545" type="curve"/>
	  <point x="695" y="545" type="line"/>
	  <point x="695" y="759" type="line"/>
	  <point x="633" y="782"/>
	  <point x="472" y="806"/>
	  <point x="371" y="806" type="curve" smooth="yes"/>
	  <point x="246" y="806"/>
	  <point x="65" y="665"/>
	  <point x="65" y="562" type="curve" smooth="yes"/>
	  <point x="65" y="390"/>
	  <point x="247" y="268"/>
	  <point x="247" y="137" type="curve" smooth="yes"/>
	</contour>
	<contour>
	  <point x="341" y="442"/>
	  <point x="528" y="298"/>
	  <point x="528" y="151" type="curve" smooth="yes"/>
	  <point x="528" y="91"/>
	  <point x="449" y="17"/>
	  <point x="396" y="17" type="curve" smooth="yes"/>
	  <point x="370" y="17"/>
	  <point x="350" y="19"/>
	  <point x="333" y="25" type="curve"/>
	  <point x="411" y="63"/>
	  <point x="435" y="99"/>
	  <point x="435" y="145" type="curve" smooth="yes"/>
	  <point x="435" y="276"/>
	  <point x="248" y="426"/>
	  <point x="248" y="574" type="curve" smooth="yes"/>
	  <point x="248" y="633"/>
	  <point x="323" y="708"/>
	  <point x="380" y="708" type="curve" smooth="yes"/>
	  <point x="406" y="708"/>
	  <point x="426" y="706"/>
	  <point x="443" y="700" type="curve"/>
	  <point x="368" y="662"/>
	  <point x="341" y="626"/>
	  <point x="341" y="580" type="curve" smooth="yes"/>
	</contour>
  </outline>
</glyph>
<glyph name="dieresis" format="1">
  <advance width="595"/>
  <unicode hex="00A8"/>
  <outline>
    <component base="period" xOffset="4" yOffset="669" xScale="0.85" yScale="0.90"/>
    <component base="period" xOffset="314" yOffset="669" xScale="0.85" yScale="0.90"/>
    <contour>
      <point x="295" y="543" type="move" name="_top"/>
    </contour>
  </outline>
</glyph>
<glyph name="guillemetleft" format="1">
  <advance width="779"/>
  <unicode hex="00AB"/>
  <outline>
    <contour>
      <point x="380" y="273" type="line"/>
      <point x="593" y="99" type="line"/>
      <point x="663" y="159" type="line"/>
      <point x="586" y="363" type="line"/>
      <point x="576" y="223" type="line"/>
      <point x="663" y="387" type="line"/>
      <point x="593" y="447" type="line"/>
    </contour>
    <component base="guilsinglleft"/>
  </outline>
</glyph>
<glyph name="macron" format="1">
  <advance width="600"/>
  <unicode hex="00AF"/>
  <outline>
	<contour>
	  <point x="553" y="814" type="line"/>
	  <point x="55" y="814" type="line"/>
	  <point x="55" y="733" type="line"/>
	  <point x="553" y="733" type="line"/>
	</contour>
	<contour>
	  <point x="304" y="816" type="move" name="_centre"/>
	</contour>
	<contour>
	  <point x="553" y="814" type="move" name="_topright"/>
	</contour>
	<contour>
	  <point x="304" y="543" type="move" name="_top"/>
	</contour>
  </outline>
</glyph>
<glyph name="degree" format="1">
  <advance width="431"/>
  <unicode hex="00B0"/>
  <outline>
	<contour>
	  <point x="144" y="883"/>
	  <point x="20" y="798"/>
	  <point x="20" y="700" type="curve" smooth="yes"/>
	  <point x="20" y="616"/>
	  <point x="84" y="552"/>
	  <point x="170" y="552" type="curve" smooth="yes"/>
	  <point x="267" y="552"/>
	  <point x="391" y="637"/>
	  <point x="391" y="735" type="curve" smooth="yes"/>
	  <point x="391" y="819"/>
	  <point x="328" y="883"/>
	  <point x="241" y="883" type="curve" smooth="yes"/>
	</contour>
	<contour>
	  <point x="244" y="799"/>
	  <point x="271" y="753"/>
	  <point x="271" y="698" type="curve" smooth="yes"/>
	  <point x="271" y="659"/>
	  <point x="252" y="636"/>
	  <point x="218" y="636" type="curve" smooth="yes"/>
	  <point x="167" y="636"/>
	  <point x="140" y="681"/>
	  <point x="140" y="738" type="curve" smooth="yes"/>
	  <point x="140" y="779"/>
	  <point x="159" y="799"/>
	  <point x="193" y="799" type="curve" smooth="yes"/>
	</contour>
  </outline>
</glyph>
<glyph name="acute" format="1">
  <advance width="380"/>
  <unicode hex="00B4"/>
  <outline>
	<component base="grave" xOffset="420" xScale="-1"/>
	<contour>
	  <point x="160" y="543" type="move" name="_top"/>
	</contour>
  </outline>
</glyph>
<glyph name="cedilla" format="1">
  <advance width="600"/>
  <unicode hex="00B8"/>
  <outline>
    <contour>
      <point x="367" y="-257"/>
      <point x="442" y="-225"/>
      <point x="442" y="-164" type="curve" smooth="yes"/>
      <point x="442" y="-122"/>
      <point x="419" y="-93"/>
      <point x="324" y="-46" type="curve"/>
      <point x="332" y="-73" type="line"/>
      <point x="388" y="-26"/>
      <point x="444" y="22"/>
      <point x="491" y="84" type="curve"/>
      <point x="417" y="127" type="line"/>
      <point x="353" y="51"/>
      <point x="281" y="-10"/>
      <point x="208" y="-71" type="curve"/>
      <point x="251" y="-101"/>
      <point x="263" y="-117"/>
      <point x="263" y="-142" type="curve" smooth="yes"/>
      <point x="263" y="-166"/>
      <point x="249" y="-180"/>
      <point x="210" y="-193" type="curve"/>
      <point x="210" y="-264" type="line"/>
    </contour>
    <contour>
      <point x="303" y="0" type="move" name="_bottom"/>
    </contour>
  </outline>
</glyph>
<glyph name="questiondown" format="1">
  <advance width="462"/>
  <unicode hex="00BF"/>
  <outline>
	<contour>
	  <point x="85" y="182" type="line"/>
	  <point x="85" y="111" type="line"/>
	  <point x="121" y="101"/>
	  <point x="147" y="88"/>
	  <point x="147" y="74" type="curve" smooth="yes"/>
	  <point x="147" y="28"/>
	  <point x="-20" y="-26"/>
	  <point x="-20" y="-106" type="curve" smooth="yes"/>
	  <point x="-20" y="-173"/>
	  <point x="114" y="-264"/>
	  <point x="229" y="-264" type="curve" smooth="yes"/>
	  <point x="259" y="-264"/>
	  <point x="296" y="-263"/>
	  <point x="335" y="-256" type="curve"/>
	  <point x="472" y="-146" type="line"/>
	  <point x="442" y="-78" type="line"/>
	  <point x="379" y="-101"/>
	  <point x="334" y="-109"/>
	  <point x="307" y="-109" type="curve" smooth="yes"/>
	  <point x="261" y="-109"/>
	  <point x="206" y="-69"/>
	  <point x="206" y="-42" type="curve" smooth="yes"/>
	  <point x="206" y="11"/>
	  <point x="363" y="67"/>
	  <point x="363" y="152" type="curve" smooth="yes"/>
	  <point x="363" y="205"/>
	  <point x="297" y="243"/>
	  <point x="226" y="275" type="curve"/>
	</contour>
	<component base="period" xOffset="66" yOffset="333"/>
  </outline>
</glyph>
<glyph name="AE" format="1">
  <advance width="1131"/>
  <unicode hex="00C6"/>
  <outline>
	<contour>
	  <point x="0" y="71" type="line"/>
	  <point x="0" y="0" type="line"/>
	  <point x="294" y="0" type="line"/>
	  <point x="334" y="80" type="line"/>
	  <point x="166" y="194" type="line"/>
	</contour>
	<contour>
	  <point x="387" y="754" type="line"/>
	  <point x="82" y="71" type="line"/>
	  <point x="226" y="105" type="line"/>
	  <point x="514" y="759" type="line"/>
	</contour>
	<contour>
	  <point x="267" y="786" type="line"/>
	  <point x="227" y="706" type="line"/>
	  <point x="415" y="654" type="line"/>
	  <point x="506" y="786" type="line"/>
	</contour>
	<contour>
	  <point x="585" y="786" type="line"/>
	  <point x="585" y="691" type="line"/>
	  <point x="1063" y="691" type="line"/>
	  <point x="1063" y="786" type="line"/>
	</contour>
	<contour>
	  <point x="956" y="779" type="line"/>
	  <point x="818" y="776" type="line"/>
	  <point x="1001" y="504" type="line"/>
	  <point x="1071" y="534" type="line"/>
	  <point x="1071" y="804" type="line"/>
	</contour>
	<contour>
	  <point x="481" y="786" type="line"/>
	  <point x="481" y="0" type="line"/>
	  <point x="696" y="0" type="line"/>
	  <point x="696" y="786" type="line"/>
	</contour>
	<contour>
	  <point x="313" y="449" type="line"/>
	  <point x="263" y="354" type="line"/>
	  <point x="853" y="354" type="line"/>
	  <point x="853" y="449" type="line"/>
	</contour>
	<contour>
	  <point x="826" y="552" type="line"/>
	  <point x="723" y="406" type="line"/>
	  <point x="817" y="228" type="line"/>
	  <point x="897" y="268" type="line"/>
	  <point x="897" y="552" type="line"/>
	</contour>
	<contour>
	  <point x="387" y="71" type="line"/>
	  <point x="387" y="0" type="line"/>
	  <point x="568" y="0" type="line"/>
	  <point x="588" y="80" type="line"/>
	  <point x="493" y="154" type="line"/>
	</contour>
	<contour>
	  <point x="585" y="95" type="line"/>
	  <point x="585" y="0" type="line"/>
	  <point x="1073" y="0" type="line"/>
	  <point x="1073" y="95" type="line"/>
	</contour>
	<contour>
	  <point x="848" y="70" type="line"/>
	  <point x="966" y="7" type="line"/>
	  <point x="1081" y="-18" type="line"/>
	  <point x="1081" y="272" type="line"/>
	  <point x="1011" y="302" type="line"/>
	</contour>
  </outline>
</glyph>
<glyph name="multiply" format="1">
  <advance width="539"/>
  <unicode hex="00D7"/>
  <outline>
    <contour>
      <point x="499" y="143" type="line"/>
      <point x="441" y="85" type="line"/>
      <point x="40" y="486" type="line"/>
      <point x="98" y="544" type="line"/>
    </contour>
    <contour>
      <point x="499" y="486" type="line"/>
      <point x="98" y="85" type="line"/>
      <point x="40" y="143" type="line"/>
      <point x="441" y="544" type="line"/>
    </contour>
  </outline>
</glyph>
<glyph name="Oslash" format="1">
  <advance width="979"/>
  <unicode hex="00D8"/>
  <outline>
    <contour>
      <point x="760" y="945" type="line"/>
      <point x="147" y="-118" type="line"/>
      <point x="220" y="-160" type="line"/>
      <point x="833" y="903" type="line"/>
    </contour>
    <component base="O"/>
  </outline>
</glyph>
<glyph name="germandbls" format="1">
  <advance width="839"/>
  <unicode hex="00DF"/>
  <outline>
    <contour>
      <point x="343" y="883"/>
      <point x="143" y="752"/>
      <point x="143" y="590" type="curve" smooth="yes"/>
      <point x="143" y="0" type="line"/>
      <point x="343" y="0" type="line"/>
      <point x="343" y="638" type="line" smooth="yes"/>
      <point x="343" y="717"/>
      <point x="368" y="759"/>
      <point x="416" y="759" type="curve" smooth="yes"/>
      <point x="462" y="759"/>
      <point x="510" y="670"/>
      <point x="510" y="619" type="curve" smooth="yes"/>
      <point x="510" y="546"/>
      <point x="406" y="496"/>
      <point x="406" y="399" type="curve" smooth="yes"/>
      <point x="406" y="274"/>
      <point x="617" y="195"/>
      <point x="617" y="138" type="curve" smooth="yes"/>
      <point x="617" y="123"/>
      <point x="604" y="110"/>
      <point x="583" y="110" type="curve" smooth="yes"/>
      <point x="545" y="110"/>
      <point x="501" y="142"/>
      <point x="473" y="201" type="curve"/>
      <point x="395" y="201" type="line"/>
      <point x="395" y="17" type="line"/>
      <point x="427" y="4"/>
      <point x="521" y="-10"/>
      <point x="578" y="-10" type="curve" smooth="yes"/>
      <point x="671" y="-10"/>
      <point x="810" y="100"/>
      <point x="810" y="184" type="curve" smooth="yes"/>
      <point x="810" y="328"/>
      <point x="593" y="369"/>
      <point x="593" y="483" type="curve" smooth="yes"/>
      <point x="593" y="566"/>
      <point x="726" y="612"/>
      <point x="726" y="715" type="curve" smooth="yes"/>
      <point x="726" y="798"/>
      <point x="572" y="883"/>
      <point x="494" y="883" type="curve" smooth="yes"/>
    </contour>
    <contour>
      <point x="54" y="71" type="line"/>
      <point x="54" y="0" type="line"/>
      <point x="213" y="0" type="line"/>
      <point x="233" y="80" type="line"/>
      <point x="160" y="154" type="line"/>
    </contour>
    <contour>
      <point x="25" y="513" type="line"/>
      <point x="25" y="432" type="line"/>
      <point x="217" y="432" type="line"/>
      <point x="217" y="513" type="line"/>
    </contour>
  </outline>
</glyph>
<glyph name="ae" format="1">
  <advance width="966"/>
  <unicode hex="00E6"/>
  <outline>
    <contour>
      <point x="557" y="553"/>
      <point x="375" y="422"/>
      <point x="375" y="254" type="curve" smooth="yes"/>
      <point x="375" y="104"/>
      <point x="479" y="-10"/>
      <point x="625" y="-10" type="curve" smooth="yes"/>
      <point x="669" y="-10"/>
      <point x="721" y="-8"/>
      <point x="778" y="9" type="curve"/>
      <point x="915" y="119" type="line"/>
      <point x="885" y="187" type="line"/>
      <point x="787" y="149"/>
      <point x="724" y="135"/>
      <point x="683" y="135" type="curve" smooth="yes"/>
      <point x="611" y="135"/>
      <point x="575" y="207"/>
      <point x="575" y="302" type="curve" smooth="yes"/>
      <point x="575" y="381"/>
      <point x="596" y="419"/>
      <point x="642" y="419" type="curve" smooth="yes"/>
      <point x="697" y="419"/>
      <point x="718" y="379"/>
      <point x="722" y="299" type="curve"/>
      <point x="747" y="315" type="line"/>
      <point x="498" y="315" type="line"/>
      <point x="498" y="234" type="line"/>
      <point x="916" y="234" type="line"/>
      <point x="920" y="440"/>
      <point x="837" y="553"/>
      <point x="696" y="553" type="curve" smooth="yes"/>
    </contour>
    <contour>
      <point x="130" y="309" type="line"/>
      <point x="72" y="265"/>
      <point x="40" y="212"/>
      <point x="40" y="159" type="curve" smooth="yes"/>
      <point x="40" y="80"/>
      <point x="84" y="-10"/>
      <point x="233" y="-10" type="curve" smooth="yes"/>
      <point x="262" y="-10"/>
      <point x="303" y="-8"/>
      <point x="333" y="-2" type="curve"/>
      <point x="510" y="138" type="line"/>
      <point x="480" y="191" type="line"/>
      <point x="396" y="145"/>
      <point x="341" y="135"/>
      <point x="305" y="135" type="curve" smooth="yes"/>
      <point x="261" y="135"/>
      <point x="235" y="158"/>
      <point x="235" y="196" type="curve" smooth="yes"/>
      <point x="235" y="210"/>
      <point x="238" y="217"/>
      <point x="244" y="228" type="curve"/>
      <point x="421" y="228" type="line"/>
      <point x="421" y="309" type="line"/>
    </contour>
    <contour>
      <point x="289" y="553"/>
      <point x="247" y="551"/>
      <point x="202" y="534" type="curve"/>
      <point x="65" y="424" type="line"/>
      <point x="95" y="356" type="line"/>
      <point x="188" y="387"/>
      <point x="248" y="398"/>
      <point x="287" y="398" type="curve" smooth="yes"/>
      <point x="336" y="398"/>
      <point x="376" y="367"/>
      <point x="376" y="299" type="curve" smooth="yes"/>
      <point x="376" y="267" type="line"/>
      <point x="566" y="254" type="line"/>
      <point x="566" y="339" type="line" smooth="yes"/>
      <point x="566" y="481"/>
      <point x="475" y="553"/>
      <point x="324" y="553" type="curve" smooth="yes"/>
    </contour>
  </outline>
</glyph>
<glyph name="oslash" format="1">
  <advance width="711"/>
  <unicode hex="00F8"/>
  <outline>
    <contour>
      <point x="556" y="700" type="line"/>
      <point x="85" y="-116" type="line"/>
      <point x="155" y="-156" type="line"/>
      <point x="626" y="660" type="line"/>
    </contour>
    <component base="o"/>
  </outline>
</glyph>
<glyph name="thorn" format="1">
  <advance width="755"/>
  <unicode hex="00FE"/>
  <outline>
    <contour>
      <point x="453" y="553"/>
      <point x="430" y="552"/>
      <point x="402" y="545" type="curve"/>
      <point x="225" y="403" type="line"/>
      <point x="255" y="337" type="line"/>
      <point x="303" y="374"/>
      <point x="354" y="389"/>
      <point x="407" y="389" type="curve" smooth="yes"/>
      <point x="468" y="389"/>
      <point x="495" y="324"/>
      <point x="495" y="242" type="curve" smooth="yes"/>
      <point x="495" y="163"/>
      <point x="470" y="124"/>
      <point x="422" y="124" type="curve" smooth="yes"/>
      <point x="343" y="124"/>
      <point x="304" y="170"/>
      <point x="304" y="222" type="curve"/>
      <point x="204" y="214" type="line"/>
      <point x="204" y="88"/>
      <point x="272" y="-10"/>
      <point x="364" y="-10" type="curve" smooth="yes"/>
      <point x="511" y="-10"/>
      <point x="705" y="121"/>
      <point x="705" y="289" type="curve" smooth="yes"/>
      <point x="705" y="438"/>
      <point x="610" y="553"/>
      <point x="475" y="553" type="curve" smooth="yes"/>
    </contour>
    <contour>
      <point x="15" y="-183" type="line"/>
      <point x="15" y="-254" type="line"/>
      <point x="424" y="-254" type="line"/>
      <point x="464" y="-174" type="line"/>
      <point x="121" y="-90" type="line"/>
    </contour>
    <contour>
      <point x="104" y="779" type="line"/>
      <point x="104" y="-254" type="line"/>
      <point x="304" y="-254" type="line"/>
      <point x="304" y="873" type="line"/>
    </contour>
    <contour>
      <point x="226" y="873" type="line"/>
      <point x="15" y="784" type="line"/>
      <point x="15" y="713" type="line"/>
      <point x="267" y="548" type="line"/>
      <point x="304" y="873" type="line"/>
    </contour>
  </outline>
</glyph>
<glyph name="dcroat" format="1">
  <advance width="745"/>
  <unicode hex="0111"/>
  <outline>
    <contour>
      <point x="244" y="553"/>
      <point x="50" y="422"/>
      <point x="50" y="254" type="curve" smooth="yes"/>
      <point x="50" y="105"/>
      <point x="145" y="-10"/>
      <point x="280" y="-10" type="curve" smooth="yes"/>
      <point x="302" y="-10"/>
      <point x="325" y="-9"/>
      <point x="353" y="-2" type="curve"/>
      <point x="530" y="140" type="line"/>
      <point x="500" y="206" type="line"/>
      <point x="452" y="169"/>
      <point x="401" y="154"/>
      <point x="348" y="154" type="curve" smooth="yes"/>
      <point x="287" y="154"/>
      <point x="260" y="219"/>
      <point x="260" y="301" type="curve" smooth="yes"/>
      <point x="260" y="380"/>
      <point x="285" y="419"/>
      <point x="333" y="419" type="curve" smooth="yes"/>
      <point x="412" y="419"/>
      <point x="451" y="378"/>
      <point x="451" y="331" type="curve"/>
      <point x="551" y="329" type="line"/>
      <point x="551" y="455"/>
      <point x="483" y="553"/>
      <point x="391" y="553" type="curve" smooth="yes"/>
    </contour>
    <contour>
      <point x="490" y="71" type="line"/>
      <point x="490" y="0" type="line"/>
      <point x="700" y="0" type="line"/>
      <point x="740" y="80" type="line"/>
      <point x="467" y="164" type="line"/>
    </contour>
    <contour>
      <point x="572" y="883" type="line"/>
      <point x="450" y="832" type="line"/>
      <point x="450" y="0" type="line"/>
      <point x="650" y="0" type="line"/>
      <point x="650" y="883" type="line"/>
    </contour>
    <contour>
      <point x="745" y="726" type="line"/>
      <point x="247" y="726" type="line"/>
      <point x="247" y="645" type="line"/>
      <point x="745" y="645" type="line"/>
    </contour>
    <contour>
      <point x="373" y="266" type="move" name="center"/>
    </contour>
    <contour>
      <point x="690" y="543" type="move" name="topright"/>
    </contour>
    <contour>
      <point x="496" y="658" type="move" name="centre"/>
    </contour>
  </outline>
</glyph>
<glyph name="Hbar" format="1">
  <advance width="1004"/>
  <unicode hex="0126"/>
  <outline>
	<contour>
	  <point x="1003" y="609" type="line"/>
	  <point x="0" y="609" type="line"/>
	  <point x="0" y="514" type="line"/>
	  <point x="1003" y="514" type="line"/>
	</contour>
	<component base="H"/>
  </outline>
</glyph>
<glyph name="hbar" format="1">
  <advance width="739"/>
  <unicode hex="0127"/>
  <outline>
	<contour>
	  <point x="441" y="553"/>
	  <point x="418" y="550"/>
	  <point x="401" y="545" type="curve"/>
	  <point x="264" y="435" type="line"/>
	  <point x="294" y="362" type="line"/>
	  <point x="329" y="382"/>
	  <point x="363" y="388"/>
	  <point x="388" y="388" type="curve" smooth="yes"/>
	  <point x="430" y="388"/>
	  <point x="444" y="366"/>
	  <point x="444" y="309" type="curve" smooth="yes"/>
	  <point x="444" y="0" type="line"/>
	  <point x="644" y="0" type="line"/>
	  <point x="644" y="399" type="line" smooth="yes"/>
	  <point x="644" y="493"/>
	  <point x="575" y="553"/>
	  <point x="466" y="553" type="curve" smooth="yes"/>
	</contour>
	<contour>
	  <point x="455" y="71" type="line"/>
	  <point x="455" y="0" type="line"/>
	  <point x="694" y="0" type="line"/>
	  <point x="734" y="80" type="line"/>
	  <point x="461" y="164" type="line"/>
	</contour>
	<contour>
	  <point x="226" y="883" type="line"/>
	  <point x="104" y="832" type="line"/>
	  <point x="104" y="0" type="line"/>
	  <point x="304" y="0" type="line"/>
	  <point x="304" y="883" type="line"/>
	</contour>
	<contour>
	  <point x="15" y="71" type="line"/>
	  <point x="15" y="0" type="line"/>
	  <point x="354" y="0" type="line"/>
	  <point x="394" y="80" type="line"/>
	  <point x="121" y="164" type="line"/>
	</contour>
	<contour>
	  <point x="498" y="726" type="line"/>
	  <point x="0" y="726" type="line"/>
	  <point x="0" y="645" type="line"/>
	  <point x="498" y="645" type="line"/>
	</contour>
	<contour>
	  <point x="200" y="823" type="move" name="top"/>
	</contour>
	<contour>
	  <point x="344" y="543" type="move" name="topright"/>
	</contour>
	<contour>
	  <point x="223" y="658" type="move" name="centre"/>
	</contour>
	<contour>
	  <point x="200" y="0" type="move" name="bottom"/>
	</contour>
  </outline>
</glyph>
<glyph name="lslash" format="1">
  <advance width="399"/>
  <unicode hex="0142"/>
  <outline>
	<contour>
	  <point x="194" y="522" type="line"/>
	  <point x="-40" y="314" type="line"/>
	  <point x="-40" y="219" type="line"/>
	  <point x="194" y="419" type="line"/>
	</contour>
	<contour>
	  <point x="205" y="369" type="line"/>
	  <point x="439" y="577" type="line"/>
	  <point x="439" y="682" type="line"/>
	  <point x="205" y="472" type="line"/>
	</contour>
	<component base="l"/>
  </outline>
</glyph>
<glyph name="eng" format="1">
  <advance width="753"/>
  <unicode hex="014B"/>
  <outline>
    <contour>
      <point x="461" y="553"/>
      <point x="438" y="550"/>
      <point x="421" y="545" type="curve"/>
      <point x="284" y="435" type="line"/>
      <point x="314" y="362" type="line"/>
      <point x="349" y="382"/>
      <point x="383" y="388"/>
      <point x="408" y="388" type="curve" smooth="yes"/>
      <point x="450" y="388"/>
      <point x="464" y="366"/>
      <point x="464" y="309" type="curve" smooth="yes"/>
      <point x="464" y="41" type="line" smooth="yes"/>
      <point x="464" y="-57"/>
      <point x="443" y="-109"/>
      <point x="363" y="-204" type="curve"/>
      <point x="441" y="-264" type="line"/>
      <point x="673" y="-20" type="line"/>
      <point x="668" y="-4"/>
      <point x="664" y="45"/>
      <point x="664" y="99" type="curve" smooth="yes"/>
      <point x="664" y="399" type="line" smooth="yes"/>
      <point x="664" y="493"/>
      <point x="595" y="553"/>
      <point x="486" y="553" type="curve" smooth="yes"/>
    </contour>
    <contour>
      <point x="35" y="71" type="line"/>
      <point x="35" y="0" type="line"/>
      <point x="374" y="0" type="line"/>
      <point x="414" y="80" type="line"/>
      <point x="141" y="164" type="line"/>
    </contour>
    <contour>
      <point x="124" y="0" type="line"/>
      <point x="324" y="0" type="line"/>
      <point x="324" y="411" type="line"/>
      <point x="124" y="468" type="line"/>
    </contour>
    <contour>
      <point x="35" y="473" type="line"/>
      <point x="35" y="402" type="line"/>
      <point x="287" y="237" type="line"/>
      <point x="324" y="411" type="line"/>
      <point x="266" y="562" type="line"/>
    </contour>
    <contour>
      <point x="370" y="543" type="move" name="top"/>
    </contour>
  </outline>
</glyph>
<glyph name="oe" format="1">
  <advance width="1022"/>
  <unicode hex="0153"/>
  <outline>
    <contour>
      <point x="238" y="553"/>
      <point x="50" y="422"/>
      <point x="50" y="254" type="curve" smooth="yes"/>
      <point x="50" y="104"/>
      <point x="158" y="-10"/>
      <point x="310" y="-10" type="curve" smooth="yes"/>
      <point x="445" y="-10"/>
      <point x="621" y="121"/>
      <point x="621" y="289" type="curve" smooth="yes"/>
      <point x="621" y="438"/>
      <point x="522" y="553"/>
      <point x="381" y="553" type="curve" smooth="yes"/>
    </contour>
    <contour>
      <point x="389" y="419"/>
      <point x="425" y="342"/>
      <point x="425" y="242" type="curve" smooth="yes"/>
      <point x="425" y="163"/>
      <point x="404" y="124"/>
      <point x="368" y="124" type="curve" smooth="yes"/>
      <point x="302" y="124"/>
      <point x="266" y="202"/>
      <point x="266" y="302" type="curve" smooth="yes"/>
      <point x="266" y="381"/>
      <point x="287" y="419"/>
      <point x="323" y="419" type="curve" smooth="yes"/>
    </contour>
    <contour>
      <point x="613" y="553"/>
      <point x="431" y="422"/>
      <point x="431" y="254" type="curve" smooth="yes"/>
      <point x="431" y="104"/>
      <point x="535" y="-10"/>
      <point x="681" y="-10" type="curve" smooth="yes"/>
      <point x="725" y="-10"/>
      <point x="777" y="-8"/>
      <point x="834" y="9" type="curve"/>
      <point x="971" y="119" type="line"/>
      <point x="941" y="187" type="line"/>
      <point x="843" y="149"/>
      <point x="780" y="135"/>
      <point x="739" y="135" type="curve" smooth="yes"/>
      <point x="667" y="135"/>
      <point x="631" y="207"/>
      <point x="631" y="302" type="curve" smooth="yes"/>
      <point x="631" y="381"/>
      <point x="652" y="419"/>
      <point x="698" y="419" type="curve" smooth="yes"/>
      <point x="753" y="419"/>
      <point x="774" y="379"/>
      <point x="778" y="299" type="curve"/>
      <point x="803" y="315" type="line"/>
      <point x="554" y="315" type="line"/>
      <point x="554" y="234" type="line"/>
      <point x="972" y="234" type="line"/>
      <point x="976" y="440"/>
      <point x="893" y="553"/>
      <point x="752" y="553" type="curve" smooth="yes"/>
    </contour>
  </outline>
</glyph>
<glyph name="Tbar" format="1">
  <advance width="852"/>
  <unicode hex="0166"/>
  <outline>
	<contour>
	  <point x="725" y="439" type="line"/>
	  <point x="127" y="439" type="line"/>
	  <point x="127" y="344" type="line"/>
	  <point x="725" y="344" type="line"/>
	</contour>
	<component base="T"/>
  </outline>
</glyph>
<glyph name="longs" format="1">
  <advance width="518"/>
  <unicode hex="017F"/>
  <outline>
    <contour>
      <point x="303" y="883"/>
      <point x="124" y="752"/>
      <point x="124" y="584" type="curve" smooth="yes"/>
      <point x="124" y="0" type="line"/>
      <point x="324" y="0" type="line"/>
      <point x="324" y="656" type="line" smooth="yes"/>
      <point x="324" y="719"/>
      <point x="350" y="753"/>
      <point x="390" y="753" type="curve" smooth="yes"/>
      <point x="438" y="753"/>
      <point x="488" y="715"/>
      <point x="520" y="652" type="curve"/>
      <point x="598" y="652" type="line"/>
      <point x="598" y="846" type="line"/>
      <point x="568" y="864"/>
      <point x="487" y="883"/>
      <point x="434" y="883" type="curve" smooth="yes"/>
    </contour>
    <contour>
      <point x="35" y="71" type="line"/>
      <point x="35" y="0" type="line"/>
      <point x="444" y="0" type="line"/>
      <point x="484" y="80" type="line"/>
      <point x="141" y="164" type="line"/>
    </contour>
    <contour>
      <point x="25" y="513" type="line"/>
      <point x="25" y="432" type="line"/>
      <point x="231" y="432" type="line"/>
      <point x="231" y="513" type="line"/>
    </contour>
  </outline>
</glyph>
<glyph name="florin" format="1">
  <advance width="659"/>
  <unicode hex="0192"/>
  <outline>
	<contour>
	  <point x="334" y="806"/>
	  <point x="155" y="675"/>
	  <point x="155" y="507" type="curve" smooth="yes"/>
	  <point x="155" y="153" type="line"/>
	  <point x="355" y="153" type="line"/>
	  <point x="355" y="579" type="line" smooth="yes"/>
	  <point x="355" y="642"/>
	  <point x="381" y="676"/>
	  <point x="421" y="676" type="curve" smooth="yes"/>
	  <point x="469" y="676"/>
	  <point x="519" y="638"/>
	  <point x="551" y="575" type="curve"/>
	  <point x="629" y="575" type="line"/>
	  <point x="629" y="769" type="line"/>
	  <point x="599" y="787"/>
	  <point x="518" y="806"/>
	  <point x="465" y="806" type="curve" smooth="yes"/>
	</contour>
	<contour>
	  <point x="155" y="41" type="line" smooth="yes"/>
	  <point x="155" y="-57"/>
	  <point x="134" y="-109"/>
	  <point x="54" y="-204" type="curve"/>
	  <point x="132" y="-264" type="line"/>
	  <point x="364" y="-20" type="line"/>
	  <point x="359" y="-4"/>
	  <point x="355" y="45"/>
	  <point x="355" y="99" type="curve" smooth="yes"/>
	  <point x="355" y="361" type="line"/>
	  <point x="155" y="368" type="line"/>
	</contour>
	<contour>
	  <point x="41" y="411" type="line"/>
	  <point x="0" y="330" type="line"/>
	  <point x="548" y="330" type="line"/>
	  <point x="589" y="411" type="line"/>
	</contour>
  </outline>
</glyph>
<glyph name="jdotless" format="1">
  <advance width="390"/>
  <unicode hex="0237"/>
  <outline>
	<contour>
	  <point x="12" y="498" type="line"/>
	  <point x="12" y="427" type="line"/>
	  <point x="184" y="307" type="line"/>
	  <point x="301" y="411" type="line"/>
	  <point x="301" y="562" type="line"/>
	  <point x="223" y="562" type="line"/>
	</contour>
	<contour>
	  <point x="101" y="-57"/>
	  <point x="80" y="-109"/>
	  <point x="0" y="-204" type="curve"/>
	  <point x="78" y="-264" type="line"/>
	  <point x="310" y="-20" type="line"/>
	  <point x="305" y="-4"/>
	  <point x="301" y="45"/>
	  <point x="301" y="99" type="curve" smooth="yes"/>
	  <point x="301" y="411" type="line"/>
	  <point x="101" y="468" type="line"/>
	  <point x="101" y="41" type="line" smooth="yes"/>
	</contour>
	<contour>
	  <point x="187" y="531" type="move" name="top"/>
	</contour>
  </outline>
</glyph>
<glyph name="apostrophemod" format="1">
  <advance width="820"/>
  <unicode hex="02BC"/>
  <outline>
    <contour>
      <point x="303" y="796" type="line"/>
      <point x="175" y="533" type="line"/>
      <point x="297" y="486" type="line"/>
      <point x="375" y="486" type="line"/>
      <point x="503" y="749" type="line"/>
      <point x="381" y="796" type="line"/>
    </contour>
  </outline>
</glyph>
<glyph name="circumflex" format="1">
  <advance width="568"/>
  <unicode hex="02C6"/>
  <outline>
	<component base="caron" xOffset="568" yOffset="1553" xScale="-1" yScale="-1"/>
	<contour>
	  <point x="284" y="543" type="move" name="_top"/>
	</contour>
  </outline>
</glyph>
<glyph name="caron" format="1">
  <advance width="568"/>
  <unicode hex="02C7"/>
  <outline>
	<contour>
	  <point x="268" y="751" type="line"/>
	  <point x="333" y="745" type="line"/>
	  <point x="253" y="892" type="line"/>
	  <point x="39" y="873" type="line"/>
	  <point x="10" y="809" type="line"/>
	  <point x="292" y="665" type="line"/>
	  <point x="545" y="821" type="line"/>
	  <point x="501" y="894" type="line"/>
	</contour>
	<contour>
	  <point x="284" y="543" type="move" name="_top"/>
	</contour>
  </outline>
</glyph>
<glyph name="breve" format="1">
  <advance width="489"/>
  <unicode hex="02D8"/>
  <outline>
	<contour>
	  <point x="345" y="833" type="line"/>
	  <point x="335" y="801"/>
	  <point x="312" y="785"/>
	  <point x="277" y="785" type="curve" smooth="yes"/>
	  <point x="216" y="785"/>
	  <point x="179" y="829"/>
	  <point x="165" y="892" type="curve"/>
	  <point x="-7" y="756" type="line"/>
	  <point x="39" y="686"/>
	  <point x="140" y="641"/>
	  <point x="239" y="641" type="curve" smooth="yes"/>
	  <point x="355" y="641"/>
	  <point x="486" y="747"/>
	  <point x="514" y="891" type="curve"/>
	</contour>
	<contour>
	  <point x="245" y="543" type="move" name="_top"/>
	</contour>
  </outline>
</glyph>
<glyph name="ring" format="1">
  <advance width="411"/>
  <unicode hex="02DA"/>
  <outline>
	<contour>
	  <point x="144" y="893"/>
	  <point x="20" y="828"/>
	  <point x="20" y="750" type="curve" smooth="yes"/>
	  <point x="20" y="690"/>
	  <point x="84" y="642"/>
	  <point x="170" y="642" type="curve" smooth="yes"/>
	  <point x="267" y="642"/>
	  <point x="391" y="707"/>
	  <point x="391" y="785" type="curve" smooth="yes"/>
	  <point x="391" y="845"/>
	  <point x="328" y="893"/>
	  <point x="241" y="893" type="curve" smooth="yes"/>
	</contour>
	<contour>
	  <point x="234" y="819"/>
	  <point x="261" y="787"/>
	  <point x="261" y="748" type="curve" smooth="yes"/>
	  <point x="261" y="727"/>
	  <point x="249" y="716"/>
	  <point x="228" y="716" type="curve" smooth="yes"/>
	  <point x="177" y="716"/>
	  <point x="150" y="748"/>
	  <point x="150" y="788" type="curve" smooth="yes"/>
	  <point x="150" y="808"/>
	  <point x="162" y="819"/>
	  <point x="183" y="819" type="curve" smooth="yes"/>
	</contour>
	<contour>
	  <point x="206" y="543" type="move" name="_top"/>
	</contour>
  </outline>
</glyph>
<glyph name="ogonek" format="1">
  <advance width="446"/>
  <unicode hex="02DB"/>
  <outline>
    <contour>
      <point x="111" y="-103" type="line"/>
      <point x="106" y="-112"/>
      <point x="103" y="-130"/>
      <point x="103" y="-146" type="curve" smooth="yes"/>
      <point x="103" y="-207"/>
      <point x="163" y="-249"/>
      <point x="272" y="-264" type="curve"/>
      <point x="347" y="-204" type="line"/>
      <point x="347" y="-126" type="line"/>
      <point x="312" y="-126"/>
      <point x="298" y="-116"/>
      <point x="298" y="-93" type="curve" smooth="yes"/>
      <point x="298" y="-75"/>
      <point x="306" y="-48"/>
      <point x="331" y="0" type="curve"/>
      <point x="264" y="20" type="line"/>
    </contour>
    <contour>
      <point x="331" y="0" type="move" name="_ogonek"/>
    </contour>
  </outline>
</glyph>
<glyph name="tilde" format="1">
  <advance width="545"/>
  <unicode hex="02DC"/>
  <outline>
	<contour>
	  <point x="11" y="759" type="line"/>
	  <point x="55" y="686" type="line"/>
	  <point x="115" y="723" type="line" smooth="yes"/>
	  <point x="161" y="751"/>
	  <point x="186" y="739"/>
	  <point x="279" y="645" type="curve"/>
	  <point x="531" y="800" type="line"/>
	  <point x="487" y="873" type="line"/>
	  <point x="426" y="835" type="line" smooth="yes"/>
	  <point x="382" y="808"/>
	  <point x="353" y="822"/>
	  <point x="263" y="914" type="curve"/>
	</contour>
	<contour>
	  <point x="273" y="543" type="move" name="_top"/>
	</contour>
  </outline>
</glyph>
<glyph name="pi" format="1">
  <advance width="786"/>
  <unicode hex="03C0"/>
  <outline>
    <contour>
      <point x="154" y="543" type="line"/>
      <point x="0" y="421" type="line"/>
      <point x="52" y="303" type="line"/>
      <point x="96" y="330"/>
      <point x="135" y="342"/>
      <point x="182" y="342" type="curve" smooth="yes"/>
      <point x="756" y="342" type="line"/>
      <point x="756" y="543" type="line"/>
    </contour>
    <contour>
      <point x="192" y="543" type="line"/>
      <point x="192" y="191" type="line" smooth="yes"/>
      <point x="192" y="156"/>
      <point x="169" y="108"/>
      <point x="134" y="69" type="curve"/>
      <point x="134" y="0" type="line"/>
      <point x="372" y="0" type="line"/>
      <point x="372" y="543" type="line"/>
    </contour>
    <contour>
      <point x="474" y="543" type="line"/>
      <point x="474" y="-10" type="line"/>
      <point x="552" y="-10" type="line"/>
      <point x="712" y="59" type="line"/>
      <point x="677" y="98"/>
      <point x="654" y="146"/>
      <point x="654" y="181" type="curve" smooth="yes"/>
      <point x="654" y="543" type="line"/>
    </contour>
  </outline>
</glyph>
<glyph name="candraBindu-deva" format="1">
  <advance width="836"/>
  <unicode hex="0901"/>
  <outline>
    <component base="eCandraMatra-deva"/>
    <component base="anusvara-deva" xOffset="284" yOffset="209"/>
    <contour>
      <point x="64" y="1158" type="move" name="_left"/>
    </contour>
    <contour>
      <point x="327" y="1275" type="move" name="top"/>
    </contour>
    <contour>
      <point x="327" y="786" type="move" name="_top"/>
    </contour>
  </outline>
</glyph>
<glyph name="anusvara-deva" format="1">
  <advance width="280"/>
  <unicode hex="0902"/>
  <outline>
    <contour>
      <point x="40" y="1160" type="line"/>
      <point x="40" y="1002" type="line"/>
      <point x="162" y="955" type="line"/>
      <point x="240" y="955" type="line"/>
      <point x="240" y="1113" type="line"/>
      <point x="118" y="1160" type="line"/>
    </contour>
    <contour>
      <point x="143" y="1057" type="move" name="_anusvara"/>
    </contour>
    <contour>
      <point x="40" y="786" type="move" name="_top"/>
    </contour>
  </outline>
</glyph>
<glyph name="visarga-deva" format="1">
  <advance width="280"/>
  <unicode hex="0903"/>
  <outline>
    <contour>
      <point x="40" y="545" type="line"/>
      <point x="40" y="387" type="line"/>
      <point x="162" y="340" type="line"/>
      <point x="240" y="340" type="line"/>
      <point x="240" y="498" type="line"/>
      <point x="118" y="545" type="line"/>
    </contour>
    <contour>
      <point x="40" y="265" type="line"/>
      <point x="40" y="107" type="line"/>
      <point x="162" y="60" type="line"/>
      <point x="240" y="60" type="line"/>
      <point x="240" y="218" type="line"/>
      <point x="118" y="265" type="line"/>
    </contour>
    <contour>
      <point x="-235" y="786" type="line"/>
      <point x="-235" y="708" type="line"/>
      <point x="-60" y="616" type="line"/>
      <point x="344" y="616" type="line"/>
      <point x="344" y="694" type="line"/>
      <point x="169" y="786" type="line"/>
    </contour>
  </outline>
</glyph>
<glyph name="adeva" format="1">
  <advance width="1123"/>
  <unicode hex="0905"/>
  <outline>
    <contour>
      <point x="248" y="796"/>
      <point x="132" y="764"/>
      <point x="75" y="710" type="curve"/>
      <point x="75" y="632" type="line"/>
      <point x="250" y="540" type="line"/>
      <point x="287" y="602"/>
      <point x="340" y="646"/>
      <point x="390" y="646" type="curve" smooth="yes"/>
      <point x="424" y="646"/>
      <point x="437" y="622"/>
      <point x="437" y="573" type="curve" smooth="yes"/>
      <point x="437" y="524"/>
      <point x="393" y="482"/>
      <point x="308" y="459" type="curve"/>
      <point x="308" y="381" type="line"/>
      <point x="483" y="289" type="line"/>
      <point x="601" y="345"/>
      <point x="652" y="438"/>
      <point x="652" y="521" type="curve" smooth="yes"/>
      <point x="652" y="648"/>
      <point x="484" y="796"/>
      <point x="334" y="796" type="curve" smooth="yes"/>
    </contour>
    <contour>
      <point x="862" y="435"/>
      <point x="843" y="398"/>
      <point x="773" y="398" type="curve" smooth="yes"/>
      <point x="716" y="398"/>
      <point x="671" y="420"/>
      <point x="630" y="455" type="curve"/>
      <point x="577" y="391" type="line"/>
      <point x="646" y="326"/>
      <point x="730" y="290"/>
      <point x="832" y="290" type="curve" smooth="yes"/>
      <point x="975" y="290"/>
      <point x="1058" y="361"/>
      <point x="1058" y="448" type="curve"/>
      <point x="862" y="456" type="line"/>
    </contour>
    <contour>
      <point x="400" y="340" type="line"/>
      <point x="475" y="279"/>
      <point x="512" y="228"/>
      <point x="512" y="196" type="curve" smooth="yes"/>
      <point x="512" y="160"/>
      <point x="469" y="134"/>
      <point x="434" y="134" type="curve" smooth="yes"/>
      <point x="358" y="134"/>
      <point x="313" y="160"/>
      <point x="249" y="219" type="curve" smooth="yes"/>
      <point x="107" y="350" type="line"/>
      <point x="45" y="295" type="line"/>
      <point x="355" y="9" type="line"/>
      <point x="420" y="-8"/>
      <point x="478" y="-10"/>
      <point x="528" y="-10" type="curve" smooth="yes"/>
      <point x="642" y="-10"/>
      <point x="736" y="70"/>
      <point x="736" y="139" type="curve" smooth="yes"/>
      <point x="736" y="201"/>
      <point x="671" y="273"/>
      <point x="469" y="379" type="curve"/>
    </contour>
    <component base="uni093E" xOffset="764"/>
  </outline>
</glyph>
<glyph name="ideva" format="1">
  <advance width="739"/>
  <unicode hex="0907"/>
  <outline>
    <contour>
      <point x="72" y="44" type="line"/>
      <point x="275" y="-122" type="line" smooth="yes"/>
      <point x="395" y="-221"/>
      <point x="503" y="-264"/>
      <point x="631" y="-264" type="curve" smooth="yes"/>
      <point x="677" y="-264"/>
      <point x="724" y="-259"/>
      <point x="764" y="-251" type="curve"/>
      <point x="764" y="-173" type="line"/>
      <point x="607" y="-91" type="line"/>
      <point x="578" y="-100"/>
      <point x="549" y="-104"/>
      <point x="513" y="-104" type="curve" smooth="yes"/>
      <point x="424" y="-104"/>
      <point x="353" y="-78"/>
      <point x="282" y="-20" type="curve" smooth="yes"/>
      <point x="134" y="99" type="line"/>
    </contour>
    <component base="ddadeva"/>
  </outline>
</glyph>
<glyph name="iideva" format="1">
  <advance width="869"/>
  <unicode hex="0908"/>
  <outline>
    <contour>
      <point x="454" y="1135"/>
      <point x="342" y="1037"/>
      <point x="342" y="931" type="curve" smooth="yes"/>
      <point x="342" y="813"/>
      <point x="500" y="732"/>
      <point x="623" y="732" type="curve"/>
      <point x="618" y="786" type="line"/>
      <point x="578" y="786"/>
      <point x="552" y="813"/>
      <point x="552" y="863" type="curve" smooth="yes"/>
      <point x="552" y="933"/>
      <point x="591" y="990"/>
      <point x="670" y="990" type="curve" smooth="yes"/>
      <point x="711" y="990"/>
      <point x="774" y="976"/>
      <point x="872" y="938" type="curve"/>
      <point x="902" y="1006" type="line"/>
      <point x="765" y="1116" type="line"/>
      <point x="708" y="1133"/>
      <point x="656" y="1135"/>
      <point x="612" y="1135" type="curve" smooth="yes"/>
    </contour>
    <component base="ideva"/>
  </outline>
</glyph>
<glyph name="udeva" format="1">
  <advance width="791"/>
  <unicode hex="0909"/>
  <outline>
    <contour>
      <point x="416" y="343" type="line"/>
      <point x="524" y="312"/>
      <point x="558" y="271"/>
      <point x="558" y="242" type="curve" smooth="yes"/>
      <point x="558" y="192"/>
      <point x="464" y="130"/>
      <point x="391" y="132" type="curve" smooth="yes"/>
      <point x="339" y="133"/>
      <point x="253" y="159"/>
      <point x="183" y="196" type="curve" smooth="yes"/>
      <point x="37" y="272" type="line"/>
      <point x="-1" y="200" type="line"/>
      <point x="366" y="9" type="line"/>
      <point x="396" y="-2"/>
      <point x="441" y="-10"/>
      <point x="471" y="-10" type="curve" smooth="yes"/>
      <point x="592" y="-10"/>
      <point x="774" y="122"/>
      <point x="774" y="209" type="curve" smooth="yes"/>
      <point x="774" y="275"/>
      <point x="658" y="358"/>
      <point x="487" y="415" type="curve"/>
    </contour>
    <contour>
      <point x="324" y="616" type="line"/>
      <point x="351" y="616"/>
      <point x="365" y="595"/>
      <point x="365" y="554" type="curve" smooth="yes"/>
      <point x="365" y="501"/>
      <point x="342" y="473"/>
      <point x="299" y="473" type="curve" smooth="yes"/>
      <point x="286" y="473"/>
      <point x="267" y="475"/>
      <point x="248" y="479" type="curve"/>
      <point x="248" y="401" type="line"/>
      <point x="415" y="309" type="line"/>
      <point x="515" y="334"/>
      <point x="581" y="407"/>
      <point x="581" y="494" type="curve" smooth="yes"/>
      <point x="581" y="621"/>
      <point x="418" y="748"/>
      <point x="254" y="748" type="curve"/>
    </contour>
    <contour>
      <point x="-123" y="786" type="line"/>
      <point x="-123" y="708" type="line"/>
      <point x="54" y="616" type="line"/>
      <point x="914" y="616" type="line"/>
      <point x="914" y="694" type="line"/>
      <point x="737" y="786" type="line"/>
    </contour>
  </outline>
</glyph>
<glyph name="uu-deva" format="1">
  <advance width="1178"/>
  <unicode hex="090A"/>
  <outline>
    <contour>
      <point x="1054" y="129"/>
      <point x="1119" y="201"/>
      <point x="1119" y="292" type="curve" smooth="yes"/>
      <point x="1119" y="434"/>
      <point x="931" y="543"/>
      <point x="792" y="543" type="curve" smooth="yes"/>
      <point x="624" y="543"/>
      <point x="568" y="434"/>
      <point x="477" y="319" type="curve"/>
      <point x="660" y="228" type="line"/>
      <point x="740" y="322"/>
      <point x="785" y="411"/>
      <point x="862" y="411" type="curve" smooth="yes"/>
      <point x="889" y="411"/>
      <point x="903" y="390"/>
      <point x="903" y="350" type="curve" smooth="yes"/>
      <point x="903" y="299"/>
      <point x="881" y="268"/>
      <point x="841" y="268" type="curve" smooth="yes"/>
      <point x="823" y="268"/>
      <point x="807" y="270"/>
      <point x="786" y="274" type="curve"/>
      <point x="786" y="196" type="line"/>
      <point x="953" y="104" type="line"/>
    </contour>
    <contour>
      <point x="295" y="786" type="line"/>
      <point x="295" y="708" type="line"/>
      <point x="471" y="616" type="line"/>
      <point x="1343" y="616" type="line"/>
      <point x="1343" y="694" type="line"/>
      <point x="1167" y="786" type="line"/>
    </contour>
    <component base="u-deva"/>
  </outline>
</glyph>
<glyph name="edeva" format="1">
  <advance width="839"/>
  <unicode hex="090F"/>
  <outline>
    <contour>
      <point x="46" y="672"/>
      <point x="42" y="636"/>
      <point x="42" y="593" type="curve" smooth="yes"/>
      <point x="42" y="509"/>
      <point x="87" y="436"/>
      <point x="197" y="340" type="curve" smooth="yes"/>
      <point x="492" y="81" type="line" smooth="yes"/>
      <point x="572" y="10"/>
      <point x="619" y="-100"/>
      <point x="619" y="-217" type="curve"/>
      <point x="741" y="-264" type="line"/>
      <point x="819" y="-264" type="line"/>
      <point x="815" y="-129"/>
      <point x="744" y="-7"/>
      <point x="592" y="126" type="curve" smooth="yes"/>
      <point x="344" y="342" type="line" smooth="yes"/>
      <point x="282" y="396"/>
      <point x="254" y="463"/>
      <point x="254" y="555" type="curve" smooth="yes"/>
      <point x="254" y="597"/>
      <point x="260" y="632"/>
      <point x="275" y="672" type="curve"/>
      <point x="52" y="684" type="line"/>
    </contour>
    <contour>
      <point x="448" y="786" type="line"/>
      <point x="468" y="718"/>
      <point x="486" y="611"/>
      <point x="486" y="559" type="curve" smooth="yes"/>
      <point x="486" y="516"/>
      <point x="471" y="486"/>
      <point x="444" y="473" type="curve"/>
      <point x="444" y="395" type="line"/>
      <point x="611" y="303" type="line"/>
      <point x="666" y="333"/>
      <point x="697" y="397"/>
      <point x="697" y="481" type="curve" smooth="yes"/>
      <point x="697" y="563"/>
      <point x="677" y="687"/>
      <point x="648" y="786" type="curve"/>
    </contour>
    <contour>
      <point x="-165" y="786" type="line"/>
      <point x="-165" y="708" type="line"/>
      <point x="12" y="616" type="line"/>
      <point x="1004" y="616" type="line"/>
      <point x="1004" y="694" type="line"/>
      <point x="827" y="786" type="line"/>
    </contour>
    <contour>
      <point x="555" y="786" type="move" name="top"/>
    </contour>
  </outline>
</glyph>
<glyph name="kadeva" format="1">
  <advance width="1077"/>
  <unicode hex="0915"/>
  <outline>
    <contour>
      <point x="553" y="543"/>
      <point x="509" y="462"/>
      <point x="436" y="359" type="curve" smooth="yes"/>
      <point x="402" y="316"/>
      <point x="369" y="248"/>
      <point x="316" y="248" type="curve" smooth="yes"/>
      <point x="289" y="248"/>
      <point x="275" y="269"/>
      <point x="275" y="309" type="curve" smooth="yes"/>
      <point x="275" y="360"/>
      <point x="297" y="391"/>
      <point x="337" y="391" type="curve" smooth="yes"/>
      <point x="355" y="391"/>
      <point x="371" y="389"/>
      <point x="392" y="385" type="curve"/>
      <point x="392" y="463" type="line"/>
      <point x="225" y="555" type="line"/>
      <point x="124" y="530"/>
      <point x="59" y="458"/>
      <point x="59" y="367" type="curve" smooth="yes"/>
      <point x="59" y="225"/>
      <point x="247" y="116"/>
      <point x="386" y="116" type="curve" smooth="yes"/>
      <point x="524" y="116"/>
      <point x="568" y="205"/>
      <point x="641" y="300" type="curve" smooth="yes"/>
      <point x="675" y="344"/>
      <point x="708" y="411"/>
      <point x="761" y="411" type="curve" smooth="yes"/>
      <point x="788" y="411"/>
      <point x="802" y="390"/>
      <point x="802" y="350" type="curve" smooth="yes"/>
      <point x="802" y="299"/>
      <point x="780" y="268"/>
      <point x="740" y="268" type="curve" smooth="yes"/>
      <point x="722" y="268"/>
      <point x="706" y="270"/>
      <point x="685" y="274" type="curve"/>
      <point x="685" y="196" type="line"/>
      <point x="852" y="104" type="line"/>
      <point x="953" y="129"/>
      <point x="1018" y="201"/>
      <point x="1018" y="292" type="curve" smooth="yes"/>
      <point x="1018" y="434"/>
      <point x="830" y="543"/>
      <point x="691" y="543" type="curve" smooth="yes"/>
    </contour>
    <contour>
      <point x="438" y="786" type="line"/>
      <point x="438" y="37" type="line"/>
      <point x="560" y="-10" type="line"/>
      <point x="638" y="-10" type="line"/>
      <point x="638" y="786" type="line"/>
    </contour>
    <contour>
      <point x="-165" y="786" type="line"/>
      <point x="-165" y="708" type="line"/>
      <point x="2" y="616" type="line"/>
      <point x="1242" y="616" type="line"/>
      <point x="1242" y="694" type="line"/>
      <point x="1075" y="786" type="line"/>
    </contour>
  </outline>
</glyph>
<glyph name="kha-deva" format="1">
  <advance width="1336"/>
  <unicode hex="0916"/>
  <outline>
    <component base="kh-deva"/>
    <component base="aaMatra-deva" xOffset="977"/>
    <contour>
      <point x="212" y="-120" type="move" name="nukta"/>
    </contour>
    <contour>
      <point x="1075" y="0" type="move" name="bottom"/>
    </contour>
  </outline>
</glyph>
<glyph name="gadeva" format="1">
  <advance width="899"/>
  <unicode hex="0917"/>
  <outline>
    <contour>
      <point x="292" y="648" type="line"/>
      <point x="292" y="408" type="line"/>
      <point x="118" y="441"/>
      <point x="38" y="401"/>
      <point x="38" y="346" type="curve" smooth="yes"/>
      <point x="38" y="266"/>
      <point x="210" y="134"/>
      <point x="312" y="134" type="curve" smooth="yes"/>
      <point x="386" y="134"/>
      <point x="492" y="226"/>
      <point x="492" y="317" type="curve" smooth="yes"/>
      <point x="492" y="648" type="line"/>
    </contour>
    <contour>
      <point x="-57" y="786" type="line"/>
      <point x="-57" y="708" type="line"/>
      <point x="59" y="616" type="line"/>
      <point x="684" y="616" type="line"/>
      <point x="684" y="694" type="line"/>
      <point x="568" y="786" type="line"/>
    </contour>
    <component base="uni093E" xOffset="540"/>
  </outline>
</glyph>
<glyph name="gha-deva" format="1">
  <advance width="967"/>
  <unicode hex="0918"/>
  <outline>
	<component base="gh-deva"/>
	<component base="aaMatra-deva" xOffset="608"/>
	<contour>
	  <point x="622" y="247" type="move" name="leg"/>
	</contour>
  </outline>
</glyph>
<glyph name="nga-deva" format="1">
  <advance width="959"/>
  <unicode hex="0919"/>
  <outline>
    <contour>
      <point x="771" y="525" type="line"/>
      <point x="771" y="367" type="line"/>
      <point x="893" y="320" type="line"/>
      <point x="971" y="320" type="line"/>
      <point x="971" y="478" type="line"/>
      <point x="849" y="525" type="line"/>
    </contour>
    <contour>
      <point x="475" y="786" type="line"/>
      <point x="475" y="708" type="line"/>
      <point x="652" y="616" type="line"/>
      <point x="1134" y="616" type="line"/>
      <point x="1134" y="694" type="line"/>
      <point x="957" y="786" type="line"/>
    </contour>
    <component base="dda-deva"/>
  </outline>
</glyph>
<glyph name="cadeva" format="1">
  <advance width="929"/>
  <unicode hex="091A"/>
  <outline>
    <component base="uni091A094D"/>
    <component base="uni093E" xOffset="570"/>
    <contour>
      <point x="302" y="0" type="move" name="nukta"/>
    </contour>
  </outline>
</glyph>
<glyph name="cha-deva" format="1">
  <advance width="1116"/>
  <unicode hex="091B"/>
  <outline>
    <contour>
      <point x="736" y="786" type="line"/>
      <point x="736" y="513" type="line"/>
      <point x="936" y="466" type="line"/>
      <point x="936" y="786" type="line"/>
    </contour>
    <component base="ch-deva"/>
  </outline>
</glyph>
<glyph name="ttadeva" format="1">
  <advance width="921"/>
  <unicode hex="091F"/>
  <outline>
    <contour>
      <point x="426" y="633" type="line"/>
      <point x="441" y="618"/>
      <point x="454" y="603"/>
      <point x="454" y="588" type="curve" smooth="yes"/>
      <point x="454" y="545"/>
      <point x="112" y="487"/>
      <point x="112" y="289" type="curve" smooth="yes"/>
      <point x="112" y="121"/>
      <point x="348" y="-10"/>
      <point x="523" y="-10" type="curve" smooth="yes"/>
      <point x="718" y="-10"/>
      <point x="853" y="97"/>
      <point x="853" y="234" type="curve"/>
      <point x="673" y="333" type="line"/>
      <point x="637" y="281" type="line"/>
      <point x="637" y="193"/>
      <point x="580" y="124"/>
      <point x="465" y="124" type="curve" smooth="yes"/>
      <point x="381" y="124"/>
      <point x="328" y="162"/>
      <point x="328" y="241" type="curve" smooth="yes"/>
      <point x="328" y="398"/>
      <point x="680" y="436"/>
      <point x="680" y="524" type="curve" smooth="yes"/>
      <point x="680" y="592"/>
      <point x="532" y="670"/>
      <point x="433" y="715" type="curve"/>
    </contour>
    <contour>
      <point x="-165" y="786" type="line"/>
      <point x="-165" y="708" type="line"/>
      <point x="2" y="616" type="line"/>
      <point x="1046" y="616" type="line"/>
      <point x="1046" y="694" type="line"/>
      <point x="879" y="786" type="line"/>
    </contour>
  </outline>
</glyph>
<glyph name="ttha-deva" format="1">
  <advance width="885"/>
  <unicode hex="0920"/>
  <outline>
	<contour>
	  <point x="460" y="419" type="line"/>
	  <point x="551" y="419"/>
	  <point x="597" y="381"/>
	  <point x="597" y="312" type="curve" smooth="yes"/>
	  <point x="597" y="185"/>
	  <point x="523" y="104"/>
	  <point x="383" y="104" type="curve" smooth="yes"/>
	  <point x="318" y="104"/>
	  <point x="278" y="146"/>
	  <point x="278" y="201" type="curve" smooth="yes"/>
	  <point x="278" y="312"/>
	  <point x="346" y="363"/>
	  <point x="427" y="363" type="curve" smooth="yes"/>
	  <point x="551" y="363" type="line"/>
	  <point x="551" y="533" type="line"/>
	  <point x="339" y="533" type="line" smooth="yes"/>
	  <point x="210" y="533"/>
	  <point x="72" y="437"/>
	  <point x="72" y="309" type="curve" smooth="yes"/>
	  <point x="72" y="151"/>
	  <point x="280" y="-10"/>
	  <point x="483" y="-10" type="curve" smooth="yes"/>
	  <point x="673" y="-10"/>
	  <point x="813" y="93"/>
	  <point x="813" y="234" type="curve" smooth="yes"/>
	  <point x="813" y="392"/>
	  <point x="605" y="553"/>
	  <point x="402" y="553" type="curve"/>
	</contour>
	<contour>
	  <point x="351" y="786" type="line"/>
	  <point x="351" y="496" type="line"/>
	  <point x="473" y="449" type="line"/>
	  <point x="551" y="449" type="line"/>
	  <point x="551" y="786" type="line"/>
	</contour>
	<contour>
	  <point x="-165" y="786" type="line"/>
	  <point x="-165" y="708" type="line"/>
	  <point x="2" y="616" type="line"/>
	  <point x="1050" y="616" type="line"/>
	  <point x="1050" y="694" type="line"/>
	  <point x="883" y="786" type="line"/>
	</contour>
	<contour>
	  <point x="859" y="63" type="move" name="halant"/>
	</contour>
	<contour>
	  <point x="120" y="-141" type="move" name="nukta"/>
	</contour>
	<contour>
	  <point x="351" y="786" type="move" name="top"/>
	</contour>
	<contour>
	  <point x="351" y="0" type="move" name="bottom"/>
	</contour>
  </outline>
</glyph>
<glyph name="ddadeva" format="1">
  <advance width="839"/>
  <unicode hex="0921"/>
  <outline>
    <contour>
      <point x="336" y="573" type="line" smooth="yes"/>
      <point x="246" y="573"/>
      <point x="151" y="499"/>
      <point x="151" y="429" type="curve" smooth="yes"/>
      <point x="151" y="343"/>
      <point x="319" y="231"/>
      <point x="509" y="190" type="curve"/>
      <point x="522" y="212"/>
      <point x="537" y="223"/>
      <point x="554" y="223" type="curve" smooth="yes"/>
      <point x="573" y="223"/>
      <point x="591" y="209"/>
      <point x="591" y="194" type="curve" smooth="yes"/>
      <point x="591" y="164"/>
      <point x="524" y="142"/>
      <point x="419" y="142" type="curve" smooth="yes"/>
      <point x="371" y="142"/>
      <point x="293" y="158"/>
      <point x="215" y="221" type="curve" smooth="yes"/>
      <point x="66" y="341" type="line"/>
      <point x="13" y="278" type="line"/>
      <point x="359" y="-2" type="line"/>
      <point x="380" y="-6"/>
      <point x="431" y="-10"/>
      <point x="465" y="-10" type="curve" smooth="yes"/>
      <point x="648" y="-10"/>
      <point x="816" y="60"/>
      <point x="816" y="132" type="curve" smooth="yes"/>
      <point x="816" y="227"/>
      <point x="619" y="353"/>
      <point x="469" y="353" type="curve" smooth="yes"/>
      <point x="424" y="353"/>
      <point x="388" y="345"/>
      <point x="299" y="317" type="curve"/>
      <point x="418" y="280" type="line"/>
      <point x="387" y="301"/>
      <point x="366" y="333"/>
      <point x="366" y="360" type="curve" smooth="yes"/>
      <point x="366" y="383"/>
      <point x="388" y="403"/>
      <point x="412" y="403" type="curve" smooth="yes"/>
      <point x="698" y="403" type="line"/>
      <point x="698" y="573" type="line"/>
    </contour>
    <contour>
      <point x="-165" y="786" type="line"/>
      <point x="-165" y="708" type="line"/>
      <point x="12" y="616" type="line"/>
      <point x="966" y="616" type="line"/>
      <point x="966" y="694" type="line"/>
      <point x="789" y="786" type="line"/>
    </contour>
    <contour>
      <point x="498" y="786" type="line"/>
      <point x="498" y="536" type="line"/>
      <point x="620" y="489" type="line"/>
      <point x="698" y="489" type="line"/>
      <point x="698" y="786" type="line"/>
    </contour>
    <contour>
      <point x="807" y="-10" type="move" name="halant"/>
    </contour>
    <contour>
      <point x="170" y="-141" type="move" name="nukta"/>
    </contour>
    <contour>
      <point x="498" y="786" type="move" name="top"/>
    </contour>
    <contour>
      <point x="457" y="0" type="move" name="bottom"/>
    </contour>
  </outline>
</glyph>
<glyph name="ddhadeva" format="1">
  <advance width="921"/>
  <unicode hex="0922"/>
  <outline>
    <contour>
      <point x="-165" y="786" type="line"/>
      <point x="-165" y="708" type="line"/>
      <point x="2" y="616" type="line"/>
      <point x="1046" y="616" type="line"/>
      <point x="1046" y="694" type="line"/>
      <point x="879" y="786" type="line"/>
    </contour>
    <contour>
      <point x="746" y="-10"/>
      <point x="823" y="45"/>
      <point x="823" y="139" type="curve" smooth="yes"/>
      <point x="823" y="266"/>
      <point x="681" y="375"/>
      <point x="556" y="375" type="curve" smooth="yes"/>
      <point x="479" y="375"/>
      <point x="406" y="333"/>
      <point x="406" y="267" type="curve" smooth="yes"/>
      <point x="406" y="187"/>
      <point x="511" y="98"/>
      <point x="659" y="98" type="curve" smooth="yes"/>
      <point x="686" y="98"/>
      <point x="738" y="101"/>
      <point x="768" y="123" type="curve"/>
      <point x="723" y="291" type="line"/>
      <point x="705" y="236"/>
      <point x="697" y="168"/>
      <point x="662" y="168" type="curve" smooth="yes"/>
      <point x="643" y="168"/>
      <point x="622" y="189"/>
      <point x="622" y="217" type="curve" smooth="yes"/>
      <point x="622" y="236"/>
      <point x="631" y="250"/>
      <point x="643" y="250" type="curve" smooth="yes"/>
      <point x="664" y="250"/>
      <point x="683" y="207"/>
      <point x="683" y="187" type="curve" smooth="yes"/>
      <point x="683" y="150"/>
      <point x="617" y="124"/>
      <point x="511" y="124" type="curve" smooth="yes"/>
      <point x="383" y="124"/>
      <point x="318" y="162"/>
      <point x="318" y="235" type="curve" smooth="yes"/>
      <point x="318" y="406"/>
      <point x="670" y="430"/>
      <point x="670" y="527" type="curve" smooth="yes"/>
      <point x="670" y="590"/>
      <point x="521" y="671"/>
      <point x="423" y="715" type="curve"/>
      <point x="416" y="633" type="line"/>
      <point x="431" y="618"/>
      <point x="444" y="601"/>
      <point x="444" y="591" type="curve" smooth="yes"/>
      <point x="444" y="542"/>
      <point x="102" y="487"/>
      <point x="102" y="291" type="curve" smooth="yes"/>
      <point x="102" y="157"/>
      <point x="260" y="-10"/>
      <point x="569" y="-10" type="curve" smooth="yes"/>
    </contour>
  </outline>
</glyph>
<glyph name="nnadeva" format="1">
  <advance width="1049"/>
  <unicode hex="0923"/>
  <outline>
    <contour>
      <point x="463" y="786" type="line"/>
      <point x="463" y="461" type="line" smooth="yes"/>
      <point x="463" y="381"/>
      <point x="387" y="336"/>
      <point x="338" y="336" type="curve" smooth="yes"/>
      <point x="300" y="336"/>
      <point x="281" y="369"/>
      <point x="281" y="430" type="curve" smooth="yes"/>
      <point x="281" y="786" type="line"/>
      <point x="81" y="786" type="line"/>
      <point x="81" y="467" type="line" smooth="yes"/>
      <point x="81" y="325"/>
      <point x="269" y="216"/>
      <point x="408" y="216" type="curve" smooth="yes"/>
      <point x="546" y="216"/>
      <point x="663" y="325"/>
      <point x="663" y="420" type="curve" smooth="yes"/>
      <point x="663" y="786" type="line"/>
    </contour>
    <contour>
      <point x="-165" y="786" type="line"/>
      <point x="-165" y="708" type="line"/>
      <point x="12" y="616" type="line"/>
      <point x="876" y="616" type="line"/>
      <point x="876" y="694" type="line"/>
      <point x="699" y="786" type="line"/>
    </contour>
    <component base="uni093E" xOffset="690"/>
  </outline>
</glyph>
<glyph name="dadeva" format="1">
  <advance width="921"/>
  <unicode hex="0926"/>
  <outline>
    <contour>
      <point x="416" y="633" type="line"/>
      <point x="436" y="613"/>
      <point x="444" y="600"/>
      <point x="444" y="588" type="curve" smooth="yes"/>
      <point x="444" y="545"/>
      <point x="102" y="487"/>
      <point x="102" y="289" type="curve" smooth="yes"/>
      <point x="102" y="121"/>
      <point x="338" y="-10"/>
      <point x="513" y="-10" type="curve" smooth="yes"/>
      <point x="629" y="-10"/>
      <point x="724" y="28"/>
      <point x="782" y="88" type="curve"/>
      <point x="596" y="183" type="line"/>
      <point x="568" y="147"/>
      <point x="521" y="124"/>
      <point x="455" y="124" type="curve" smooth="yes"/>
      <point x="371" y="124"/>
      <point x="318" y="162"/>
      <point x="318" y="241" type="curve" smooth="yes"/>
      <point x="318" y="398"/>
      <point x="670" y="436"/>
      <point x="670" y="524" type="curve" smooth="yes"/>
      <point x="670" y="592"/>
      <point x="522" y="670"/>
      <point x="423" y="715" type="curve"/>
    </contour>
    <contour>
      <point x="531" y="38" type="line"/>
      <point x="819" y="-195" type="line"/>
      <point x="876" y="-135" type="line"/>
      <point x="593" y="93" type="line"/>
    </contour>
    <contour>
      <point x="453" y="305"/>
      <point x="417" y="273"/>
      <point x="417" y="233" type="curve" smooth="yes"/>
      <point x="417" y="153"/>
      <point x="565" y="21"/>
      <point x="651" y="21" type="curve" smooth="yes"/>
      <point x="725" y="21"/>
      <point x="831" y="113"/>
      <point x="831" y="181" type="curve" smooth="yes"/>
      <point x="831" y="261"/>
      <point x="606" y="310"/>
      <point x="528" y="307" type="curve" smooth="yes"/>
    </contour>
    <contour>
      <point x="-165" y="786" type="line"/>
      <point x="-165" y="708" type="line"/>
      <point x="2" y="616" type="line"/>
      <point x="1046" y="616" type="line"/>
      <point x="1046" y="694" type="line"/>
      <point x="879" y="786" type="line"/>
    </contour>
  </outline>
</glyph>
<glyph name="nadeva" format="1">
  <advance width="829"/>
  <unicode hex="0928"/>
  <outline>
    <contour>
      <point x="664" y="289" type="line"/>
      <point x="664" y="469" type="line"/>
      <point x="342" y="469" type="line" smooth="yes"/>
      <point x="158" y="469"/>
      <point x="88" y="449"/>
      <point x="88" y="396" type="curve" smooth="yes"/>
      <point x="88" y="317"/>
      <point x="259" y="184"/>
      <point x="362" y="184" type="curve" smooth="yes"/>
      <point x="426" y="184"/>
      <point x="502" y="284"/>
      <point x="502" y="367" type="curve"/>
      <point x="398" y="289" type="line"/>
    </contour>
    <contour>
      <point x="-57" y="786" type="line"/>
      <point x="-57" y="708" type="line"/>
      <point x="56" y="616" type="line"/>
      <point x="661" y="616" type="line"/>
      <point x="661" y="694" type="line"/>
      <point x="548" y="786" type="line"/>
    </contour>
    <component base="uni093E" xOffset="470"/>
  </outline>
</glyph>
<glyph name="uni092B" format="1">
  <advance width="1041"/>
  <unicode hex="092B"/>
  <outline>
    <contour>
      <point x="583" y="543"/>
      <point x="539" y="462"/>
      <point x="495" y="397" type="curve"/>
      <point x="643" y="264" type="line"/>
      <point x="705" y="344"/>
      <point x="738" y="411"/>
      <point x="791" y="411" type="curve" smooth="yes"/>
      <point x="818" y="411"/>
      <point x="832" y="390"/>
      <point x="832" y="350" type="curve" smooth="yes"/>
      <point x="832" y="299"/>
      <point x="810" y="268"/>
      <point x="770" y="268" type="curve" smooth="yes"/>
      <point x="752" y="268"/>
      <point x="736" y="270"/>
      <point x="715" y="274" type="curve"/>
      <point x="715" y="196" type="line"/>
      <point x="882" y="104" type="line"/>
      <point x="983" y="129"/>
      <point x="1048" y="201"/>
      <point x="1048" y="292" type="curve" smooth="yes"/>
      <point x="1048" y="434"/>
      <point x="860" y="543"/>
      <point x="721" y="543" type="curve" smooth="yes"/>
    </contour>
    <contour>
      <point x="365" y="786" type="line"/>
      <point x="365" y="708" type="line"/>
      <point x="532" y="616" type="line"/>
      <point x="1166" y="616" type="line"/>
      <point x="1166" y="694" type="line"/>
      <point x="999" y="786" type="line"/>
    </contour>
    <component base="padeva"/>
  </outline>
</glyph>
<glyph name="bhadeva" format="1">
  <advance width="929"/>
  <unicode hex="092D"/>
  <outline>
    <contour>
      <point x="754" y="239" type="line"/>
      <point x="754" y="419" type="line"/>
      <point x="332" y="419" type="line" smooth="yes"/>
      <point x="148" y="419"/>
      <point x="78" y="399"/>
      <point x="78" y="346" type="curve" smooth="yes"/>
      <point x="78" y="267"/>
      <point x="249" y="134"/>
      <point x="352" y="134" type="curve" smooth="yes"/>
      <point x="416" y="134"/>
      <point x="492" y="234"/>
      <point x="492" y="317" type="curve"/>
      <point x="388" y="239" type="line"/>
    </contour>
    <contour>
      <point x="508" y="693"/>
      <point x="344" y="806"/>
      <point x="217" y="806" type="curve" smooth="yes"/>
      <point x="107" y="806"/>
      <point x="31" y="747"/>
      <point x="31" y="670" type="curve" smooth="yes"/>
      <point x="31" y="552"/>
      <point x="219" y="459"/>
      <point x="358" y="459" type="curve" smooth="yes"/>
      <point x="411" y="459"/>
      <point x="451" y="472"/>
      <point x="483" y="494" type="curve"/>
      <point x="408" y="702" type="line"/>
      <point x="374" y="654"/>
      <point x="341" y="579"/>
      <point x="288" y="579" type="curve" smooth="yes"/>
      <point x="261" y="579"/>
      <point x="247" y="597"/>
      <point x="247" y="627" type="curve" smooth="yes"/>
      <point x="247" y="659"/>
      <point x="258" y="681"/>
      <point x="279" y="681" type="curve" smooth="yes"/>
      <point x="298" y="681"/>
      <point x="308" y="649"/>
      <point x="308" y="593" type="curve" smooth="yes"/>
      <point x="308" y="387" type="line"/>
      <point x="430" y="340" type="line"/>
      <point x="508" y="340" type="line"/>
      <point x="508" y="545" type="line" smooth="yes"/>
    </contour>
    <contour>
      <point x="668" y="786" type="line"/>
      <point x="668" y="37" type="line"/>
      <point x="790" y="-10" type="line"/>
      <point x="868" y="-10" type="line"/>
      <point x="868" y="786" type="line"/>
    </contour>
    <contour>
      <point x="493" y="786" type="line"/>
      <point x="493" y="708" type="line"/>
      <point x="668" y="616" type="line"/>
      <point x="1054" y="616" type="line"/>
      <point x="1054" y="694" type="line"/>
      <point x="879" y="786" type="line"/>
    </contour>
  </outline>
</glyph>
<glyph name="madeva" format="1">
  <advance width="876"/>
  <unicode hex="092E"/>
  <outline>
    <contour>
      <point x="225" y="786" type="line"/>
      <point x="225" y="337" type="line"/>
      <point x="347" y="290" type="line"/>
      <point x="425" y="290" type="line"/>
      <point x="425" y="786" type="line"/>
    </contour>
    <contour>
      <point x="711" y="239" type="line"/>
      <point x="711" y="419" type="line"/>
      <point x="289" y="419" type="line" smooth="yes"/>
      <point x="105" y="419"/>
      <point x="35" y="399"/>
      <point x="35" y="346" type="curve" smooth="yes"/>
      <point x="35" y="267"/>
      <point x="206" y="134"/>
      <point x="309" y="134" type="curve" smooth="yes"/>
      <point x="373" y="134"/>
      <point x="449" y="234"/>
      <point x="449" y="317" type="curve"/>
      <point x="345" y="239" type="line"/>
    </contour>
    <contour>
      <point x="-110" y="786" type="line"/>
      <point x="-110" y="708" type="line"/>
      <point x="2" y="616" type="line"/>
      <point x="707" y="616" type="line"/>
      <point x="707" y="694" type="line"/>
      <point x="595" y="786" type="line"/>
    </contour>
    <component base="uni093E" xOffset="517"/>
  </outline>
</glyph>
<glyph name="ya-deva" format="1">
  <advance width="784"/>
  <unicode hex="092F"/>
  <outline>
    <component base="y-deva"/>
    <component base="aaMatra-deva" xOffset="425"/>
    <contour>
      <point x="208" y="308" type="move" name="g-deva.leg"/>
    </contour>
  </outline>
</glyph>
<glyph name="ra-deva" format="1">
  <advance width="577"/>
  <unicode hex="0930"/>
  <outline>
	<contour>
	  <point x="273" y="676" type="line"/>
	  <point x="306" y="616"/>
	  <point x="331" y="529"/>
	  <point x="331" y="452" type="curve" smooth="yes"/>
	  <point x="331" y="417"/>
	  <point x="326" y="385"/>
	  <point x="315" y="358" type="curve"/>
	  <point x="417" y="376" type="line"/>
	  <point x="334" y="407"/>
	  <point x="258" y="422"/>
	  <point x="198" y="422" type="curve" smooth="yes"/>
	  <point x="117" y="422"/>
	  <point x="65" y="394"/>
	  <point x="65" y="340" type="curve" smooth="yes"/>
	  <point x="65" y="249"/>
	  <point x="236" y="127"/>
	  <point x="340" y="127" type="curve" smooth="yes"/>
	  <point x="439" y="127"/>
	  <point x="536" y="225"/>
	  <point x="536" y="350" type="curve" smooth="yes"/>
	  <point x="536" y="486"/>
	  <point x="479" y="623"/>
	  <point x="394" y="695" type="curve"/>
	</contour>
	<contour>
	  <point x="221" y="163" type="line"/>
	  <point x="602" y="-39" type="line"/>
	  <point x="652" y="26" type="line"/>
	  <point x="271" y="228" type="line"/>
	</contour>
	<contour>
	  <point x="-145" y="786" type="line"/>
	  <point x="-145" y="708" type="line"/>
	  <point x="32" y="616" type="line"/>
	  <point x="742" y="616" type="line"/>
	  <point x="742" y="694" type="line"/>
	  <point x="565" y="786" type="line"/>
	</contour>
	<contour>
	  <point x="262" y="0" type="move" name="halant"/>
	</contour>
	<contour>
	  <point x="292" y="-120" type="move" name="nukta"/>
	</contour>
	<contour>
	  <point x="239" y="786" type="move" name="top"/>
	</contour>
	<contour>
	  <point x="406" y="156" type="move" name="outstroke"/>
	</contour>
	<contour>
	  <point x="221" y="0" type="move" name="bottom"/>
	</contour>
  </outline>
</glyph>
<glyph name="lladeva" format="1">
  <advance width="1027"/>
  <unicode hex="0933"/>
  <outline>
    <contour>
      <point x="535" y="523"/>
      <point x="491" y="442"/>
      <point x="418" y="339" type="curve" smooth="yes"/>
      <point x="384" y="291"/>
      <point x="351" y="216"/>
      <point x="298" y="216" type="curve" smooth="yes"/>
      <point x="271" y="216"/>
      <point x="257" y="245"/>
      <point x="257" y="299" type="curve" smooth="yes"/>
      <point x="257" y="356"/>
      <point x="279" y="398"/>
      <point x="319" y="398" type="curve" smooth="yes"/>
      <point x="353" y="398"/>
      <point x="405" y="387"/>
      <point x="484" y="306" type="curve"/>
      <point x="514" y="369" type="line"/>
      <point x="337" y="515" type="line"/>
      <point x="322" y="521"/>
      <point x="301" y="523"/>
      <point x="287" y="523" type="curve" smooth="yes"/>
      <point x="141" y="523"/>
      <point x="41" y="448"/>
      <point x="41" y="347" type="curve" smooth="yes"/>
      <point x="41" y="205"/>
      <point x="229" y="96"/>
      <point x="368" y="96" type="curve" smooth="yes"/>
      <point x="506" y="96"/>
      <point x="550" y="185"/>
      <point x="623" y="280" type="curve" smooth="yes"/>
      <point x="657" y="324"/>
      <point x="690" y="391"/>
      <point x="743" y="391" type="curve" smooth="yes"/>
      <point x="770" y="391"/>
      <point x="784" y="366"/>
      <point x="784" y="320" type="curve" smooth="yes"/>
      <point x="784" y="263"/>
      <point x="762" y="221"/>
      <point x="722" y="221" type="curve" smooth="yes"/>
      <point x="688" y="221"/>
      <point x="636" y="232"/>
      <point x="557" y="313" type="curve"/>
      <point x="527" y="250" type="line"/>
      <point x="704" y="104" type="line"/>
      <point x="719" y="98"/>
      <point x="740" y="96"/>
      <point x="754" y="96" type="curve" smooth="yes"/>
      <point x="900" y="96"/>
      <point x="1000" y="171"/>
      <point x="1000" y="272" type="curve" smooth="yes"/>
      <point x="1000" y="414"/>
      <point x="812" y="523"/>
      <point x="673" y="523" type="curve" smooth="yes"/>
    </contour>
    <contour>
      <point x="-165" y="786" type="line"/>
      <point x="-165" y="708" type="line"/>
      <point x="10" y="616" type="line"/>
      <point x="1152" y="616" type="line"/>
      <point x="1152" y="694" type="line"/>
      <point x="977" y="786" type="line"/>
    </contour>
    <contour>
      <point x="606" y="786" type="line"/>
      <point x="606" y="501" type="line"/>
      <point x="728" y="454" type="line"/>
      <point x="806" y="454" type="line"/>
      <point x="806" y="786" type="line"/>
    </contour>
  </outline>
</glyph>
<glyph name="shadeva" format="1">
  <advance width="949"/>
  <unicode hex="0936"/>
  <outline>
    <contour>
      <point x="127" y="806"/>
      <point x="51" y="747"/>
      <point x="51" y="670" type="curve" smooth="yes"/>
      <point x="51" y="552"/>
      <point x="239" y="459"/>
      <point x="378" y="459" type="curve" smooth="yes"/>
      <point x="431" y="459"/>
      <point x="471" y="472"/>
      <point x="503" y="494" type="curve"/>
      <point x="428" y="702" type="line"/>
      <point x="394" y="654"/>
      <point x="361" y="579"/>
      <point x="308" y="579" type="curve" smooth="yes"/>
      <point x="281" y="579"/>
      <point x="267" y="597"/>
      <point x="267" y="627" type="curve" smooth="yes"/>
      <point x="267" y="659"/>
      <point x="278" y="681"/>
      <point x="299" y="681" type="curve" smooth="yes"/>
      <point x="326" y="681"/>
      <point x="355" y="615"/>
      <point x="328" y="408" type="curve"/>
      <point x="154" y="441"/>
      <point x="74" y="401"/>
      <point x="74" y="346" type="curve" smooth="yes"/>
      <point x="74" y="266"/>
      <point x="246" y="134"/>
      <point x="348" y="134" type="curve" smooth="yes"/>
      <point x="450" y="134"/>
      <point x="528" y="221"/>
      <point x="528" y="441" type="curve" smooth="yes"/>
      <point x="528" y="718"/>
      <point x="390" y="806"/>
      <point x="237" y="806" type="curve" smooth="yes"/>
    </contour>
    <contour>
      <point x="170" y="214" type="line"/>
      <point x="583" y="-120" type="line"/>
      <point x="640" y="-60" type="line"/>
      <point x="232" y="269" type="line"/>
    </contour>
    <contour>
      <point x="688" y="786" type="line"/>
      <point x="688" y="37" type="line"/>
      <point x="810" y="-10" type="line"/>
      <point x="888" y="-10" type="line"/>
      <point x="888" y="786" type="line"/>
    </contour>
    <contour>
      <point x="513" y="786" type="line"/>
      <point x="513" y="708" type="line"/>
      <point x="688" y="616" type="line"/>
      <point x="1074" y="616" type="line"/>
      <point x="1074" y="694" type="line"/>
      <point x="899" y="786" type="line"/>
    </contour>
  </outline>
</glyph>
<glyph name="ssadeva" format="1">
  <advance width="749"/>
  <unicode hex="0937"/>
  <outline>
    <contour>
      <point x="476" y="352" type="line"/>
      <point x="533" y="412" type="line"/>
      <point x="250" y="640" type="line"/>
      <point x="188" y="585" type="line"/>
    </contour>
    <component base="padeva"/>
  </outline>
</glyph>
<glyph name="sadeva" format="1">
  <advance width="876"/>
  <unicode hex="0938"/>
  <outline>
    <contour>
      <point x="130" y="214" type="line"/>
      <point x="543" y="-120" type="line"/>
      <point x="600" y="-60" type="line"/>
      <point x="192" y="269" type="line"/>
    </contour>
    <component base="madeva"/>
  </outline>
</glyph>
<glyph name="hadeva" format="1">
  <advance width="881"/>
  <unicode hex="0939"/>
  <outline>
    <contour>
      <point x="426" y="633" type="line"/>
      <point x="441" y="618"/>
      <point x="454" y="603"/>
      <point x="454" y="588" type="curve" smooth="yes"/>
      <point x="454" y="563"/>
      <point x="112" y="529"/>
      <point x="112" y="419" type="curve" smooth="yes"/>
      <point x="112" y="287"/>
      <point x="348" y="180"/>
      <point x="523" y="180" type="curve"/>
      <point x="465" y="314" type="line"/>
      <point x="381" y="314"/>
      <point x="328" y="334"/>
      <point x="328" y="371" type="curve" smooth="yes"/>
      <point x="328" y="455"/>
      <point x="680" y="475"/>
      <point x="680" y="524" type="curve" smooth="yes"/>
      <point x="680" y="592"/>
      <point x="532" y="670"/>
      <point x="433" y="715" type="curve"/>
    </contour>
    <contour>
      <point x="-165" y="786" type="line"/>
      <point x="-165" y="708" type="line"/>
      <point x="2" y="616" type="line"/>
      <point x="1046" y="616" type="line"/>
      <point x="1046" y="694" type="line"/>
      <point x="879" y="786" type="line"/>
    </contour>
    <contour>
      <point x="552" y="174"/>
      <point x="566" y="159"/>
      <point x="566" y="131" type="curve" smooth="yes"/>
      <point x="566" y="80"/>
      <point x="514" y="48"/>
      <point x="452" y="33" type="curve"/>
      <point x="596" y="-96" type="line"/>
      <point x="695" y="-60"/>
      <point x="781" y="3"/>
      <point x="781" y="79" type="curve" smooth="yes"/>
      <point x="781" y="176"/>
      <point x="613" y="294"/>
      <point x="463" y="294" type="curve" smooth="yes"/>
      <point x="334" y="294"/>
      <point x="194" y="200"/>
      <point x="194" y="86" type="curve" smooth="yes"/>
      <point x="194" y="36"/>
      <point x="196" y="-22"/>
      <point x="213" y="-87" type="curve"/>
      <point x="499" y="-397" type="line"/>
      <point x="554" y="-335" type="line"/>
      <point x="423" y="-193" type="line" smooth="yes"/>
      <point x="364" y="-129"/>
      <point x="338" y="-84"/>
      <point x="338" y="-8" type="curve" smooth="yes"/>
      <point x="338" y="74"/>
      <point x="414" y="174"/>
      <point x="519" y="174" type="curve" smooth="yes"/>
    </contour>
  </outline>
</glyph>
<glyph name="oeMatra-deva" format="1">
  <advance width="320"/>
  <unicode hex="093A"/>
  <outline>
	<contour>
	  <point x="60" y="1185" type="line"/>
	  <point x="138" y="1185" type="line"/>
	  <point x="260" y="1138" type="line"/>
	  <point x="260" y="698" type="line"/>
	  <point x="182" y="698" type="line"/>
	  <point x="60" y="745" type="line"/>
	</contour>
	<contour>
	  <point x="60" y="786" type="move" name="_top"/>
	</contour>
  </outline>
</glyph>
<glyph name="avagraha-deva" format="1">
  <advance width="767"/>
  <unicode hex="093D"/>
  <outline>
    <contour>
      <point x="444" y="786" type="line" smooth="yes"/>
      <point x="327" y="786"/>
      <point x="161" y="669"/>
      <point x="161" y="586" type="curve" smooth="yes"/>
      <point x="161" y="460"/>
      <point x="534" y="328"/>
      <point x="534" y="226" type="curve" smooth="yes"/>
      <point x="534" y="185"/>
      <point x="469" y="142"/>
      <point x="406" y="142" type="curve" smooth="yes"/>
      <point x="351" y="142"/>
      <point x="278" y="172"/>
      <point x="217" y="221" type="curve" smooth="yes"/>
      <point x="68" y="341" type="line"/>
      <point x="15" y="278" type="line"/>
      <point x="361" y="-2" type="line"/>
      <point x="389" y="-7"/>
      <point x="417" y="-9"/>
      <point x="443" y="-9" type="curve" smooth="yes"/>
      <point x="587" y="-9"/>
      <point x="750" y="98"/>
      <point x="750" y="193" type="curve" smooth="yes"/>
      <point x="750" y="313"/>
      <point x="377" y="433"/>
      <point x="377" y="538" type="curve" smooth="yes"/>
      <point x="377" y="578"/>
      <point x="440" y="618"/>
      <point x="504" y="618" type="curve" smooth="yes"/>
      <point x="917" y="616" type="line"/>
      <point x="917" y="694" type="line"/>
      <point x="742" y="786" type="line"/>
    </contour>
    <contour>
      <point x="424" y="786" type="move" name="top"/>
    </contour>
    <contour>
      <point x="419" y="0" type="move" name="bottom"/>
    </contour>
  </outline>
</glyph>
<glyph name="uni093E" format="1">
  <advance width="359"/>
  <unicode hex="093E"/>
  <outline>
    <contour>
      <point x="98" y="786" type="line"/>
      <point x="98" y="37" type="line"/>
      <point x="220" y="-10" type="line"/>
      <point x="298" y="-10" type="line"/>
      <point x="298" y="786" type="line"/>
    </contour>
    <contour>
      <point x="-165" y="786" type="line"/>
      <point x="-165" y="708" type="line"/>
      <point x="10" y="616" type="line"/>
      <point x="484" y="616" type="line"/>
      <point x="484" y="694" type="line"/>
      <point x="309" y="786" type="line"/>
    </contour>
    <contour>
      <point x="200" y="786" type="move" name="top"/>
    </contour>
    <contour>
      <point x="200" y="0" type="move" name="bottom"/>
    </contour>
  </outline>
</glyph>
<glyph name="uni093F" format="1">
  <advance width="359"/>
  <unicode hex="093F"/>
  <outline>
    <contour>
      <point x="298" y="1084"/>
      <point x="152" y="966"/>
      <point x="80" y="701" type="curve"/>
      <point x="290" y="672" type="line"/>
      <point x="330" y="848"/>
      <point x="429" y="914"/>
      <point x="622" y="914" type="curve" smooth="yes"/>
      <point x="778" y="914"/>
      <point x="903" y="871"/>
      <point x="1097" y="721" type="curve"/>
      <point x="1159" y="776" type="line"/>
      <point x="863" y="1020"/>
      <point x="718" y="1084"/>
      <point x="540" y="1084" type="curve" smooth="yes"/>
    </contour>
    <contour>
      <point x="98" y="786" type="line"/>
      <point x="98" y="37" type="line"/>
      <point x="220" y="-10" type="line"/>
      <point x="298" y="-10" type="line"/>
      <point x="298" y="786" type="line"/>
    </contour>
    <contour>
      <point x="-165" y="786" type="line"/>
      <point x="-165" y="708" type="line"/>
      <point x="10" y="616" type="line"/>
      <point x="186" y="616" type="line"/>
      <point x="189" y="786" type="line"/>
    </contour>
    <contour>
      <point x="1022" y="786" type="move" name="top"/>
    </contour>
    <contour>
      <point x="98" y="0" type="move" name="bottom"/>
    </contour>
  </outline>
</glyph>
<glyph name="iiMatra-deva" format="1">
  <advance width="359"/>
  <unicode hex="0940"/>
  <outline>
    <component base="aaMatra-deva"/>
    <component base="velanti-deva" xOffset="-909"/>
    <contour>
      <point x="-798" y="786" type="move" name="iimatra"/>
    </contour>
  </outline>
</glyph>
<glyph name="uMatra-deva" format="1">
  <advance width="680"/>
  <unicode hex="0941"/>
  <outline>
    <contour>
      <point x="295" y="-120"/>
      <point x="220" y="-136"/>
      <point x="180" y="-156" type="curve"/>
      <point x="180" y="-234" type="line"/>
      <point x="347" y="-326" type="line"/>
      <point x="370" y="-269"/>
      <point x="401" y="-234"/>
      <point x="434" y="-234" type="curve" smooth="yes"/>
      <point x="462" y="-234"/>
      <point x="480" y="-260"/>
      <point x="480" y="-291" type="curve" smooth="yes"/>
      <point x="479" y="-350"/>
      <point x="398" y="-416"/>
      <point x="303" y="-416" type="curve" smooth="yes"/>
      <point x="244" y="-416"/>
      <point x="171" y="-406"/>
      <point x="106" y="-372" type="curve" smooth="yes"/>
      <point x="59" y="-348" type="line"/>
      <point x="9" y="-413" type="line"/>
      <point x="287" y="-560" type="line"/>
      <point x="320" y="-566"/>
      <point x="351" y="-568"/>
      <point x="393" y="-568" type="curve" smooth="yes"/>
      <point x="501" y="-568"/>
      <point x="660" y="-444"/>
      <point x="660" y="-359" type="curve" smooth="yes"/>
      <point x="660" y="-227"/>
      <point x="484" y="-120"/>
      <point x="349" y="-120" type="curve" smooth="yes"/>
    </contour>
    <contour>
      <point x="291" y="0" type="move" name="_bottom"/>
    </contour>
  </outline>
</glyph>
<glyph name="uuMatra-deva" format="1">
  <advance width="700"/>
  <unicode hex="0942"/>
  <outline>
    <contour>
      <point x="223" y="-120"/>
      <point x="64" y="-244"/>
      <point x="64" y="-329" type="curve" smooth="yes"/>
      <point x="64" y="-461"/>
      <point x="240" y="-568"/>
      <point x="375" y="-568" type="curve" smooth="yes"/>
      <point x="429" y="-568"/>
      <point x="504" y="-552"/>
      <point x="544" y="-532" type="curve"/>
      <point x="544" y="-454" type="line"/>
      <point x="377" y="-362" type="line"/>
      <point x="354" y="-419"/>
      <point x="323" y="-454"/>
      <point x="290" y="-454" type="curve" smooth="yes"/>
      <point x="262" y="-454"/>
      <point x="244" y="-428"/>
      <point x="244" y="-397" type="curve" smooth="yes"/>
      <point x="245" y="-338"/>
      <point x="326" y="-272"/>
      <point x="421" y="-272" type="curve" smooth="yes"/>
      <point x="480" y="-272"/>
      <point x="553" y="-282"/>
      <point x="618" y="-316" type="curve" smooth="yes"/>
      <point x="665" y="-340" type="line"/>
      <point x="715" y="-275" type="line"/>
      <point x="437" y="-128" type="line"/>
      <point x="404" y="-122"/>
      <point x="373" y="-120"/>
      <point x="331" y="-120" type="curve" smooth="yes"/>
    </contour>
    <contour>
      <point x="258" y="0" type="move" name="_bottom"/>
    </contour>
    <contour>
      <point x="437" y="-128" type="move" name="_outstroke"/>
    </contour>
  </outline>
</glyph>
<glyph name="rVocalicMatra-deva" format="1">
  <advance width="600"/>
  <unicode hex="0943"/>
  <outline>
    <contour>
      <point x="120" y="-149"/>
      <point x="40" y="-225"/>
      <point x="40" y="-318" type="curve" smooth="yes"/>
      <point x="40" y="-458"/>
      <point x="223" y="-568"/>
      <point x="361" y="-568" type="curve" smooth="yes"/>
      <point x="422" y="-568"/>
      <point x="506" y="-546"/>
      <point x="550" y="-522" type="curve"/>
      <point x="550" y="-444" type="line"/>
      <point x="383" y="-352" type="line"/>
      <point x="343" y="-422"/>
      <point x="299" y="-467"/>
      <point x="261" y="-469" type="curve" smooth="yes"/>
      <point x="231" y="-470"/>
      <point x="215" y="-444"/>
      <point x="215" y="-403" type="curve" smooth="yes"/>
      <point x="215" y="-329"/>
      <point x="268" y="-274"/>
      <point x="368" y="-274" type="curve"/>
      <point x="368" y="-196" type="line"/>
      <point x="201" y="-104" type="line"/>
    </contour>
    <contour>
      <point x="211" y="0" type="move" name="_bottom"/>
    </contour>
    <contour>
      <point x="201" y="-104" type="move" name="_connect"/>
    </contour>
  </outline>
</glyph>
<glyph name="eCandraMatra-deva" format="1">
  <advance width="836"/>
  <unicode hex="0945"/>
  <outline>
	<contour>
	  <point x="70" y="1203" type="line"/>
	  <point x="66" y="1188"/>
	  <point x="64" y="1173"/>
	  <point x="64" y="1158" type="curve" smooth="yes"/>
	  <point x="64" y="1046"/>
	  <point x="269" y="933"/>
	  <point x="467" y="933" type="curve" smooth="yes"/>
	  <point x="652" y="933"/>
	  <point x="788" y="1016"/>
	  <point x="817" y="1127" type="curve"/>
	  <point x="637" y="1226" type="line"/>
	  <point x="601" y="1174" type="line"/>
	  <point x="562" y="1107"/>
	  <point x="498" y="1053"/>
	  <point x="397" y="1053" type="curve" smooth="yes"/>
	  <point x="320" y="1053"/>
	  <point x="280" y="1071"/>
	  <point x="280" y="1120" type="curve" smooth="yes"/>
	  <point x="280" y="1140"/>
	  <point x="283" y="1162"/>
	  <point x="287" y="1176" type="curve"/>
	  <point x="120" y="1268" type="line"/>
	</contour>
	<contour>
	  <point x="817" y="1127" type="move" name="_right"/>
	</contour>
	<contour>
	  <point x="332" y="1130" type="move" name="top"/>
	</contour>
	<contour>
	  <point x="64" y="1158" type="move" name="_left"/>
	</contour>
	<contour>
	  <point x="331" y="786" type="move" name="_top"/>
	</contour>
	<contour>
	  <point x="335" y="1266" type="move" name="anusvara"/>
	</contour>
  </outline>
</glyph>
<glyph name="eShortMatra-deva" format="1">
  <advance width="600"/>
  <unicode hex="0946"/>
  <outline>
	<contour>
	  <point x="-771" y="1208" type="line"/>
	  <point x="-604" y="1070" type="line" smooth="yes"/>
	  <point x="-485" y="972"/>
	  <point x="-376" y="928"/>
	  <point x="-248" y="928" type="curve" smooth="yes"/>
	  <point x="-158" y="928"/>
	  <point x="-104" y="954"/>
	  <point x="-21" y="954" type="curve" smooth="yes"/>
	  <point x="48" y="954"/>
	  <point x="120" y="937"/>
	  <point x="222" y="855" type="curve" smooth="yes"/>
	  <point x="389" y="721" type="line"/>
	  <point x="451" y="776" type="line"/>
	  <point x="199" y="982" type="line" smooth="yes"/>
	  <point x="79" y="1080"/>
	  <point x="-29" y="1124"/>
	  <point x="-157" y="1124" type="curve" smooth="yes"/>
	  <point x="-247" y="1124"/>
	  <point x="-301" y="1098"/>
	  <point x="-384" y="1098" type="curve" smooth="yes"/>
	  <point x="-453" y="1098"/>
	  <point x="-527" y="1116"/>
	  <point x="-627" y="1197" type="curve" smooth="yes"/>
	  <point x="-716" y="1269" type="line"/>
	</contour>
	<contour>
	  <point x="182" y="1158" type="move" name="left"/>
	</contour>
	<contour>
	  <point x="310" y="786" type="move" name="_top"/>
	</contour>
  </outline>
</glyph>
<glyph name="evowelsigndeva" format="1">
  <advance width="600"/>
  <unicode hex="0947"/>
  <outline>
    <contour>
      <point x="-117" y="1084"/>
      <point x="-164" y="1079"/>
      <point x="-204" y="1071" type="curve"/>
      <point x="-204" y="993" type="line"/>
      <point x="-47" y="911" type="line"/>
      <point x="-18" y="920"/>
      <point x="11" y="924"/>
      <point x="47" y="924" type="curve" smooth="yes"/>
      <point x="136" y="924"/>
      <point x="207" y="898"/>
      <point x="278" y="840" type="curve" smooth="yes"/>
      <point x="426" y="721" type="line"/>
      <point x="488" y="776" type="line"/>
      <point x="285" y="942" type="line" smooth="yes"/>
      <point x="165" y="1041"/>
      <point x="57" y="1084"/>
      <point x="-71" y="1084" type="curve" smooth="yes"/>
    </contour>
    <contour>
      <point x="418" y="786" type="move" name="_top"/>
    </contour>
  </outline>
</glyph>
<glyph name="halant-deva" format="1">
  <advance width="600"/>
  <unicode hex="094D"/>
  <outline>
    <contour>
      <point x="143" y="-162" type="line"/>
      <point x="524" y="-364" type="line"/>
      <point x="574" y="-299" type="line"/>
      <point x="193" y="-97" type="line"/>
    </contour>
    <contour>
      <point x="0" y="0" type="move" name="_bottom"/>
    </contour>
    <contour>
      <point x="193" y="-97" type="move" name="_halant"/>
    </contour>
  </outline>
</glyph>
<glyph name="om-deva" format="1">
  <advance width="1322"/>
  <unicode hex="0950"/>
  <outline>
	<contour>
	  <point x="238" y="796"/>
	  <point x="123" y="757"/>
	  <point x="75" y="710" type="curve"/>
	  <point x="75" y="632" type="line"/>
	  <point x="250" y="540" type="line"/>
	  <point x="288" y="604"/>
	  <point x="343" y="646"/>
	  <point x="388" y="646" type="curve" smooth="yes"/>
	  <point x="421" y="646"/>
	  <point x="437" y="624"/>
	  <point x="437" y="579" type="curve" smooth="yes"/>
	  <point x="437" y="518"/>
	  <point x="409" y="477"/>
	  <point x="348" y="449" type="curve"/>
	  <point x="348" y="371" type="line"/>
	  <point x="503" y="293"/>
	  <point x="535" y="269"/>
	  <point x="535" y="233" type="curve" smooth="yes"/>
	  <point x="535" y="185"/>
	  <point x="474" y="142"/>
	  <point x="407" y="142" type="curve" smooth="yes"/>
	  <point x="352" y="142"/>
	  <point x="277" y="173"/>
	  <point x="218" y="221" type="curve" smooth="yes"/>
	  <point x="69" y="341" type="line"/>
	  <point x="16" y="278" type="line"/>
	  <point x="362" y="-2" type="line"/>
	  <point x="390" y="-7"/>
	  <point x="418" y="-9"/>
	  <point x="444" y="-9" type="curve" smooth="yes"/>
	  <point x="586" y="-9"/>
	  <point x="751" y="99"/>
	  <point x="751" y="191" type="curve" smooth="yes"/>
	  <point x="751" y="259"/>
	  <point x="622" y="349"/>
	  <point x="447" y="404" type="curve"/>
	  <point x="557" y="336" type="line"/>
	  <point x="616" y="377"/>
	  <point x="652" y="442"/>
	  <point x="652" y="510" type="curve" smooth="yes"/>
	  <point x="652" y="652"/>
	  <point x="489" y="796"/>
	  <point x="328" y="796" type="curve" smooth="yes"/>
	</contour>
	<contour>
	  <point x="893" y="693"/>
	  <point x="830" y="643"/>
	  <point x="704" y="450" type="curve" smooth="yes"/>
	  <point x="647" y="364"/>
	  <point x="620" y="338"/>
	  <point x="585" y="338" type="curve"/>
	  <point x="655" y="206" type="line"/>
	  <point x="755" y="206"/>
	  <point x="803" y="241"/>
	  <point x="910" y="390" type="curve" smooth="yes"/>
	  <point x="1016" y="539"/>
	  <point x="1039" y="561"/>
	  <point x="1094" y="561" type="curve" smooth="yes"/>
	  <point x="1147" y="561"/>
	  <point x="1171" y="527"/>
	  <point x="1171" y="451" type="curve" smooth="yes"/>
	  <point x="1171" y="351"/>
	  <point x="1130" y="290"/>
	  <point x="1015" y="290" type="curve" smooth="yes"/>
	  <point x="990" y="290"/>
	  <point x="961" y="291"/>
	  <point x="934" y="294" type="curve"/>
	  <point x="934" y="216" type="line"/>
	  <point x="1101" y="124" type="line"/>
	  <point x="1272" y="124"/>
	  <point x="1387" y="258"/>
	  <point x="1387" y="377" type="curve" smooth="yes"/>
	  <point x="1387" y="541"/>
	  <point x="1206" y="693"/>
	  <point x="1011" y="693" type="curve" smooth="yes"/>
	</contour>
	<component base="candraBindu-deva" xOffset="360" yOffset="-75"/>
  </outline>
</glyph>
<glyph name="udatta-deva" format="1">
  <advance width="320"/>
  <unicode hex="0951"/>
  <outline>
	<contour>
	  <point x="60" y="1385" type="line"/>
	  <point x="138" y="1385" type="line"/>
	  <point x="260" y="1338" type="line"/>
	  <point x="260" y="898" type="line"/>
	  <point x="182" y="898" type="line"/>
	  <point x="60" y="945" type="line"/>
	</contour>
	<contour>
	  <point x="60" y="786" type="move" name="_top"/>
	</contour>
  </outline>
</glyph>
<glyph name="anudattadeva" format="1">
  <advance width="601"/>
  <unicode hex="0952"/>
  <outline>
    <contour>
      <point x="-110" y="-55" type="line"/>
      <point x="-110" y="-133" type="line"/>
      <point x="6" y="-225" type="line"/>
      <point x="711" y="-225" type="line"/>
      <point x="711" y="-147" type="line"/>
      <point x="595" y="-55" type="line"/>
    </contour>
    <contour>
      <point x="300" y="0" type="move" name="_bottom"/>
    </contour>
  </outline>
</glyph>
<glyph name="grave-deva" format="1">
  <advance width="600"/>
  <unicode hex="0953"/>
  <outline>
    <component base="halant-deva" xOffset="-20" yOffset="1266"/>
    <contour>
      <point x="328" y="786" type="move" name="_top"/>
    </contour>
  </outline>
</glyph>
<glyph name="acute-deva" format="1">
  <advance width="600"/>
  <unicode hex="0954"/>
  <outline>
	<contour>
	  <point x="385" y="1167"/>
	  <point x="265" y="1096"/>
	  <point x="72" y="1013" type="curve"/>
	  <point x="72" y="935" type="line"/>
	  <point x="247" y="843" type="line"/>
	  <point x="432" y="925"/>
	  <point x="547" y="983"/>
	  <point x="641" y="1062" type="curve"/>
	  <point x="641" y="1140" type="line"/>
	  <point x="466" y="1232" type="line"/>
	</contour>
	<contour>
	  <point x="328" y="786" type="move" name="_top"/>
	</contour>
  </outline>
</glyph>
<glyph name="eLongCandra-deva" format="1">
  <advance width="600"/>
  <unicode hex="0955"/>
  <outline>
    <contour>
      <point x="-122" y="1053" type="line"/>
      <point x="-122" y="975" type="line"/>
      <point x="-6" y="883" type="line"/>
      <point x="699" y="883" type="line"/>
      <point x="699" y="961" type="line"/>
      <point x="583" y="1053" type="line"/>
    </contour>
    <component base="eCandraMatra-deva" xOffset="-141" yOffset="179"/>
    <contour>
      <point x="302" y="786" type="move" name="_top"/>
    </contour>
  </outline>
</glyph>
<glyph name="ueMatra-deva" format="1">
  <advance width="600"/>
  <unicode hex="0956"/>
  <outline>
	<contour>
	  <point x="192" y="-119"/>
	  <point x="136" y="-103"/>
	  <point x="52" y="-67" type="curve"/>
	  <point x="22" y="-135" type="line"/>
	  <point x="159" y="-245" type="line"/>
	  <point x="197" y="-258"/>
	  <point x="239" y="-264"/>
	  <point x="292" y="-264" type="curve" smooth="yes"/>
	  <point x="387" y="-264"/>
	  <point x="518" y="-244"/>
	  <point x="581" y="-208" type="curve"/>
	  <point x="581" y="-130" type="line"/>
	  <point x="406" y="-38" type="line"/>
	  <point x="361" y="-85"/>
	  <point x="301" y="-119"/>
	  <point x="241" y="-119" type="curve" smooth="yes"/>
	</contour>
	<contour>
	  <point x="247" y="0" type="move" name="_center-bottom"/>
	</contour>
  </outline>
</glyph>
<glyph name="dddha-deva" format="1">
  <advance width="829"/>
  <unicode hex="095C"/>
  <outline>
    <component base="dda-deva"/>
    <component base="nukta-deva" xOffset="-44" yOffset="59"/>
    <contour>
      <point x="544" y="0" type="move" name="bottom"/>
    </contour>
  </outline>
</glyph>
<glyph name="rrVocalic-deva" format="1">
  <advance width="1536"/>
  <unicode hex="0960"/>
  <outline>
	<contour>
	  <point x="577" y="786" type="line"/>
	  <point x="577" y="708" type="line"/>
	  <point x="754" y="616" type="line"/>
	  <point x="1698" y="616" type="line"/>
	  <point x="1698" y="694" type="line"/>
	  <point x="1521" y="786" type="line"/>
	</contour>
	<contour>
	  <point x="749" y="346" type="line"/>
	  <point x="814" y="307"/>
	  <point x="894" y="277"/>
	  <point x="968" y="277" type="curve" smooth="yes"/>
	  <point x="1020" y="277"/>
	  <point x="1062" y="287"/>
	  <point x="1098" y="303" type="curve"/>
	  <point x="1047" y="489" type="line"/>
	  <point x="1003" y="441"/>
	  <point x="949" y="407"/>
	  <point x="898" y="407" type="curve" smooth="yes"/>
	  <point x="849" y="407"/>
	  <point x="816" y="411"/>
	  <point x="796" y="417" type="curve"/>
	</contour>
	<contour>
	  <point x="1253" y="215" type="line"/>
	  <point x="1197" y="252"/>
	  <point x="1179" y="295"/>
	  <point x="1188" y="350" type="curve"/>
	  <point x="1138" y="286" type="line"/>
	  <point x="1281" y="300"/>
	  <point x="1438" y="350"/>
	  <point x="1438" y="428" type="curve" smooth="yes"/>
	  <point x="1438" y="509"/>
	  <point x="1267" y="581"/>
	  <point x="1163" y="581" type="curve" smooth="yes"/>
	  <point x="1064" y="581"/>
	  <point x="967" y="483"/>
	  <point x="967" y="358" type="curve" smooth="yes"/>
	  <point x="967" y="286"/>
	  <point x="984" y="214"/>
	  <point x="1012" y="152" type="curve"/>
	</contour>
	<component base="t_ra-deva"/>
	<component base="aaMatra-deva" xOffset="557"/>
	<component base="rrVocalicMatra-deva" xOffset="893" yOffset="379"/>
  </outline>
</glyph>
<glyph name="lVocalicMatra-deva" format="1">
  <advance width="1204"/>
  <unicode hex="0962"/>
  <outline>
	<contour>
	  <point x="606" y="-120"/>
	  <point x="537" y="-152"/>
	  <point x="458" y="-269" type="curve"/>
	  <point x="458" y="-347" type="line"/>
	  <point x="625" y="-439" type="line"/>
	  <point x="659" y="-324"/>
	  <point x="709" y="-252"/>
	  <point x="771" y="-252" type="curve" smooth="yes"/>
	  <point x="804" y="-252"/>
	  <point x="832" y="-276"/>
	  <point x="832" y="-321" type="curve" smooth="yes"/>
	  <point x="832" y="-390"/>
	  <point x="684" y="-418"/>
	  <point x="684" y="-532" type="curve" smooth="yes"/>
	  <point x="684" y="-652"/>
	  <point x="860" y="-751"/>
	  <point x="995" y="-751" type="curve" smooth="yes"/>
	  <point x="1056" y="-751"/>
	  <point x="1140" y="-717"/>
	  <point x="1184" y="-685" type="curve"/>
	  <point x="1184" y="-607" type="line"/>
	  <point x="1017" y="-515" type="line"/>
	  <point x="995" y="-578"/>
	  <point x="963" y="-617"/>
	  <point x="930" y="-617" type="curve" smooth="yes"/>
	  <point x="908" y="-617"/>
	  <point x="894" y="-604"/>
	  <point x="894" y="-580" type="curve" smooth="yes"/>
	  <point x="894" y="-521"/>
	  <point x="1042" y="-491"/>
	  <point x="1042" y="-369" type="curve" smooth="yes"/>
	  <point x="1042" y="-231"/>
	  <point x="842" y="-120"/>
	  <point x="691" y="-120" type="curve" smooth="yes"/>
	</contour>
	<contour>
	  <point x="202" y="-120"/>
	  <point x="110" y="-210"/>
	  <point x="110" y="-324" type="curve" smooth="yes"/>
	  <point x="110" y="-339"/>
	  <point x="112" y="-362"/>
	  <point x="117" y="-381" type="curve"/>
	  <point x="443" y="-645" type="line"/>
	  <point x="493" y="-580" type="line"/>
	  <point x="403" y="-508" type="line" smooth="yes"/>
	  <point x="346" y="-463"/>
	  <point x="320" y="-420"/>
	  <point x="320" y="-372" type="curve" smooth="yes"/>
	  <point x="320" y="-313"/>
	  <point x="359" y="-265"/>
	  <point x="438" y="-265" type="curve" smooth="yes"/>
	  <point x="475" y="-265"/>
	  <point x="532" y="-279"/>
	  <point x="620" y="-317" type="curve"/>
	  <point x="650" y="-249" type="line"/>
	  <point x="542" y="-175"/>
	  <point x="447" y="-120"/>
	  <point x="330" y="-120" type="curve" smooth="yes"/>
	</contour>
	<contour>
	  <point x="461" y="0" type="move" name="_bottom"/>
	</contour>
  </outline>
</glyph>
<glyph name="llVocalicMatra-deva" format="1">
  <advance width="1204"/>
  <unicode hex="0963"/>
  <outline>
    <contour>
      <point x="598" y="-120"/>
      <point x="523" y="-152"/>
      <point x="438" y="-269" type="curve"/>
      <point x="438" y="-347" type="line"/>
      <point x="605" y="-439" type="line"/>
      <point x="643" y="-324"/>
      <point x="701" y="-252"/>
      <point x="771" y="-252" type="curve" smooth="yes"/>
      <point x="804" y="-252"/>
      <point x="832" y="-269"/>
      <point x="832" y="-301" type="curve" smooth="yes"/>
      <point x="832" y="-346"/>
      <point x="684" y="-360"/>
      <point x="684" y="-432" type="curve" smooth="yes"/>
      <point x="684" y="-532"/>
      <point x="819" y="-614"/>
      <point x="923" y="-614" type="curve"/>
      <point x="970" y="-567" type="line"/>
      <point x="924" y="-543"/>
      <point x="894" y="-522"/>
      <point x="894" y="-500" type="curve" smooth="yes"/>
      <point x="894" y="-448"/>
      <point x="1042" y="-443"/>
      <point x="1042" y="-369" type="curve" smooth="yes"/>
      <point x="1042" y="-231"/>
      <point x="842" y="-120"/>
      <point x="691" y="-120" type="curve" smooth="yes"/>
    </contour>
    <contour>
      <point x="202" y="-120"/>
      <point x="110" y="-210"/>
      <point x="110" y="-324" type="curve" smooth="yes"/>
      <point x="110" y="-339"/>
      <point x="112" y="-362"/>
      <point x="117" y="-381" type="curve"/>
      <point x="443" y="-645" type="line"/>
      <point x="493" y="-580" type="line"/>
      <point x="403" y="-508" type="line" smooth="yes"/>
      <point x="346" y="-463"/>
      <point x="320" y="-420"/>
      <point x="320" y="-372" type="curve" smooth="yes"/>
      <point x="320" y="-313"/>
      <point x="359" y="-265"/>
      <point x="438" y="-265" type="curve" smooth="yes"/>
      <point x="475" y="-265"/>
      <point x="532" y="-279"/>
      <point x="620" y="-317" type="curve"/>
      <point x="650" y="-249" type="line"/>
      <point x="542" y="-175"/>
      <point x="447" y="-120"/>
      <point x="330" y="-120" type="curve" smooth="yes"/>
    </contour>
    <contour>
      <point x="717" y="-515"/>
      <point x="657" y="-572"/>
      <point x="657" y="-651" type="curve" smooth="yes"/>
      <point x="657" y="-775"/>
      <point x="837" y="-877"/>
      <point x="1014" y="-877" type="curve" smooth="yes"/>
      <point x="1084" y="-877"/>
      <point x="1124" y="-864"/>
      <point x="1163" y="-841" type="curve"/>
      <point x="1163" y="-763" type="line"/>
      <point x="996" y="-671" type="line"/>
      <point x="972" y="-719"/>
      <point x="947" y="-747"/>
      <point x="914" y="-747" type="curve" smooth="yes"/>
      <point x="891" y="-747"/>
      <point x="873" y="-731"/>
      <point x="873" y="-712" type="curve" smooth="yes"/>
      <point x="873" y="-673"/>
      <point x="913" y="-645"/>
      <point x="970" y="-645" type="curve"/>
      <point x="970" y="-567" type="line"/>
      <point x="793" y="-475" type="line"/>
    </contour>
    <contour>
      <point x="606" y="0" type="move" name="_bottom"/>
    </contour>
  </outline>
</glyph>
<glyph name="danda-deva" format="1">
  <advance width="680"/>
  <unicode hex="0964"/>
  <outline>
    <contour>
      <point x="240" y="796" type="line"/>
      <point x="240" y="145" type="line"/>
      <point x="190" y="80" type="line"/>
      <point x="362" y="-10" type="line"/>
      <point x="440" y="-10" type="line"/>
      <point x="440" y="732" type="line"/>
      <point x="318" y="796" type="line"/>
    </contour>
  </outline>
</glyph>
<glyph name="zero-deva" format="1">
  <advance width="773"/>
  <unicode hex="0966"/>
  <outline>
    <contour>
      <point x="189" y="576"/>
      <point x="100" y="492"/>
      <point x="100" y="383" type="curve" smooth="yes"/>
      <point x="100" y="225"/>
      <point x="307" y="109"/>
      <point x="454" y="109" type="curve" smooth="yes"/>
      <point x="584" y="109"/>
      <point x="673" y="193"/>
      <point x="673" y="302" type="curve" smooth="yes"/>
      <point x="673" y="460"/>
      <point x="466" y="576"/>
      <point x="319" y="576" type="curve" smooth="yes"/>
    </contour>
    <contour>
      <point x="428" y="456"/>
      <point x="457" y="422"/>
      <point x="457" y="349" type="curve" smooth="yes"/>
      <point x="457" y="288"/>
      <point x="432" y="229"/>
      <point x="384" y="229" type="curve" smooth="yes"/>
      <point x="345" y="229"/>
      <point x="316" y="263"/>
      <point x="316" y="336" type="curve" smooth="yes"/>
      <point x="316" y="397"/>
      <point x="341" y="456"/>
      <point x="389" y="456" type="curve" smooth="yes"/>
    </contour>
  </outline>
</glyph>
<glyph name="one-deva" format="1">
  <advance width="640"/>
  <unicode hex="0967"/>
  <outline>
    <contour>
      <point x="98" y="796"/>
      <point x="17" y="727"/>
      <point x="17" y="644" type="curve" smooth="yes"/>
      <point x="17" y="526"/>
      <point x="179" y="409"/>
      <point x="344" y="409" type="curve" smooth="yes"/>
      <point x="397" y="409"/>
      <point x="438" y="420"/>
      <point x="469" y="444" type="curve"/>
      <point x="394" y="652" type="line"/>
      <point x="307" y="529"/>
      <point x="307" y="529"/>
      <point x="274" y="529" type="curve" smooth="yes"/>
      <point x="246" y="529"/>
      <point x="233" y="550"/>
      <point x="233" y="595" type="curve" smooth="yes"/>
      <point x="233" y="637"/>
      <point x="246" y="671"/>
      <point x="262" y="671" type="curve" smooth="yes"/>
      <point x="283" y="671"/>
      <point x="297" y="607"/>
      <point x="297" y="510" type="curve" smooth="yes"/>
      <point x="297" y="396"/>
      <point x="271" y="191"/>
      <point x="237" y="37" type="curve"/>
      <point x="359" y="-10" type="line"/>
      <point x="437" y="-10" type="line"/>
      <point x="456" y="69"/>
      <point x="500" y="312"/>
      <point x="500" y="439" type="curve" smooth="yes"/>
      <point x="500" y="639"/>
      <point x="365" y="796"/>
      <point x="195" y="796" type="curve" smooth="yes"/>
    </contour>
  </outline>
</glyph>
<glyph name="two-deva" format="1">
  <advance width="769"/>
  <unicode hex="0968"/>
  <outline>
    <contour>
      <point x="662" y="653"/>
      <point x="499" y="796"/>
      <point x="338" y="796" type="curve" smooth="yes"/>
      <point x="248" y="796"/>
      <point x="133" y="757"/>
      <point x="85" y="710" type="curve"/>
      <point x="85" y="632" type="line"/>
      <point x="260" y="540" type="line"/>
      <point x="298" y="604"/>
      <point x="353" y="646"/>
      <point x="398" y="646" type="curve" smooth="yes"/>
      <point x="432" y="646"/>
      <point x="447" y="625"/>
      <point x="447" y="576" type="curve" smooth="yes"/>
      <point x="447" y="504"/>
      <point x="419" y="440"/>
      <point x="358" y="369" type="curve"/>
      <point x="410" y="369" type="line"/>
      <point x="350" y="393"/>
      <point x="284" y="407"/>
      <point x="227" y="407" type="curve" smooth="yes"/>
      <point x="145" y="407"/>
      <point x="95" y="379"/>
      <point x="95" y="333" type="curve" smooth="yes"/>
      <point x="95" y="248"/>
      <point x="254" y="121"/>
      <point x="361" y="121" type="curve" smooth="yes"/>
      <point x="494" y="121"/>
      <point x="662" y="338"/>
      <point x="662" y="511" type="curve" smooth="yes"/>
    </contour>
    <contour>
      <point x="349" y="281" type="line"/>
      <point x="792" y="-77" type="line"/>
      <point x="849" y="-17" type="line"/>
      <point x="411" y="336" type="line"/>
    </contour>
  </outline>
</glyph>
<glyph name="three-deva" format="1">
  <advance width="850"/>
  <unicode hex="0969"/>
  <outline>
    <contour>
      <point x="335" y="122"/>
      <point x="269" y="141"/>
      <point x="199" y="193" type="curve"/>
      <point x="305" y="118" type="line"/>
      <point x="297" y="257"/>
      <point x="237" y="356"/>
      <point x="149" y="356" type="curve" smooth="yes"/>
      <point x="102" y="356"/>
      <point x="80" y="319"/>
      <point x="80" y="275" type="curve" smooth="yes"/>
      <point x="80" y="123"/>
      <point x="308" y="-10"/>
      <point x="518" y="-10" type="curve" smooth="yes"/>
      <point x="626" y="-10"/>
      <point x="781" y="108"/>
      <point x="781" y="189" type="curve" smooth="yes"/>
      <point x="781" y="259"/>
      <point x="663" y="348"/>
      <point x="497" y="404" type="curve"/>
      <point x="607" y="336" type="line"/>
      <point x="666" y="378"/>
      <point x="702" y="433"/>
      <point x="702" y="521" type="curve" smooth="yes"/>
      <point x="702" y="648"/>
      <point x="534" y="796"/>
      <point x="384" y="796" type="curve" smooth="yes"/>
      <point x="298" y="796"/>
      <point x="182" y="764"/>
      <point x="125" y="710" type="curve"/>
      <point x="125" y="632" type="line"/>
      <point x="300" y="540" type="line"/>
      <point x="337" y="602"/>
      <point x="390" y="646"/>
      <point x="440" y="646" type="curve" smooth="yes"/>
      <point x="474" y="646"/>
      <point x="487" y="622"/>
      <point x="487" y="573" type="curve" smooth="yes"/>
      <point x="487" y="515"/>
      <point x="451" y="472"/>
      <point x="398" y="449" type="curve"/>
      <point x="398" y="371" type="line"/>
      <point x="552" y="283"/>
      <point x="565" y="270"/>
      <point x="565" y="222" type="curve" smooth="yes"/>
      <point x="565" y="175"/>
      <point x="457" y="120"/>
      <point x="378" y="121" type="curve" smooth="yes"/>
    </contour>
    <contour>
      <point x="159" y="124" type="line"/>
      <point x="602" y="-234" type="line"/>
      <point x="659" y="-174" type="line"/>
      <point x="221" y="179" type="line"/>
    </contour>
  </outline>
</glyph>
<glyph name="four-deva" format="1">
  <advance width="850"/>
  <unicode hex="096A"/>
  <outline>
	<contour>
	  <point x="494" y="831" type="line"/>
	  <point x="502" y="811"/>
	  <point x="506" y="794"/>
	  <point x="506" y="778" type="curve" smooth="yes"/>
	  <point x="506" y="739"/>
	  <point x="485" y="705"/>
	  <point x="432" y="657" type="curve" smooth="yes"/>
	  <point x="222" y="466" type="line" smooth="yes"/>
	  <point x="151" y="400"/>
	  <point x="115" y="333"/>
	  <point x="115" y="267" type="curve" smooth="yes"/>
	  <point x="115" y="123"/>
	  <point x="298" y="-10"/>
	  <point x="497" y="-10" type="curve" smooth="yes"/>
	  <point x="641" y="-10"/>
	  <point x="748" y="65"/>
	  <point x="748" y="167" type="curve" smooth="yes"/>
	  <point x="748" y="239"/>
	  <point x="695" y="310"/>
	  <point x="587" y="382" type="curve" smooth="yes"/>
	  <point x="375" y="522" type="line" smooth="yes"/>
	  <point x="318" y="559"/>
	  <point x="289" y="628"/>
	  <point x="289" y="726" type="curve" smooth="yes"/>
	  <point x="289" y="755"/>
	  <point x="291" y="774"/>
	  <point x="296" y="791" type="curve"/>
	  <point x="129" y="883" type="line"/>
	  <point x="79" y="818" type="line"/>
	  <point x="75" y="801"/>
	  <point x="73" y="788"/>
	  <point x="73" y="770" type="curve" smooth="yes"/>
	  <point x="73" y="668"/>
	  <point x="126" y="584"/>
	  <point x="228" y="520" type="curve" smooth="yes"/>
	  <point x="438" y="388" type="line" smooth="yes"/>
	  <point x="498" y="350"/>
	  <point x="532" y="298"/>
	  <point x="532" y="244" type="curve" smooth="yes"/>
	  <point x="532" y="175"/>
	  <point x="478" y="122"/>
	  <point x="408" y="122" type="curve" smooth="yes"/>
	  <point x="357" y="122"/>
	  <point x="331" y="149"/>
	  <point x="331" y="203" type="curve" smooth="yes"/>
	  <point x="331" y="254"/>
	  <point x="354" y="291"/>
	  <point x="427" y="358" type="curve" smooth="yes"/>
	  <point x="659" y="570" type="line" smooth="yes"/>
	  <point x="706" y="613"/>
	  <point x="729" y="659"/>
	  <point x="729" y="708" type="curve" smooth="yes"/>
	  <point x="729" y="734"/>
	  <point x="723" y="759"/>
	  <point x="710" y="784" type="curve"/>
	  <point x="530" y="883" type="line"/>
	</contour>
  </outline>
</glyph>
<glyph name="five-deva" format="1">
  <advance width="834"/>
  <unicode hex="096B"/>
  <outline>
	<contour>
	  <point x="460" y="550" type="line"/>
	  <point x="460" y="502" type="line" smooth="yes"/>
	  <point x="460" y="417"/>
	  <point x="461" y="348"/>
	  <point x="453" y="264" type="curve"/>
	  <point x="410" y="272"/>
	  <point x="372" y="276"/>
	  <point x="340" y="276" type="curve" smooth="yes"/>
	  <point x="237" y="276"/>
	  <point x="189" y="243"/>
	  <point x="189" y="202" type="curve" smooth="yes"/>
	  <point x="189" y="122"/>
	  <point x="373" y="-10"/>
	  <point x="483" y="-10" type="curve" smooth="yes"/>
	  <point x="585" y="0"/>
	  <point x="663" y="117"/>
	  <point x="663" y="431" type="curve" smooth="yes"/>
	  <point x="663" y="686" type="line"/>
	</contour>
	<contour>
	  <point x="411" y="208" type="line"/>
	  <point x="854" y="-150" type="line"/>
	  <point x="911" y="-90" type="line"/>
	  <point x="473" y="263" type="line"/>
	</contour>
	<contour>
	  <point x="463" y="796" type="line"/>
	  <point x="463" y="671" type="line" smooth="yes"/>
	  <point x="463" y="603"/>
	  <point x="399" y="566"/>
	  <point x="358" y="566" type="curve" smooth="yes"/>
	  <point x="320" y="566"/>
	  <point x="301" y="592"/>
	  <point x="301" y="640" type="curve" smooth="yes"/>
	  <point x="301" y="749" type="line"/>
	  <point x="179" y="796" type="line"/>
	  <point x="101" y="796" type="line"/>
	  <point x="101" y="677" type="line" smooth="yes"/>
	  <point x="101" y="547"/>
	  <point x="289" y="446"/>
	  <point x="428" y="446" type="curve" smooth="yes"/>
	  <point x="556" y="446"/>
	  <point x="663" y="545"/>
	  <point x="663" y="630" type="curve" smooth="yes"/>
	  <point x="663" y="749" type="line"/>
	  <point x="541" y="796" type="line"/>
	</contour>
  </outline>
</glyph>
<glyph name="six-deva" format="1">
  <advance width="970"/>
  <unicode hex="096C"/>
  <outline>
    <contour>
      <point x="616" y="643"/>
      <point x="588" y="593"/>
      <point x="588" y="511" type="curve" smooth="yes"/>
      <point x="588" y="454"/>
      <point x="602" y="388"/>
      <point x="637" y="298" type="curve"/>
      <point x="625" y="443" type="line"/>
      <point x="583" y="356"/>
      <point x="529" y="266"/>
      <point x="414" y="266" type="curve" smooth="yes"/>
      <point x="383" y="266"/>
      <point x="343" y="294"/>
      <point x="343" y="331" type="curve" smooth="yes"/>
      <point x="343" y="368"/>
      <point x="373" y="408"/>
      <point x="440" y="408" type="curve" smooth="yes"/>
      <point x="463" y="408"/>
      <point x="482" y="407"/>
      <point x="507" y="403" type="curve"/>
      <point x="507" y="481" type="line"/>
      <point x="330" y="573" type="line"/>
      <point x="210" y="573"/>
      <point x="127" y="488"/>
      <point x="127" y="392" type="curve" smooth="yes"/>
      <point x="127" y="243"/>
      <point x="326" y="146"/>
      <point x="484" y="146" type="curve" smooth="yes"/>
      <point x="657" y="146"/>
      <point x="874" y="273"/>
      <point x="874" y="377" type="curve" smooth="yes"/>
      <point x="874" y="484"/>
      <point x="747" y="643"/>
      <point x="662" y="643" type="curve" smooth="yes"/>
    </contour>
    <contour>
      <point x="132" y="806"/>
      <point x="71" y="764"/>
      <point x="71" y="674" type="curve" smooth="yes"/>
      <point x="71" y="553"/>
      <point x="193" y="483"/>
      <point x="288" y="483" type="curve"/>
      <point x="330" y="573" type="line"/>
      <point x="307" y="573"/>
      <point x="287" y="582"/>
      <point x="287" y="604" type="curve" smooth="yes"/>
      <point x="287" y="628"/>
      <point x="336" y="641"/>
      <point x="389" y="641" type="curve" smooth="yes"/>
      <point x="407" y="641"/>
      <point x="423" y="639"/>
      <point x="444" y="634" type="curve"/>
      <point x="444" y="712" type="line"/>
      <point x="267" y="804" type="line"/>
      <point x="254" y="805"/>
      <point x="238" y="806"/>
      <point x="219" y="806" type="curve" smooth="yes"/>
    </contour>
    <contour>
      <point x="626" y="298" type="line"/>
      <point x="1069" y="-60" type="line"/>
      <point x="1126" y="0" type="line"/>
      <point x="688" y="353" type="line"/>
    </contour>
  </outline>
</glyph>
<glyph name="seven-deva" format="1">
  <advance width="1048"/>
  <unicode hex="096D"/>
  <outline>
    <contour>
      <point x="160" y="818" type="line"/>
      <point x="115" y="735"/>
      <point x="90" y="629"/>
      <point x="90" y="526" type="curve" smooth="yes"/>
      <point x="90" y="235"/>
      <point x="308" y="-10"/>
      <point x="568" y="-10" type="curve" smooth="yes"/>
      <point x="781" y="-10"/>
      <point x="951" y="166"/>
      <point x="951" y="388" type="curve" smooth="yes"/>
      <point x="951" y="572"/>
      <point x="810" y="725"/>
      <point x="639" y="725" type="curve" smooth="yes"/>
      <point x="537" y="725"/>
      <point x="458" y="657"/>
      <point x="458" y="571" type="curve" smooth="yes"/>
      <point x="458" y="454"/>
      <point x="621" y="338"/>
      <point x="786" y="338" type="curve" smooth="yes"/>
      <point x="834" y="338"/>
      <point x="876" y="350"/>
      <point x="910" y="373" type="curve"/>
      <point x="835" y="581" type="line"/>
      <point x="748" y="458"/>
      <point x="748" y="458"/>
      <point x="715" y="458" type="curve" smooth="yes"/>
      <point x="687" y="458"/>
      <point x="674" y="479"/>
      <point x="674" y="523" type="curve" smooth="yes"/>
      <point x="674" y="567"/>
      <point x="687" y="600"/>
      <point x="704" y="600" type="curve" smooth="yes"/>
      <point x="724" y="600"/>
      <point x="735" y="557"/>
      <point x="735" y="478" type="curve" smooth="yes"/>
      <point x="735" y="256"/>
      <point x="646" y="124"/>
      <point x="497" y="124" type="curve" smooth="yes"/>
      <point x="368" y="124"/>
      <point x="306" y="232"/>
      <point x="306" y="396" type="curve" smooth="yes"/>
      <point x="306" y="542"/>
      <point x="323" y="631"/>
      <point x="377" y="791" type="curve"/>
      <point x="210" y="883" type="line"/>
    </contour>
  </outline>
</glyph>
<glyph name="eight-deva" format="1">
  <advance width="870"/>
  <unicode hex="096E"/>
  <outline>
    <contour>
      <point x="394" y="786" type="line" smooth="yes"/>
      <point x="265" y="786"/>
      <point x="127" y="690"/>
      <point x="127" y="562" type="curve" smooth="yes"/>
      <point x="127" y="272"/>
      <point x="599" y="301"/>
      <point x="599" y="205" type="curve" smooth="yes"/>
      <point x="599" y="174"/>
      <point x="577" y="151"/>
      <point x="537" y="151" type="curve"/>
      <point x="537" y="73" type="line"/>
      <point x="704" y="-19" type="line"/>
      <point x="765" y="21"/>
      <point x="815" y="71"/>
      <point x="815" y="155" type="curve" smooth="yes"/>
      <point x="815" y="384"/>
      <point x="343" y="297"/>
      <point x="343" y="484" type="curve" smooth="yes"/>
      <point x="343" y="568"/>
      <point x="406" y="616"/>
      <point x="482" y="616" type="curve" smooth="yes"/>
      <point x="526" y="616" type="line"/>
      <point x="526" y="786" type="line"/>
    </contour>
    <contour>
      <point x="-95" y="786" type="line"/>
      <point x="-95" y="708" type="line"/>
      <point x="82" y="616" type="line"/>
      <point x="862" y="616" type="line"/>
      <point x="862" y="694" type="line"/>
      <point x="685" y="786" type="line"/>
    </contour>
  </outline>
</glyph>
<glyph name="nine-deva" format="1">
  <advance width="770"/>
  <unicode hex="096F"/>
  <outline>
	<contour>
	  <point x="185" y="468"/>
	  <point x="57" y="388"/>
	  <point x="57" y="262" type="curve" smooth="yes"/>
	  <point x="57" y="97"/>
	  <point x="256" y="-10"/>
	  <point x="414" y="-10" type="curve" smooth="yes"/>
	  <point x="543" y="-10"/>
	  <point x="655" y="65"/>
	  <point x="712" y="107" type="curve"/>
	  <point x="712" y="185" type="line"/>
	  <point x="535" y="277" type="line"/>
	  <point x="483" y="215"/>
	  <point x="409" y="150"/>
	  <point x="334" y="150" type="curve" smooth="yes"/>
	  <point x="296" y="150"/>
	  <point x="273" y="172"/>
	  <point x="273" y="201" type="curve" smooth="yes"/>
	  <point x="273" y="268"/>
	  <point x="348" y="338"/>
	  <point x="430" y="338" type="curve" smooth="yes"/>
	  <point x="453" y="338"/>
	  <point x="472" y="337"/>
	  <point x="497" y="333" type="curve"/>
	  <point x="497" y="411" type="line"/>
	  <point x="320" y="503" type="line"/>
	</contour>
	<contour>
	  <point x="212" y="797"/>
	  <point x="110" y="724"/>
	  <point x="110" y="624" type="curve" smooth="yes"/>
	  <point x="110" y="513"/>
	  <point x="232" y="422"/>
	  <point x="327" y="373" type="curve"/>
	  <point x="497" y="411" type="line"/>
	  <point x="422" y="452"/>
	  <point x="326" y="491"/>
	  <point x="326" y="596" type="curve" smooth="yes"/>
	  <point x="326" y="644"/>
	  <point x="350" y="672"/>
	  <point x="388" y="672" type="curve" smooth="yes"/>
	  <point x="410" y="672"/>
	  <point x="422" y="665"/>
	  <point x="422" y="651" type="curve" smooth="yes"/>
	  <point x="422" y="640"/>
	  <point x="413" y="632"/>
	  <point x="400" y="632" type="curve" smooth="yes"/>
	  <point x="393" y="632"/>
	  <point x="386" y="634"/>
	  <point x="375" y="638" type="curve"/>
	  <point x="375" y="560" type="line"/>
	  <point x="438" y="508" type="line"/>
	  <point x="442" y="507"/>
	  <point x="445" y="507"/>
	  <point x="452" y="507" type="curve" smooth="yes"/>
	  <point x="559" y="507"/>
	  <point x="638" y="552"/>
	  <point x="638" y="613" type="curve" smooth="yes"/>
	  <point x="638" y="703"/>
	  <point x="494" y="797"/>
	  <point x="356" y="797" type="curve" smooth="yes"/>
	</contour>
  </outline>
</glyph>
<glyph name="abbreviation-deva" format="1">
  <advance width="633"/>
  <unicode hex="0970"/>
  <outline>
	<contour>
	  <point x="136" y="566"/>
	  <point x="60" y="498"/>
	  <point x="60" y="413" type="curve" smooth="yes"/>
	  <point x="60" y="279"/>
	  <point x="248" y="179"/>
	  <point x="384" y="179" type="curve" smooth="yes"/>
	  <point x="497" y="179"/>
	  <point x="573" y="247"/>
	  <point x="573" y="332" type="curve" smooth="yes"/>
	  <point x="573" y="466"/>
	  <point x="385" y="566"/>
	  <point x="249" y="566" type="curve" smooth="yes"/>
	</contour>
	<contour>
	  <point x="343" y="446"/>
	  <point x="357" y="424"/>
	  <point x="357" y="379" type="curve" smooth="yes"/>
	  <point x="357" y="336"/>
	  <point x="344" y="299"/>
	  <point x="314" y="299" type="curve" smooth="yes"/>
	  <point x="290" y="299"/>
	  <point x="276" y="321"/>
	  <point x="276" y="366" type="curve" smooth="yes"/>
	  <point x="276" y="409"/>
	  <point x="289" y="446"/>
	  <point x="319" y="446" type="curve" smooth="yes"/>
	</contour>
  </outline>
</glyph>
